<svg id="Layer_1" data-name="Layer 1" xmlns="http://www.w3.org/2000/svg" width="20" height="25" viewBox="0 0 20 25"><defs><style>.cls-1{fill:#5f9595;stroke:#5f9595;stroke-miterlimit:10;stroke-width:0.5px;}</style></defs><title>ja</title><path class="cls-1" d="M.46,18.13A.31.31,0,0,1,.57,18a.31.31,0,0,1,.17-.11c.19.42.39.85.62,1.31a7.22,7.22,0,0,0,.81,1.27,4.33,4.33,0,0,0,1.06.95,2.55,2.55,0,0,0,1.38.38,2,2,0,0,0,1.2-.37,1.87,1.87,0,0,0,.71-1.07,21.52,21.52,0,0,0,0-3.5c-.1-1.16-.23-2.32-.39-3.47S5.8,11,5.64,9.89A29,29,0,0,1,5.38,6.4c0-.07,0-.16,0-.27a.8.8,0,0,1,0-.31.71.71,0,0,1,.13-.26.38.38,0,0,1,.3-.11.48.48,0,0,1,.41.3c.36,2.1.68,4.22,1,6.38a50.2,50.2,0,0,1,.43,6.43,9.88,9.88,0,0,1-.12,1.59,3.26,3.26,0,0,1-.46,1.26,2.4,2.4,0,0,1-.95.83,3.34,3.34,0,0,1-1.55.31A3.37,3.37,0,0,1,3,22.18a4.43,4.43,0,0,1-1.31-1,5.19,5.19,0,0,1-.91-1.43A4.18,4.18,0,0,1,.46,18.13Z"/><path class="cls-1" d="M8.9,20.6A5.65,5.65,0,0,0,9,19.83l.12-1.25c0-.52.11-1.15.17-1.91s.16-1.68.27-2.77.25-2.37.4-3.84.34-3.17.59-5.12a.25.25,0,0,1,.2-.26,1.42,1.42,0,0,1,.34,0,.47.47,0,0,1,.38.17,1.92,1.92,0,0,1,.27.39c.08.14.15.29.23.45a1.91,1.91,0,0,0,.23.38c.15.33.29.71.44,1.14s.31.89.49,1.38.34,1,.51,1.47.35,1,.52,1.44l.48,1.29a9.91,9.91,0,0,0,.42,1,2.5,2.5,0,0,0,.67-.18c.28-.11.59-.21.92-.31a9.14,9.14,0,0,1,1-.24,2.11,2.11,0,0,1,.79,0,.53.53,0,0,1,.42.38,1.5,1.5,0,0,1-.16.94.66.66,0,0,1-.28-.05l-.26-.11-.27-.1a.75.75,0,0,0-.31-.06,2.2,2.2,0,0,0-.48.12l-.81.26a7,7,0,0,0-.75.28c-.21.09-.32.16-.32.2l1.48,5.82-.56.82a7,7,0,0,1-.61-1.43c-.16-.54-.32-1.07-.46-1.61s-.29-1-.44-1.5A4,4,0,0,0,14,15.77a5.68,5.68,0,0,1-1.08.36,9.84,9.84,0,0,0-1.2.38,3.33,3.33,0,0,0-1,.6,1.56,1.56,0,0,0-.5,1,6.67,6.67,0,0,0-.08.69c0,.28,0,.56-.07.81s-.08.64-.11,1ZM11.38,8l-.05.36c0,.24,0,.53-.06.85s-.06.65-.1,1-.06.62-.07.85c-.08.8-.15,1.59-.23,2.37a23.51,23.51,0,0,0-.12,2.4,4,4,0,0,0,.87-.11,5.15,5.15,0,0,0,.89-.29,3.6,3.6,0,0,0,.79-.45,2.14,2.14,0,0,0,.55-.62c-.12-.5-.24-1-.38-1.55s-.28-1.08-.44-1.64S12.7,10,12.51,9.49s-.38-1-.6-1.54a.5.5,0,0,0-.15-.1C11.68,7.8,11.55,7.83,11.38,8Z"/><path class="cls-1" d="M17.3,10.65c0-1.32,0-2.62.09-3.92s.13-2.63.22-4a.43.43,0,0,1,.15-.22.37.37,0,0,1,.23,0c.15,0,.25,0,.3.11a.66.66,0,0,1,.12.27,1.22,1.22,0,0,1,0,.34c0,.12,0,.22,0,.31v6.57a4.78,4.78,0,0,0,.07.82l.13.86c.05.28.09.55.11.8a1.62,1.62,0,0,1-.05.64.67.67,0,0,1-.25.4.64.64,0,0,1-.44.18.53.53,0,0,1-.53-.39,2.71,2.71,0,0,1-.19-.9,8.85,8.85,0,0,1,0-1Q17.3,10.91,17.3,10.65Zm1.36,10V20.3a2,2,0,0,1,0-.23.37.37,0,0,1,.09-.2.21.21,0,0,1,.19-.09c.29,0,.45.07.5.21a1.34,1.34,0,0,1,.08.48,1.32,1.32,0,0,1-.08.49c-.05.13-.21.2-.5.2a.21.21,0,0,1-.19-.09.34.34,0,0,1-.09-.2A2,2,0,0,1,18.66,20.64Z"/></svg>
