<svg id="Layer_1" data-name="Layer 1" xmlns="http://www.w3.org/2000/svg" width="140" height="175" viewBox="0 0 140 175"><defs><style>.cls-1{fill:#aab8bb;}.cls-2{fill:#ffb6a3;}</style></defs><title>kat</title><path class="cls-1" d="M107,1c-5.33-3.2-20.35,7.37-25,9-7-2.66-10.38-2.22-21-2.22-12.07,0-23,.62-31.48,3.35C23.27,9,14.85.09,10,3,6,5.39,5,17,12.34,30.36a34.15,34.15,0,0,0-.29,3.76C11.44,62.3,34.6,66,61.66,66s38.59-3.67,41.66-30.63a28.17,28.17,0,0,0,.16-4.06C111,20,111.28,3.57,107,1Z"/><path class="cls-1" d="M119.11,77c-1.79-5.62-12.43-1.69-25.55,3.16-.49.18-1,.36-1.47.52-5-12.29-15.79-23-34.58-23.3-15.67-.22-25.07,9.49-29.85,21l-.22-.16C16,69.75,6.8,62.84,3.66,67.73s6.1,11.79,17.5,20.32c1.1.82,2.15,1.67,3.16,2.52a53.53,53.53,0,0,0-.63,8.11c0,3.11-.05,9.74,0,10.16,1.22,10.11,8.57,61.55,18.37,62.47,14.79,1.39-4.9-34.91,19.6-35.83,19.58-.73,13.48,40.42,23.28,39.5,9.34-.87,10.88-58.31,11-63.69.1-3.88-.32-8.15-.32-12.61a47.07,47.07,0,0,0-.46-6.49l2-.76C110.26,86.58,120.9,82.65,119.11,77Z"/><ellipse cx="28.59" cy="35.96" rx="2.45" ry="3.06"/><ellipse cx="76.36" cy="35.96" rx="2.45" ry="3.06"/><path class="cls-2" d="M48.76,41.47c-.66,1.13-1.54,2.45-3.44,2.45s-2.79-1.32-3.45-2.45C41,40,41,39,45.32,39,50.48,39,49.62,40,48.76,41.47Z"/><path class="cls-1" d="M135.82,95.59c-2.92-.59-10,15.48-24.29,12.63S72.89,121.74,80.7,128.29c1.53,1.29,14.91-14.51,29.15-11.66S142.64,97,135.82,95.59Z"/></svg>
