<svg xmlns="http://www.w3.org/2000/svg" width="453" height="620" viewBox="0 0 453 620"><defs><style>.cls-1{isolation:isolate;}.cls-2{fill:#5f9595;}.cls-3{fill:#ffd7ab;}.cls-4{fill:#aab8bb;}.cls-5{fill:#590013;}.cls-6{fill:#fcc062;}.cls-7{fill:#603813;}.cls-8{fill:#fff;}.cls-9{fill:#9e0011;}.cls-10{fill:#77000d;}.cls-11{fill:#fff6e9;}.cls-12{fill:#666;}.cls-13{fill:#ccc;}.cls-14{fill:#ff0;}.cls-15{mix-blend-mode:multiply;}.cls-16{fill:blue;}.cls-17{fill:#ed1c24;}</style></defs><title>migfigur</title><g class="cls-1"><g id="assets"><path id="bag_hår" data-name="bag hår" class="cls-2" d="M226.64,59.26s-73.5,2.72-78,4.54-2.73,39.92-2.73,45.36-12.7,44.46-12.7,54.44,3.63,30.85,4.54,39-12.7,0-15.43,3.63S115,224.39,118.66,228c0,0-10.88,0-10.88,4.54S110.5,249.8,115,250.7c0,0-6.36,3.63-4.54,8.17s2.72,9.07,7.26,10c0,0-4.54,8.17,4.53,15.42s36.08,20.4,44.24,12.23,39-2,39.87-8.34-20.59-44.71-20.59-44.71l-12.71-88,46.28-58.07,71.67,58.07-1.81,81.65L257.4,281.67s7.38,4.67,5.56,6.49,19.93,2.47,23.56,7.91,18.14,15.42,24.5,5.44a52.13,52.13,0,0,0,14.51,4.54c7.26.91,27.22-10,25.41-22.68s0-.91,5.44-3.63,15.43-18.15,11.8-29-16.33-20.86-29-15.42c0,0-8.16-4.54-9.07-19.05s1.81-9.08,2.72-16.34-3.63-29-6.35-31.75-10-50.81-10.89-55.35,4.54-47.18,0-49-50.81-8.17-60.79-2.73S226.64,59.26,226.64,59.26Z"/><path id="hoved" class="cls-3" d="M228.51,303.33c-4.54,0-32.13-16.56-40.83-21.78-9.07-5.44-18.15-20-20.87-36.29s-5.44-51.72-9.07-60.79-2.72-22.68-1.82-27.22,4.54-22.68,11.8-27.22,65.33-21.77,77.12-19,50.81,21.77,59,29.94,16.33,21.77,14.51,32.66-7.25,36.29-9.07,39.92-8.17,24.5-9.07,31.76c-.58,4.66-15,26.86-34.81,42.43A80.71,80.71,0,0,1,243,300.51a47.1,47.1,0,0,1-14.52,2.82"/><path id="pandehår" class="cls-4" d="M231.23,136.38s-17.24,7.26-29,6.35l4.53-2.72s-22.1,3.51-22.84,5.39-8.91,1-11.63,4.59-29.95-7.26-32.67-17.24c0,0,10-40.83,26.31-54.44S204,55.63,228.51,52.91s59,15.42,67.14,26.31,22.68,41.74,22.68,48.09-1.81,21.77-4.53,23.59c0,0-10,3.63-17.24,0s-27.22-6.35-27.22-10.89v-4.54s0,3.63-4.54,6.36-18.14,2.72-23.59,2.72-12.7-3.63-12.7-3.63Z"/><path id="hals" class="cls-3" d="M193.41,276.11s16.48,32.66-3.29,39-62.53,18.47-62.53,18.47,61.86,89.5,109.09,93.13,119-75.52,119-75.52-63.42-25.19-78.8-36.08-11-39-11-39Z"/><path id="solbriller" class="cls-5" d="M233.05,171.77h6.35s19.85-15.27,35.38-15.43c17.34-.17,35.39,2.72,38.11,7.26,0,0-11.8,45.37-39,47.18s-31.76-16.33-33.58-20.87c-1-2.52-.9-15.42-.9-15.42a22.07,22.07,0,0,0-6.35-.91,26.79,26.79,0,0,0-8.17,1.82s-.91,10.88-1.81,12.7-7.26,23.59-29,24.5S154.11,179,155,162.69a147.88,147.88,0,0,1,35.38-6.35c19.06-.9,35.39,13.61,35.39,15.43Z"/><path id="glas" d="M191.31,162.69c-9.07,0-23.59,0-25.41,6.36s1.65,22.1,3.63,25.4c2.73,4.54,10.89,11.8,20,13.61,15.12,3,20.86-5.44,26.31-10.89,2.31-2.31,5.44-14.52,5.44-19S214.28,162.69,191.31,162.69Z"/><path id="glas-2" data-name="glas" d="M273.88,161.79c9.07,0,27.21,0,29,6.35s-6.35,25.4-9.07,28.12-5.27,11.8-20.69,11.8-20.87-5.44-26.32-10.89c-2.31-2.31-5.44-14.52-5.44-19S250.9,161.79,273.88,161.79Z"/><path id="næse" class="cls-6" d="M230.32,222.58c-3.62,0-8.16-5.45-10.88-6.35s-10-.91-10,2.72,4.53,3.63,8.16,3.63,6.35,2.72,10,2.72,11.8-3.63,13.61-3.63,11.8.91,11.8-.91-3.63-5.44-8.17-5.44-8.3,3.67-10.89,4.53A6.3,6.3,0,0,0,230.32,222.58Z"/><path id="øre" class="cls-3" d="M159.55,193.54c-1.81-4.53-10-20-12.7-19S143.22,192.64,145,199s10,18.14,10,20.86-14.52,3.63-13.61,15.43,2.72,22.68,11.79,21.77,14.26-6.06,14.26-9.69,1.17-31.13,1.17-31.13Z"/><path id="strech" class="cls-7" d="M155.88,223.56c-2.86,0-10,9.08-10.88,12.71s-.56,16.65,6.7,16.65,9.31-1.95,11.13-6.49S161.33,223.56,155.88,223.56Z"/><path id="øre-2" data-name="øre" class="cls-3" d="M322,176.3c2.79.7,1.82,23.59-3.63,32.67s-7.25,11.79-6.35,13.61,10.89,10,10,18.14-5.44,19.06-12.7,18.15-11.79-11.8-12.7-17.24,8.16-46.27,8.16-46.27S318.33,175.4,322,176.3Z"/><path id="strech-2" data-name="strech" class="cls-7" d="M308.39,225.11c3.56-.71,10.2,10.28,10.2,13.9s-.12,14.86-5.56,15.77-10.22-6.63-11.13-13S303.86,226,308.39,225.11Z"/><path id="tænder" class="cls-8" d="M198.57,241.63c2.72,2.72,12.7,15.42,21.77,17.24s33.57,2.72,37.2-1.82,11.08-15.42,11.08-15.42l-36.48-1.81L209.46,238,197,239.39Z"/><path id="underløbe" class="cls-9" d="M192.22,238s10.88,21.78,17.24,24.5,17.24,3.63,20.86,3.63,17-1.21,22.44-3.94,15.76-16.76,15.76-20.39c0,0-14.83,15.76-34.3,14.83-20.92-1-20.23-2.3-24.76-5.93s-7.26-10-9.08-10.88S192.22,238,192.22,238Z"/><path id="overlæbe" class="cls-10" d="M230.32,243.45s17.24-1.82,20.87-1.82,16.55.91,16.55.91l2.51-.91s-2.73-2.72-9.08-3.63-17.24-5.44-21.77-4.54a33.51,33.51,0,0,0-9.08,3.63s-3.62-3.63-7.25-3.63a108.56,108.56,0,0,0-18.15,2.73c-2.72.9-12.7,1.81-12.7,1.81l7.19,2.11s20.93,1.52,23.66,1.52S225.79,243.45,230.32,243.45Z"/><path d="M233.29,361.4s-32.45-15.76-50.15-22.69c-32.5-12.72-29.69-16.23-34.22-15.32s-38.41,17.83-56.56,27.81-18.54,48.22-18.54,48.22l75.1,13.91,178.94,5.56,61.24-35.72,23.14-9.71S321.37,323.39,313,326.17c-9.18,3.06-63,24.11-79.74,35.23"/><path class="cls-6" d="M266.62,295.16c2.72,16.33,12.61,21.28,17.24,23.59,1.81.91-18.15,4.54-18.15,4.54s-7.26-17.24-9.07-22.68c0,0-15.58,4.18-20,2.72-5.45-1.82,13.61-6.35,18.14-9.08s8.17-4.53,10.89-6.35Z"/><path class="cls-11" d="M227.63,192c-.18,2.7-.36,5.41-.55,8.11a13.46,13.46,0,0,1-3.26,8.11c-.88,1.13.71,2.73,1.59,1.59,1.68-2.16,3.22-4.29,3.68-7,.59-3.51.55-7.22.79-10.77.09-1.45-2.16-1.44-2.25,0Z"/><path class="cls-12" d="M398.33,583H76.6C70.48,583,59,575.21,59,569.09L46,367.89a11.16,11.16,0,0,1,11.13-11.12H416.87A11.16,11.16,0,0,1,428,367.89L416,570C416,576.14,404.45,583,398.33,583Z"/><path class="cls-13" d="M73,384.24h1.45v10h4.81v1.22H73Z"/><path class="cls-13" d="M81.43,391.71a2.59,2.59,0,0,0,2.77,2.81,5.23,5.23,0,0,0,2.24-.42l.25,1a6.45,6.45,0,0,1-2.69.5,3.74,3.74,0,0,1-4-4.07c0-2.44,1.43-4.36,3.79-4.36,2.64,0,3.34,2.32,3.34,3.81,0,.3,0,.53,0,.68Zm4.31-1a2.1,2.1,0,0,0-2-2.38,2.42,2.42,0,0,0-2.25,2.38Z"/><path class="cls-13" d="M89,389.59c0-.83,0-1.51-.06-2.18h1.3l.08,1.33h0A3,3,0,0,1,93,387.22c1.12,0,2.85.67,2.85,3.44v4.83H94.38v-4.66c0-1.3-.48-2.39-1.87-2.39a2.09,2.09,0,0,0-2,1.51,2.27,2.27,0,0,0-.1.68v4.86H89Z"/><path class="cls-13" d="M105.55,391.38a4,4,0,0,1-4,4.29,3.84,3.84,0,0,1-3.88-4.16,4,4,0,0,1,4-4.29A3.83,3.83,0,0,1,105.55,391.38Zm-6.41.08c0,1.77,1,3.11,2.45,3.11s2.46-1.32,2.46-3.14c0-1.37-.69-3.1-2.42-3.1S99.14,389.93,99.14,391.46Z"/><path class="cls-13" d="M107.85,387.41l1.59,4.54c.26.73.48,1.4.65,2.07h0c.18-.67.41-1.34.68-2.07l1.57-4.54h1.54l-3.18,8.08h-1.4l-3.07-8.08Z"/><path class="cls-13" d="M122.46,391.38a4,4,0,0,1-4,4.29,3.84,3.84,0,0,1-3.87-4.16,4,4,0,0,1,4-4.29A3.84,3.84,0,0,1,122.46,391.38Zm-6.42.08c0,1.77,1,3.11,2.46,3.11s2.45-1.32,2.45-3.14c0-1.37-.68-3.1-2.42-3.1S116,389.93,116,391.46Z"/><polygon class="cls-8" points="368.87 518.49 393.13 513.72 376.24 504.84 392.7 494.78 365.54 489.47 374.93 474.74 353.11 476.77 351.84 460.37 336.79 468.47 328.13 454.79 317.58 469.1 297.06 454.12 295.16 472.7 273.65 466.77 282.47 482.78 262.89 483.07 275.14 492.89 254.62 499.85 280.45 509.68 266.62 524.08 291.13 524.7 287.13 540.55 302.54 536.09 306.26 548.73 322.81 535.94 340.46 553.1 345.68 537.54 367.36 547.78 363.53 530.53 380.62 533.21 368.87 518.49"/><polygon class="cls-14" points="360.89 515.72 380.78 511.81 366.93 504.54 380.43 496.28 358.16 491.93 365.86 479.85 347.97 481.52 346.93 468.07 334.59 474.71 327.49 463.49 318.84 475.23 302.01 462.95 300.46 478.18 282.83 473.32 290.05 486.44 274 486.68 284.04 494.74 267.22 500.44 288.4 508.5 277.06 520.3 297.15 520.81 293.88 533.81 306.51 530.15 309.56 540.51 323.13 530.03 337.6 544.1 341.88 531.34 359.66 539.74 356.51 525.59 370.52 527.79 360.89 515.72"/><g class="cls-15"><path d="M303.1,485.57c-2.3,5-3.44,7.41-5.72,12.18l-4.44-.36c-1.34-4.95-2-7.38-3.38-12.12l4.63.1c.62,2.64.94,4,1.56,6.68.11.4.21.79.29,1.18,1.38-3.06,2.07-4.61,3.46-7.74Z"/><path d="M314.1,495.91c-.13,1.27-.2,1.9-.33,3.17l-10.68-.87c.53-5,.8-7.57,1.33-12.61l10.74.23c-.12,1.23-.19,1.84-.32,3.06l-6.43-.23-.2,1.87,5.2.23-.31,2.92-5.19-.3-.22,2.11Z"/><path d="M328.59,492.32c-.33,3.16-.5,4.73-.83,7.89l-2.13-.18a7.58,7.58,0,0,0-.42-1.5,4.79,4.79,0,0,1-4.09,1.35,5.92,5.92,0,0,1-4.32-2.18,6.54,6.54,0,0,1-1.26-5,8.1,8.1,0,0,1,2.25-5,6.88,6.88,0,0,1,5.34-1.94,5.84,5.84,0,0,1,4,1.35,5.48,5.48,0,0,1,1.64,3.68l-4.29.23c0-1.45-.63-2.19-1.72-2.22-1.44,0-2.29,1.22-2.57,3.82a4.89,4.89,0,0,0,.36,3.16,2.21,2.21,0,0,0,3,.49,1.69,1.69,0,0,0,.7-1.24l-2.35-.14.3-2.91Z"/><path d="M337.89,501c-.2-1.19-.3-1.77-.5-2.95l-3.81-.26-1.15,2.76-3.54-.28c2.35-5.51,3.53-8.32,5.9-14l4.63.1c1.18,5.91,1.76,8.91,2.91,15Zm-3.24-6.31,2.3.13c-.28-1.72-.42-2.57-.7-4.27Z"/><path d="M355.78,502.47l-3.55-.28c-1.26-2.87-1.9-4.28-3.18-7.07a25.68,25.68,0,0,1-1.18-3.22,11,11,0,0,1,.08,2.51c-.31,2.95-.46,4.42-.77,7.37l-3.54-.29c.63-6,.95-9,1.58-15l4.14.09c1.1,2.26,1.65,3.41,2.74,5.73a21,21,0,0,1,1.19,3,23.27,23.27,0,0,1,.09-4.08c.19-1.84.29-2.76.48-4.59l3.57.08Z"/><path d="M291.94,514.8c-.19,1.75-.28,2.63-.46,4.38l-4.38-.82,1.25-11.81,6,.78a10.2,10.2,0,0,1,3.38.89,4.26,4.26,0,0,1,1.72,1.64,3.59,3.59,0,0,1,.46,2.22,3.28,3.28,0,0,1-1.7,2.66,5.73,5.73,0,0,1-3.86.47Zm.21-2.6,1.44.22q1.92.3,2-.93c.08-.76-.47-1.23-1.64-1.4l-1.6-.22Z"/><path d="M306.7,522.26a7.45,7.45,0,0,1-4.64-2.69,6.69,6.69,0,0,1-1.38-5.05,6.23,6.23,0,0,1,2.29-4.41,6.57,6.57,0,0,1,5.17-1.22,6.54,6.54,0,0,1,6,7.61,6.54,6.54,0,0,1-2.4,4.77A6.06,6.06,0,0,1,306.7,522.26Zm.29-3a1.54,1.54,0,0,0,1.66-.61,7.38,7.38,0,0,0,.82-3.16q.36-3.42-1.61-3.7-2.13-.3-2.54,3.53Q304.95,519,307,519.31Z"/><path d="M334,512.41c-2.1,5.61-3.15,8.37-5.24,13.8l-3.62-.68c-.46-3.25-.69-4.87-1.16-8.07-1.07,3-1.6,4.44-2.66,7.35l-3.78-.71c-.92-5.73-1.38-8.55-2.32-14.1l4.08.52c.46,3.24.69,4.88,1.15,8.17,1.1-3,1.65-4.57,2.76-7.66l3.4.43c.5,3.36.74,5.05,1.24,8.46,1.13-3.15,1.7-4.73,2.84-7.93Z"/><path d="M344.74,525.54c-.15,1.45-.23,2.18-.38,3.63l-10.56-2c.61-5.84.92-8.76,1.53-14.59L346,514c-.15,1.4-.22,2.1-.37,3.51l-6.37-.91c-.09.86-.13,1.29-.22,2.15l5.14.78-.35,3.36-5.14-.84-.25,2.42Z"/><path d="M358.56,531.85l-4.77-.9c-.57-2.57-.86-3.84-1.43-6.37l-1.36-.23c-.25,2.38-.37,3.57-.62,6l-4.31-.82c.64-6.12,1-9.19,1.61-15.31l7.38,1a5.42,5.42,0,0,1,3.65,1.78,4.67,4.67,0,0,1,1,3.61,5.57,5.57,0,0,1-.75,2.37,4,4,0,0,1-2.2,1.55C357.48,527.38,357.84,528.86,358.56,531.85ZM351.35,521l1.85.28a2,2,0,0,0,1.35-.18,1.24,1.24,0,0,0,.61-1c.11-1-.39-1.6-1.5-1.75l-2-.29C351.54,519.23,351.48,519.83,351.35,521Z"/></g><path class="cls-16" d="M301.26,483.76c-2.3,4.94-3.44,7.36-5.72,12.1l-4.44-.32c-1.35-4.89-2-7.29-3.39-12l4.62.06c.64,2.61.95,3.92,1.58,6.59.11.39.21.78.28,1.16,1.38-3,2.07-4.57,3.46-7.68Z"/><path class="cls-16" d="M312.28,493.91l-.33,3.14-10.69-.78c.52-5,.79-7.49,1.31-12.49l10.76.14-.32,3-6.44-.17-.2,1.85,5.21.18c-.12,1.16-.18,1.74-.31,2.9l-5.19-.25c-.09.83-.13,1.25-.22,2.08Z"/><path class="cls-16" d="M326.77,490.25c-.33,3.12-.49,4.69-.82,7.81l-2.13-.15a9.11,9.11,0,0,0-.42-1.49,4.83,4.83,0,0,1-4.09,1.37,5.91,5.91,0,0,1-4.33-2.13,6.35,6.35,0,0,1-1.26-4.94,8,8,0,0,1,2.24-4.93,7,7,0,0,1,5.34-2,5.86,5.86,0,0,1,4,1.31,5.33,5.33,0,0,1,1.64,3.63l-4.29.27c-.06-1.44-.63-2.16-1.73-2.19-1.43,0-2.29,1.23-2.56,3.81-.16,1.55,0,2.59.37,3.12a2.07,2.07,0,0,0,1.58.84,2.11,2.11,0,0,0,1.4-.38,1.64,1.64,0,0,0,.7-1.23l-2.35-.12.3-2.89Z"/><path class="cls-16" d="M336.09,498.8c-.2-1.17-.3-1.76-.51-2.92l-3.81-.23-1.15,2.75-3.54-.26c2.35-5.47,3.52-8.27,5.89-13.95l4.64.06c1.18,5.84,1.77,8.82,2.93,14.87Zm-3.25-6.23,2.31.11c-.29-1.7-.43-2.54-.72-4.23C333.8,490.11,333.48,490.93,332.84,492.57Z"/><path class="cls-16" d="M354,500.09l-3.55-.25c-1.27-2.84-1.9-4.23-3.18-7a25.59,25.59,0,0,1-1.19-3.19,10.28,10.28,0,0,1,.08,2.49c-.3,2.93-.46,4.39-.76,7.31l-3.54-.26c.62-5.95.94-8.93,1.56-14.88l4.15.06c1.1,2.23,1.65,3.36,2.74,5.65a19.72,19.72,0,0,1,1.19,3,25.06,25.06,0,0,1,.09-4.05c.2-1.82.29-2.73.48-4.55l3.58.05Z"/><path class="cls-17" d="M290.12,512.77l-.46,4.34-4.38-.79c.5-4.67.74-7,1.23-11.69l6,.73a10,10,0,0,1,3.39.86,4.19,4.19,0,0,1,1.72,1.61,3.57,3.57,0,0,1,.47,2.19,3.28,3.28,0,0,1-1.71,2.64,5.78,5.78,0,0,1-3.86.49Zm.2-2.58,1.45.21q1.91.28,2-.93c.08-.76-.47-1.22-1.65-1.37l-1.59-.22Z"/><path class="cls-17" d="M304.89,520.06a7.46,7.46,0,0,1-4.64-2.64,6.46,6.46,0,0,1-1.38-5,6.16,6.16,0,0,1,2.28-4.39,6.87,6.87,0,0,1,11.15,6.25,6.53,6.53,0,0,1-2.4,4.74A6.16,6.16,0,0,1,304.89,520.06Zm.29-2.93a1.55,1.55,0,0,0,1.66-.61,7,7,0,0,0,.82-3.14c.24-2.26-.3-3.47-1.62-3.65s-2.26,1-2.53,3.51Q303.14,516.8,305.18,517.13Z"/><path class="cls-17" d="M332.16,510.11c-2.1,5.58-3.15,8.32-5.24,13.71l-3.62-.65c-.46-3.22-.7-4.81-1.16-8-1.07,2.94-1.6,4.4-2.66,7.29l-3.78-.68c-.93-5.67-1.39-8.45-2.34-13.94l4.09.49c.46,3.2.69,4.82,1.15,8.08,1.1-3,1.65-4.54,2.75-7.62l3.41.41c.5,3.32.75,5,1.25,8.37,1.13-3.12,1.69-4.7,2.83-7.88Z"/><path class="cls-17" d="M343,523c-.15,1.45-.23,2.17-.38,3.61L332,524.74c.61-5.78.91-8.68,1.52-14.46l10.64,1.27c-.15,1.4-.22,2.09-.37,3.49l-6.37-.86-.22,2.14,5.14.73-.35,3.34-5.14-.8-.25,2.4Z"/><path class="cls-17" d="M356.81,529.21l-4.79-.86c-.56-2.54-.85-3.81-1.42-6.31l-1.37-.22c-.24,2.37-.37,3.55-.62,5.91L344.3,527l1.6-15.2,7.38.89a5.35,5.35,0,0,1,3.66,1.74,4.58,4.58,0,0,1,1,3.57,5.61,5.61,0,0,1-.75,2.36,4.07,4.07,0,0,1-2.2,1.55C355.72,524.78,356.08,526.25,356.81,529.21Zm-7.23-10.69,1.85.27a2.14,2.14,0,0,0,1.35-.19,1.31,1.31,0,0,0,.62-1c.1-1-.4-1.58-1.51-1.73l-2-.27C349.77,516.75,349.71,517.34,349.58,518.52Z"/><path class="cls-6" d="M157.26,200.07s-4.63-17.61-7.42-17.61-3.7,10.2-2.78,13,1.86-5.57,2.78-5.57,6.49,8.35,7.42,16.69v-8.34"/><path class="cls-6" d="M312.36,200.59s6.12-20.79,7.88-20.52.47,12.64-.62,15.91-.15-6.88-.74-7-5.6,9.44-7.71,19.41l1.52-10.06"/></g></g></svg>
