<svg id="Layer_1" data-name="Layer 1" xmlns="http://www.w3.org/2000/svg" width="35" height="25" viewBox="0 0 35 25"><defs><style>.cls-1{fill:#5f9595;stroke:#5f9595;stroke-miterlimit:10;stroke-width:0.5px;}</style></defs><title>nej</title><path class="cls-1" d="M1.28,8v-1a1.24,1.24,0,0,1,.58.18,4.66,4.66,0,0,1,.62.4A4.68,4.68,0,0,1,3,8l.41.48L9.79,17q.06-.36.12-1.35c0-.66.05-1.41,0-2.25s0-1.71-.07-2.63S9.8,9,9.73,8.24s-.13-1.47-.21-2a1.88,1.88,0,0,0-.31-1,1.46,1.46,0,0,1,.12-.6.44.44,0,0,1,.46-.28.63.63,0,0,1,.56.38,3.33,3.33,0,0,1,.32.87c.07.33.12.64.16,1s.05.51.05.61c0,.26,0,.65,0,1.17s0,1.12,0,1.78,0,1.38,0,2.12.05,1.45.07,2.11,0,1.25,0,1.79,0,.93,0,1.19a1.27,1.27,0,0,0,.1.52c.06.16.13.31.19.47s.13.32.18.47a1.43,1.43,0,0,1,.09.5.69.69,0,0,1-.31.63,1.23,1.23,0,0,1-.7.21,1,1,0,0,1-.37-.06.46.46,0,0,1-.26-.19A.64.64,0,0,1,10,19.5a1.77,1.77,0,0,1,.08-.55c-.16-.19-.41-.49-.74-.92l-1.1-1.42c-.41-.52-.84-1.07-1.3-1.64L5.6,13.33,4.48,11.92,3.75,11a1.55,1.55,0,0,0-.15-.18l-.52-.51a1,1,0,0,0-.17-.15,16.06,16.06,0,0,0,0,2.5c.08.84.17,1.67.29,2.5s.25,1.66.37,2.49a17.14,17.14,0,0,1,.18,2.48,2.8,2.8,0,0,1-.06.61c0,.18-.22.32-.52.42a.91.91,0,0,1-.58-.57,1.08,1.08,0,0,1,0-.81Z"/><path class="cls-1" d="M14.06,20.6c0-1.16,0-2.3,0-3.42s0-2.22,0-3.33-.08-2.21-.17-3.32-.21-2.23-.39-3.38A.41.41,0,0,0,13.45,7c0-.09-.07-.18-.1-.27s0-.18-.08-.25a.5.5,0,0,1,0-.15.68.68,0,0,1,.08-.26,1.6,1.6,0,0,1,.19-.29,1.13,1.13,0,0,1,.27-.22.48.48,0,0,1,.3-.07.75.75,0,0,1,.42.33,2.1,2.1,0,0,1,.25.57,3.29,3.29,0,0,1,.12.61c0,.2,0,.34,0,.43.43-.23.91-.48,1.45-.74s1.09-.51,1.65-.73a14.07,14.07,0,0,1,1.7-.56,6.3,6.3,0,0,1,1.6-.23.78.78,0,0,1-.07.35.61.61,0,0,1-.29.25l-6,3v.84c0,.16,0,.43,0,.82s.05.8.08,1.23.05.86.07,1.25,0,.66.06.8l4.42-2.47.11-.12a1,1,0,0,1,.28-.24.77.77,0,0,1,.35-.12c.13,0,.24.07.36.23a1.07,1.07,0,0,1-.39.75,6.27,6.27,0,0,1-1,.73c-.38.24-.8.48-1.25.71l-1.26.66a6.26,6.26,0,0,0-1,.65.86.86,0,0,0-.38.6v4.15a1.1,1.1,0,0,0,.78-.1,10,10,0,0,0,1.13-.57,14.26,14.26,0,0,0,1.29-.85c.44-.32.88-.63,1.3-.91s.82-.55,1.18-.78a2.89,2.89,0,0,1,.91-.4.93.93,0,0,1,.39.08.36.36,0,0,1,.17.35.45.45,0,0,1-.3.4c-.5.31-1.08.68-1.73,1.13l-2,1.36c-.67.45-1.33.86-2,1.22a6.62,6.62,0,0,1-1.69.72,1.82,1.82,0,0,1-.45,0A1,1,0,0,1,14.06,20.6Z"/><path class="cls-1" d="M23.24,18.13a.28.28,0,0,1,.1-.17c.08-.07.13-.11.18-.11.18.42.39.85.62,1.31A7.22,7.22,0,0,0,25,20.43a4.16,4.16,0,0,0,1.06.95,2.54,2.54,0,0,0,1.37.38,2,2,0,0,0,1.21-.37,1.81,1.81,0,0,0,.7-1.07,21.52,21.52,0,0,0,0-3.5c-.1-1.16-.23-2.32-.38-3.47l-.48-3.46a29,29,0,0,1-.25-3.49c0-.07,0-.16,0-.27a.8.8,0,0,1,0-.31.71.71,0,0,1,.13-.26.35.35,0,0,1,.3-.11c.16,0,.29.1.41.3.35,2.1.68,4.22,1,6.38a48.45,48.45,0,0,1,.43,6.43,9.88,9.88,0,0,1-.12,1.59,3.26,3.26,0,0,1-.46,1.26,2.37,2.37,0,0,1-.94.83,3.34,3.34,0,0,1-1.55.31,3.44,3.44,0,0,1-1.56-.37,4.56,4.56,0,0,1-1.31-1,4.94,4.94,0,0,1-.9-1.43A4.18,4.18,0,0,1,23.24,18.13Z"/><path class="cls-1" d="M31.49,10.65c0-1.32,0-2.62.08-3.92s.13-2.63.22-4a.43.43,0,0,1,.15-.22.37.37,0,0,1,.23,0c.15,0,.25,0,.3.11a.66.66,0,0,1,.12.27,1.22,1.22,0,0,1,0,.34c0,.12,0,.22,0,.31v6.57a4.78,4.78,0,0,0,.07.82l.13.86c.05.28.09.55.12.8a1.61,1.61,0,0,1-.06.64.67.67,0,0,1-.25.4.64.64,0,0,1-.44.18.54.54,0,0,1-.53-.39,3.32,3.32,0,0,1-.19-.9,8.85,8.85,0,0,1,0-1C31.48,11.08,31.49,10.82,31.49,10.65Zm1.35,10V20.3a2,2,0,0,1,0-.23.46.46,0,0,1,.09-.2.21.21,0,0,1,.19-.09q.44,0,.51.21a1.72,1.72,0,0,1,0,1c0,.13-.22.2-.51.2a.21.21,0,0,1-.19-.09.41.41,0,0,1-.09-.2A2,2,0,0,1,32.84,20.64Z"/></svg>
