<svg xmlns="http://www.w3.org/2000/svg" width="319.92" height="88.67" viewBox="0 0 319.92 88.67"><defs><style>.cls-1{fill:#fff;}</style></defs><title>ommigtxt</title><g id="assets"><path class="cls-1" d="M29.93,14.21A47.81,47.81,0,0,0,25,19.75,35.82,35.82,0,0,0,21.73,26a26.27,26.27,0,0,0-1.91,6.2,31.36,31.36,0,0,0-.73,7.42,39.69,39.69,0,0,0,1.22,10.67,13.43,13.43,0,0,0,3.62,6.44,8.25,8.25,0,0,0,5.76,2.18,9.75,9.75,0,0,0,5.59-2,21.66,21.66,0,0,0,5.17-5.24,29,29,0,0,0,3.74-7.26,23.16,23.16,0,0,0,1.42-7.71q0-6.69-4.59-14c-1.14-2-1.71-3.29-1.71-4a5.59,5.59,0,0,1,2.19-4,29.22,29.22,0,0,1,5.72-4.25,11.27,11.27,0,0,1,5.07-1.86,5.68,5.68,0,0,1,2.28.52A4.76,4.76,0,0,1,56.4,10.4Q58,12,59,16.33a39.26,39.26,0,0,1,1,9.16A48.17,48.17,0,0,1,55.3,46.75,39.33,39.33,0,0,1,42.5,62.18,29.73,29.73,0,0,1,25,67.87a30.41,30.41,0,0,1-10.74-2A23.66,23.66,0,0,1,5.62,60.5Q0,54.88,0,45.8A34.08,34.08,0,0,1,2.05,34.62a54.41,54.41,0,0,1,5.64-11.5A58.87,58.87,0,0,1,16,12.89a43.05,43.05,0,0,1,9.69-7.32,48,48,0,0,1,9.77-3.91A34.4,34.4,0,0,1,44.63.2Q50.2.2,50.2,1.9A4.17,4.17,0,0,1,49,4a18.28,18.28,0,0,1-3.73,2.84,29.85,29.85,0,0,1-5.2,1.85,32,32,0,0,0-5.67,2.13A25.46,25.46,0,0,0,29.93,14.21Z"/><path class="cls-1" d="M116.89,49.61,103.56,63.28a23.65,23.65,0,0,1-4.17,3.54,6.61,6.61,0,0,1-3.49,1,6.51,6.51,0,0,1-5-2.22,7.77,7.77,0,0,1-2-5.44,17.43,17.43,0,0,1,.61-4.37,70.23,70.23,0,0,1,2.41-7.06q.35-1,.66-1.68c.21-.47.39-.87.52-1.2l-.2-.19q-4.74,5-9.28,10.49-3.81,4.55-6,6.79a23.88,23.88,0,0,1-4.05,3.37,6.3,6.3,0,0,1-3.23,1.12,6,6,0,0,1-5-2.49,11.16,11.16,0,0,1-1.85-6.78q0-5.43,4.69-17.53,4.2-10.74,6.49-14.41,3.36-5.07,7.71-5.08a7.31,7.31,0,0,1,4.37,1.25,3.83,3.83,0,0,1,1.73,3.24q0,3.66-2.77,11.18c-.72,1.85-1.44,4-2.19,6.29l.19.2q1.82-2,5.81-6.88A103.71,103.71,0,0,1,99.81,24.8q4.53-4.2,8.3-4.19a5.22,5.22,0,0,1,3.17,1.12,7.94,7.94,0,0,1,2.42,3,9,9,0,0,1,.91,3.93q0,2.1-3,10.75c-.42,1.21-.75,2.15-1,2.83s-.44,1.28-.64,1.76l.25.2L111.45,43c.35-.36.75-.74,1.19-1.15l1.24-1.15q1.32-1.27,6.63-6.69A39.05,39.05,0,0,1,126,28.64a6.64,6.64,0,0,1,3.85-1.44,5.47,5.47,0,0,1,4.62,2.07,10.06,10.06,0,0,1,1.58,6.13,61.29,61.29,0,0,1-.78,7.86c-.45,4-.77,7.2-1,9.5s-.27,3.9-.27,4.81q0,1,.12,2.61c.09,1.06.22,2.19.42,3.39s.45,2.54.78,4q.58,2.69.78,4.2a4.72,4.72,0,0,1-2.56,3A9.5,9.5,0,0,1,128.91,76q-4,0-7.52-3.62A14.2,14.2,0,0,1,119,69a13.32,13.32,0,0,1-1.22-4,39.91,39.91,0,0,1-.37-6.12q0-2.49.59-10.31l-.2-.19Z"/><path class="cls-1" d="M220.56,49.61,207.23,63.28a24,24,0,0,1-4.18,3.54,6.61,6.61,0,0,1-3.49,1,6.49,6.49,0,0,1-5-2.22,7.73,7.73,0,0,1-2-5.44,17.43,17.43,0,0,1,.61-4.37,70.9,70.9,0,0,1,2.42-7.06,16.43,16.43,0,0,1,.66-1.68q.32-.7.51-1.2l-.2-.19q-4.72,5-9.27,10.49-3.81,4.55-6.06,6.79a23.88,23.88,0,0,1-4,3.37,6.3,6.3,0,0,1-3.22,1.12,5.93,5.93,0,0,1-5-2.49A11.09,11.09,0,0,1,167,58.11q0-5.43,4.69-17.53,4.2-10.74,6.49-14.41,3.38-5.07,7.71-5.08a7.31,7.31,0,0,1,4.37,1.25A3.83,3.83,0,0,1,192,25.58q0,3.66-2.77,11.18-1.06,2.77-2.19,6.29l.2.2q1.8-2,5.8-6.88a103.71,103.71,0,0,1,10.4-11.57q4.54-4.2,8.3-4.19A5.25,5.25,0,0,1,215,21.73a7.91,7.91,0,0,1,2.41,3,8.91,8.91,0,0,1,.91,3.93q0,2.1-3,10.75c-.42,1.21-.75,2.15-1,2.83s-.44,1.28-.63,1.76l.24.2L215.11,43c.36-.36.75-.74,1.19-1.15l1.25-1.15q1.3-1.27,6.63-6.69a39.11,39.11,0,0,1,5.51-5.35,6.64,6.64,0,0,1,3.85-1.44,5.47,5.47,0,0,1,4.62,2.07q1.59,2.09,1.59,6.13a59.94,59.94,0,0,1-.79,7.86c-.45,4-.77,7.2-1,9.5s-.27,3.9-.27,4.81c0,.68,0,1.55.13,2.61s.22,2.19.41,3.39.46,2.54.78,4q.58,2.69.78,4.2a4.72,4.72,0,0,1-2.56,3A9.5,9.5,0,0,1,232.57,76q-4,0-7.52-3.62A14.5,14.5,0,0,1,222.63,69a13.62,13.62,0,0,1-1.22-4,41.23,41.23,0,0,1-.37-6.12q0-2.49.59-10.31l-.19-.19Z"/><path class="cls-1" d="M251.55,67.77a6,6,0,0,1-4-2A11.74,11.74,0,0,1,245,61.55a19.22,19.22,0,0,1-.75-5.89,64.75,64.75,0,0,1,3-18.18q3-10.14,6.81-14.68a5.06,5.06,0,0,1,4.2-1.9,5.25,5.25,0,0,1,4.56,2.59,11.92,11.92,0,0,1,1.74,6.78,70.58,70.58,0,0,1-1.79,14.53,135.38,135.38,0,0,1-5,17.31c-.85,2.41-1.89,4-3.12,4.88a5.59,5.59,0,0,1-3,.78Zm5.87-49.07q-4.59-.15-4.59-5.52A18,18,0,0,1,254.17,7a14.94,14.94,0,0,1,3.06-5.25A5.47,5.47,0,0,1,259,.39,5.87,5.87,0,0,1,261.33,0a4.77,4.77,0,0,1,3.59,1.2,5.65,5.65,0,0,1,1.14,4,18,18,0,0,1-1.19,6.56,13.73,13.73,0,0,1-3.2,5,5.93,5.93,0,0,1-4.1,1.93Z"/><path class="cls-1" d="M302,53.91l-1.32,1a3.71,3.71,0,0,1-.46.39l-.8.64a116.45,116.45,0,0,1-13.26,9.28q-4.82,2.69-8.38,2.68A7.91,7.91,0,0,1,271.36,65,11.61,11.61,0,0,1,269,57.28a26.56,26.56,0,0,1,3.39-12.43,46.61,46.61,0,0,1,9-11.79,47.56,47.56,0,0,1,12.21-8.62,29.06,29.06,0,0,1,12.84-3.25q6.11,0,9.3,2.1a7,7,0,0,1,3.2,6.3q0,3.51-2.79,8.69A4,4,0,0,1,319,39.53a5.26,5.26,0,0,1,.93,3.44,51,51,0,0,1-1.56,10.62,89.43,89.43,0,0,1-3.81,12.57,37.3,37.3,0,0,1-7.81,12.65,34.94,34.94,0,0,1-9.57,7q-5.71,2.9-9.82,2.9a8.34,8.34,0,0,1-6.1-2.73,8.6,8.6,0,0,1-2.69-6.15A11.13,11.13,0,0,1,279.74,75a14.15,14.15,0,0,1,3-4.22A39.07,39.07,0,0,1,294,63.48a5.22,5.22,0,0,1,2.09-.69.72.72,0,0,1,.54.25.75.75,0,0,1,.25.53,3.52,3.52,0,0,1-.59,1.32,28.08,28.08,0,0,0-2.59,6.37A24.69,24.69,0,0,0,292.53,78c0,2.21.34,3.32,1,3.32q.54,0,1.35-1.2a16.06,16.06,0,0,0,1.44-2.71,82.45,82.45,0,0,0,5.31-19.53C301.75,57,301.85,55.66,302,53.91Zm2.49-10.4v.19l-.19-.19a2.78,2.78,0,0,1-.78.09,21.74,21.74,0,0,1-2.35.1q-2.49,0-2.49-.93a1.91,1.91,0,0,1,.64-1.17,18.72,18.72,0,0,0,3.2-5.52,20.19,20.19,0,0,0,1.49-6.2,7.5,7.5,0,0,1,.09-1.22c0-.13.06-.24.08-.34s0-.18,0-.24q0-.69-.93-.69-1.91,0-5.86,4.1a37.43,37.43,0,0,0-4.68,6.25A35.83,35.83,0,0,0,289.26,45,20.35,20.35,0,0,0,288,51.46c0,1.89.47,2.84,1.41,2.84s3.21-1.53,6.89-4.59Q298.83,47.55,304.44,43.51Z"/></g></svg>
