<svg xmlns="http://www.w3.org/2000/svg" width="580" height="445" viewBox="0 0 580 445"><defs><style>.cls-1,.cls-3{fill:none;stroke-miterlimit:10;}.cls-1{stroke:#fff;stroke-linecap:round;stroke-width:9px;}.cls-2{fill:#5f9595;}.cls-3{stroke:gray;stroke-width:7px;}.cls-4{fill:#999;}.cls-5{fill:#f2f2f2;}.cls-6{fill:#aab8bb;}.cls-7{fill:#ffb6a3;}.cls-8{fill:#fff;}.cls-9{fill:#f5d1c3;}.cls-10{fill:#96111b;}.cls-11{fill:#c69c6d;}.cls-12{fill:#ff7bac;opacity:0.4;}.cls-13{fill:#d8b212;}.cls-14{fill:#245570;}.cls-15{fill:#193947;}.cls-16{fill:#a7a9aa;}.cls-17{fill:#bfc2c4;}.cls-18{fill:#303030;}.cls-19{fill:#3f3f3f;}</style></defs><title>portofoliofigur</title><g id="assets"><polyline class="cls-1" points="508 266.02 290.5 427.96 290.5 213.47"/><polyline class="cls-1" points="68 283.96 290 434.96 399 238.97"/><line class="cls-1" x1="168" y1="233.96" x2="290" y2="427.96"/><polygon class="cls-2" points="290.53 443.43 578.95 344.25 573.42 328.17 290 425.64 6.58 328.17 1.05 344.25 289.47 443.43 289.58 443.76 290 443.61 290.42 443.76 290.53 443.43"/><line class="cls-3" x1="476.03" y1="270.46" x2="470.82" y2="230.46"/><line class="cls-3" x1="499.22" y1="251.61" x2="458.56" y2="236.32"/><path class="cls-4" d="M480.16,183.44l-.89,11.69L477,192.79c-4.14-4.3-10.72-4.67-14.69-.85l-34.86,33.63c-4,3.83-3.84,10.41.31,14.71l20.4,21.16c4.14,4.29,10.72,4.67,14.69.84l34.86-33.63c4-3.83,3.84-10.41-.31-14.7l-2.06-2.14,11.51-.67c4.71-4.54,5.17-11.7,1-16L496.17,183C492,178.71,484.86,178.91,480.16,183.44Z"/><path class="cls-5" d="M95.46,144l-5.89,8.81c2.87,3.37,4.33,5,7.29,8.28l5.64-8.48c.77.92,1.16,1.37,1.94,2.28l-13.33,20L89,172.85l6.33-9.5c-3-3.22-4.46-4.86-7.36-8.18-2.64,4-4,5.92-6.59,9.87-.81-.85-1.21-1.27-2-2.13,5.7-8.51,8.54-12.77,14.23-21.28Z"/><path class="cls-5" d="M109.25,164.08c-1.86-2-2.79-3.06-4.63-5.13l1.45-2.19c4.43,5.11,6.7,7.6,11.31,12.45l-1.35,2c-1.92-2-2.87-3-4.76-5l-11.28,17c-.87-.78-1.3-1.18-2.15-2Z"/><path class="cls-5" d="M126.35,193.81c1.43-2.48,3.15-5.46,4.57-7.57l-.07-.06c-1.87,1.48-4,3-6.37,4.65-3.39,2.33-5.1,3.51-8.56,5.94l-1.68-1.37c1.1-4.29,1.68-6.46,2.86-10.86.89-3.25,1.78-6.22,2.76-8.82l0-.05c-1.54,2.22-3.67,5.16-5.62,7.75-2.23,3-3.36,4.45-5.6,7.43l-2.09-1.78,13.29-17.35,2.6,2.65c-1.22,4.59-1.81,6.85-3,11.31-.75,2.82-1.45,5.26-2.22,7.45l.07.06a65.94,65.94,0,0,1,5.66-4.38c3.4-2.33,5.09-3.47,8.42-5.7,1.07,1,1.61,1.51,2.69,2.51-4,7.12-6,10.66-9.93,17.7-.89-.67-1.34-1-2.22-1.69Z"/><path class="cls-5" d="M138.35,189.51l2.15,1.9-9.41,14.45c3,2.24,4.57,3.34,7.65,5.49-.43.67-.65,1-1.08,1.68-4-2.76-6.06-4.18-10-7.09C131.93,199.37,134.07,196.08,138.35,189.51Z"/><path class="cls-5" d="M78.76,217.3A13.72,13.72,0,0,1,73.23,215c-5.23-3.47-6.65-9.85-2.21-16.51,4.23-6.36,10.66-7.54,16-3.2a13,13,0,0,1,3.58,4.14L88.75,201a11.28,11.28,0,0,0-3-3.56c-4.09-3.24-8.75-2.47-12.26,2.8-3.27,4.92-2.83,9.93,1.65,13A11.06,11.06,0,0,0,79.55,215C79.23,215.93,79.07,216.39,78.76,217.3Z"/><path class="cls-5" d="M83,216.67a9.73,9.73,0,0,0,3.55,4c2.51,1.55,4.81,1.16,6-.66s.75-3.33-1.13-5.89c-2.25-3.07-3.09-6-1.33-8.63,1.94-2.94,5.64-3.35,9.12-.79a11,11,0,0,1,3.39,3.76l-1.89,1.43a9.58,9.58,0,0,0-2.87-3.3c-2.46-1.77-4.38-.95-5.22.32-1.15,1.74-.62,3.4,1.28,6.08,2.33,3.3,3,5.75,1.28,8.38s-5.61,3.89-10.1,1.16a10.79,10.79,0,0,1-4-4.19Z"/><path class="cls-5" d="M96.87,225.21a9.89,9.89,0,0,0,3.75,3.68c2.57,1.43,4.86,1.06,6-.64s.58-3.1-1.42-5.47c-2.39-2.85-3.36-5.57-1.73-8.05,1.8-2.74,5.48-3.13,9.06-.75a11.52,11.52,0,0,1,3.57,3.5l-1.82,1.34a9.93,9.93,0,0,0-3-3.07c-2.54-1.65-4.42-.88-5.2.31-1.06,1.62-.46,3.16,1.57,5.66,2.48,3.06,3.28,5.34,1.68,7.78s-5.41,3.64-10,1.13A11.07,11.07,0,0,1,95,226.75Z"/><path class="cls-5" d="M22.74,202.86c.9.7,1.35,1,2.26,1.74L14.68,220c-4.1,6.09-7.82,6.43-11,4.35a7.17,7.17,0,0,1-2.17-2.24l2-2.25a5.47,5.47,0,0,0,1.68,1.79c2.13,1.42,4.21,1,7.26-3.49Z"/><path class="cls-5" d="M21.19,234.48l1.13-2.1-.09,0a6.12,6.12,0,0,1-5.8-.11c-2.79-1.65-2.63-4.84-1-7.19,2.65-3.94,6.91-4.15,12.11-.83l.21-.32c.88-1.31,2.14-3.84-.57-5.65a6.88,6.88,0,0,0-4.24-1.13c.3-.92.45-1.39.76-2.32a8.56,8.56,0,0,1,5.27,1.54c4,2.75,2.86,6.63.76,9.76l-3.91,5.84a30,30,0,0,0-2.27,3.87Zm5-8.26c-2.65-1.73-6.05-3.11-8.15,0-1.28,1.9-.81,3.45.46,4.22a4.39,4.39,0,0,0,5.1-.67,4.92,4.92,0,0,0,.76-.83Z"/><path class="cls-5" d="M38.39,223c-1.24,4.11-1.84,6.14-3,10.17-.46,1.64-.91,3.1-1.45,4.5l.09,0c1.15-1.07,2.39-2.09,3.76-3.2l8.3-6.83,2.63,1.55c-6.09,4.6-9.17,7-15.43,11.79l-2.48-1.3c1.88-7.21,2.88-10.89,5-18.4Z"/><path class="cls-5" d="M49.44,249c.39-.74.58-1.12,1-1.87l-.09,0a7.08,7.08,0,0,1-5.9,0c-3-1.41-3.09-4.24-1.68-6.35,2.35-3.53,6.65-3.77,12.2-.91l.19-.29c.77-1.16,1.83-3.41-1.06-5a8.3,8.3,0,0,0-4.39-.94l.57-2.07a10.24,10.24,0,0,1,5.47,1.3c4.31,2.39,3.46,5.83,1.61,8.62l-3.46,5.21a22.81,22.81,0,0,0-2,3.44Zm4.37-7.36c-2.84-1.49-6.4-2.67-8.26.14-1.13,1.7-.53,3.06.83,3.72a4.86,4.86,0,0,0,5.12-.68,3.68,3.68,0,0,0,.69-.74Z"/><path class="cls-5" d="M57.74,248.76a8.88,8.88,0,0,0,4,3.35c2.77,1.18,5.25.56,6.47-1.29s.65-3.22-1.48-5.41c-2.57-2.64-3.6-5.28-1.82-8,2-3,6-3.78,9.83-1.76a10.22,10.22,0,0,1,3.84,3.15l-2,1.57a8.69,8.69,0,0,0-3.26-2.78c-2.73-1.4-4.78-.41-5.63.88-1.17,1.76-.52,3.26,1.65,5.57,2.66,2.84,3.5,5.08,1.75,7.73s-5.89,4.29-10.87,2.22a10.12,10.12,0,0,1-4.56-3.49Z"/><path class="cls-5" d="M83.15,261.78a14.44,14.44,0,0,1-5-.86c-4.71-1.67-6-5.47-3.42-9.4s7.59-5.37,12.49-3.28a10.48,10.48,0,0,1,3.38,2.23l-1.75,1.46a7,7,0,0,0-2.81-1.9,6.7,6.7,0,0,0-8.45,2.54c-1.93,2.93-.83,5.62,2.26,6.74a11,11,0,0,0,3.87.64Z"/><path class="cls-5" d="M91.59,255.12c.92-1.41,1.68-2.64,2.31-3.79l2.43,1-1.43,2.36.13,0a6.29,6.29,0,0,1,5.92-.95,3.74,3.74,0,0,1,.75.37l-1.29,2A5.25,5.25,0,0,0,94,257a6.49,6.49,0,0,0-.78,1l-4.11,6.3-2.85-.93Z"/><path class="cls-5" d="M109.68,253.38a2.14,2.14,0,0,1-2.59.59c-1-.37-1.32-1.2-.86-1.91a2.14,2.14,0,0,1,2.57-.62C109.84,251.85,110.12,252.66,109.68,253.38Zm-12.57,13.4,7.39-11.38,2.82,1L100,267.64Z"/><path class="cls-5" d="M109.7,261.63c.9-1.41,1.57-2.56,2.18-3.62l2.55.86-1.06,1.9.06,0a9.37,9.37,0,0,1,6.95-.29c3.81,1.21,5.39,4.13,3.41,7.21-2.33,3.65-7.12,4.62-11,3.66-2.17-.55-3.67-1.66-4-3h-.07c-1.51,2.35-2.27,3.52-3.79,5.87-1.19-.28-1.78-.43-3-.73Zm1,3.78a3.48,3.48,0,0,0-.39.84c-.34,1.51.83,2.93,3,3.48a6.68,6.68,0,0,0,7.53-2.72c1.32-2.06.77-4.32-2.28-5.26a6.5,6.5,0,0,0-5.91,1.06,3.6,3.6,0,0,0-.72.74Z"/><path class="cls-5" d="M135.91,262l-1.79,2.8c1.68.45,2.52.68,4.21,1.11l-.84,1.32c-1.69-.42-2.54-.64-4.22-1.08l-3.35,5.26c-.77,1.21-.63,2,1.06,2.38a11.51,11.51,0,0,0,1.84.25l-.69,1.33a13.19,13.19,0,0,1-2.85-.31,4.49,4.49,0,0,1-2.81-1.44c-.48-.71-.27-1.67.48-2.84l3.44-5.4-2.49-.69.89-1.39,2.48.71c.61-.95.91-1.43,1.51-2.38Z"/><ellipse class="cls-6" cx="368" cy="134.46" rx="18" ry="14.5" transform="matrix(0.94, -0.33, 0.33, 0.94, -23.78, 130.64)"/><ellipse class="cls-2" cx="385.5" cy="169.96" rx="14.5" ry="18" transform="translate(-35.14 193.55) rotate(-27)"/><ellipse class="cls-7" cx="340.5" cy="232.96" rx="18" ry="14.5" transform="translate(-68.65 179.98) rotate(-27)"/><ellipse class="cls-8" cx="415.5" cy="136.96" rx="18" ry="14.5" transform="translate(-2.07 267.48) rotate(-35.6)"/><ellipse class="cls-9" cx="344.5" cy="188.96" rx="14.5" ry="18" transform="translate(68.74 468.86) rotate(-74.17)"/><g id="vinder_karaktere"><path class="cls-10" d="M238.33,83.28a7.43,7.43,0,0,0-.94-2.13,6.2,6.2,0,0,1-6.22,5.71,20.45,20.45,0,0,0-.65-7.61c-1.36-5-4.2-8.93-7.09-10.17l-.09-.36a31.1,31.1,0,0,0-9.42-15.15.47.47,0,0,0,.05-.1,4.34,4.34,0,0,0-.55-4.37,2.73,2.73,0,0,1-.28.92,3.17,3.17,0,0,1-1.74,1.51,36.32,36.32,0,0,0-8-4.4,3.31,3.31,0,0,1-.05-.55A3.59,3.59,0,0,0,203,47a39.9,39.9,0,0,0-24.55-1.07,41.36,41.36,0,0,0-8.82,3.49,2.39,2.39,0,0,1,.13-.28,4.07,4.07,0,0,1,3.51-2.47,2.94,2.94,0,0,0-.92-.72c-1.86-.92-4.33.28-5.53,2.69a8.09,8.09,0,0,0-.31.76c-1.33-1.75-3.4-2.5-5-1.68a2.82,2.82,0,0,0-.91.73,4.1,4.1,0,0,1,3.55,2.42,5.92,5.92,0,0,1,.28.64,26.58,26.58,0,0,0-9.61.77c-11.44,3.08-19.33,13.38-21.4,26l-.09,0,.08,0a41.37,41.37,0,0,0-.52,6.15,3.8,3.8,0,0,1-3.24.77,3,3,0,0,0,.71.93,3.29,3.29,0,0,0,2.58.72A43.16,43.16,0,0,0,134,94.56a10.76,10.76,0,0,0-.57,7.57,12,12,0,0,0,.61,1.75,3.62,3.62,0,0,1-3.61,1.13,2.73,2.73,0,0,1-.85-.43,4.36,4.36,0,0,0,2.75,3.43,3.3,3.3,0,0,0,1.12.16,14.53,14.53,0,0,0-.55,1.61c-2,7.39,2.82,15.08,10.67,17.17a16,16,0,0,0,4.52.52,11.48,11.48,0,0,1-5-12.44,9.66,9.66,0,0,1,.54-1.54q1,1.08,2,2.07a12.63,12.63,0,0,0,.24,5.49c1.88,7,9.31,11,16.59,9.08a13.92,13.92,0,0,0,4.11-1.84c3.27,5.36,10.19,8.08,17.06,6.24A15.87,15.87,0,0,0,194,125.91a11.83,11.83,0,0,0,6.83.22,12.09,12.09,0,0,0,7.48-6,16.18,16.18,0,0,0,8.4-.05c8.2-2.2,13.21-10.11,11.18-17.65-.09-.31-.19-.61-.29-.91a10.62,10.62,0,0,1,1,10.34,10.44,10.44,0,0,1-1.36,2.26,12.91,12.91,0,0,0,6-21.63A7.54,7.54,0,0,0,238.33,83.28Z"/><g id="ansigt"><ellipse class="cls-11" cx="183.49" cy="84.59" rx="29.04" ry="32.19" transform="translate(-15.68 50.61) rotate(-15.07)"/><path d="M192,95.83a15.48,15.48,0,0,1-11.14-1.91c-1.41,1.93-.57,5.1.08,7.52A8.61,8.61,0,0,0,197.5,97,7.72,7.72,0,0,0,196,94,14.36,14.36,0,0,1,192,95.83Z"/><path class="cls-12" d="M209.58,83.41a5.44,5.44,0,1,0,2.83,10.51,5.05,5.05,0,0,0,.55-.18,36.38,36.38,0,0,0-.09-10.19A5.41,5.41,0,0,0,209.58,83.41Z"/><circle class="cls-12" cx="168.5" cy="100.2" r="5.73"/><ellipse cx="171.4" cy="88.94" rx="1.34" ry="2.29" transform="translate(-21.27 76.12) rotate(-23.62)"/><ellipse cx="201.1" cy="80.94" rx="1.34" ry="2.29" transform="translate(-7.89 23.35) rotate(-6.52)"/></g><path id="pandehår" class="cls-10" d="M195.54,53.07a6.19,6.19,0,0,0-.2-1.64,5.92,5.92,0,0,0-10.57-1.86L183,45.78l-13.86,6.54,1.66,3.53c-2.91-3.06-7.84-4.4-12.78-3.07a13.63,13.63,0,0,0-8.44,6.33A11.77,11.77,0,0,1,161,56.52l-8.63,4.07L153.49,63a17.7,17.7,0,0,0-4.58,11.42,17.79,17.79,0,0,0-4,8.13c-4.39,2.86-6.1,11-3.79,19.57,2.62,9.73,9.41,16.36,15.17,14.81,4.35-1.17,6.86-6.67,6.7-13.48a17.46,17.46,0,0,0,8.36-2.86A25.05,25.05,0,0,1,164.91,99a26.62,26.62,0,0,1-2.64-1.23q-.14-.61-.3-1.23a30,30,0,0,0-2.15-5.67A17.59,17.59,0,0,0,167.49,92a25.27,25.27,0,0,1-4.83-4.56,22.82,22.82,0,0,1-5.33-16.28l4.29,9.09a41.72,41.72,0,0,1,9.89-9l-.89-1.9a10.6,10.6,0,0,0,2.73-8.1l3.36,7.11a43.31,43.31,0,0,1,7.09-2.59c-.7-3-2-7.4-4.08-9.19-.72-.44-1.17-.68-1.17-.68a3.41,3.41,0,0,1,1.17.68,27,27,0,0,1,8.56,8.22c1.17-.19,2.33-.33,3.49-.42l-2.62-5.55a6,6,0,0,0,3.43-.78l1.58,7.7a56.16,56.16,0,0,1,11.94-.06l1-.24-3-14.5ZM170.17,68.45l-4.29-9.1a13.68,13.68,0,0,1,4.29,9.1Z"/><path id="krop" class="cls-11" d="M260.52,126.6c-3.88-5.78-6.53,7.25-30.73-2.87-14.69-6.14-22.16-7.74-26-7.53-3.81-3-7.84-4.4-12-3.27-2.79.75-5.27,3.83-7.28,8.35-3.86-2.28-10.12-5.18-20.16-9-22.21-8.33-34.14-12.5-35.15-10.17s8.16,6.64,31.51,18.59c10.06,5.15,16.67,7.74,21,8.84a89.39,89.39,0,0,0-1.87,30.47c.7,6,2.6,10.53,5.29,13.91.3,3.16,1.38,7.64,3.7,14,5.56,15.33,8.93,23.58,11.91,23.2a8.71,8.71,0,0,0,4.72-.06c3.37-.91,7.92-2.18,7.39-4.17s-5.74-2.21-9.32-3a4.18,4.18,0,0,0-1-.09c-.39-4.13-1.38-10.23-2.66-18.82-.18-1.24-.38-2.4-.58-3.5a28.8,28.8,0,0,0,10.73-.89,31.44,31.44,0,0,0,7.7-3.12c2,1.33,4.36,2.79,7.3,4.4,14.29,7.86,22.26,11.84,24.26,9.59a8.82,8.82,0,0,0,3.5-3.16c1.93-2.9,4.52-6.86,2.81-8s-5.77,2.12-9,3.87a3.78,3.78,0,0,0-.84.61c-3-2.85-7.78-6.78-14.4-12.39-1.93-1.64-3.67-3-5.26-4.14,1.9-4.82,1.72-11-1.52-18.68a157,157,0,0,0-10.7-21.35c3.45,1.25,7.71,2.62,13,4.15C249.59,139,261.93,128.7,260.52,126.6Z"/><path class="cls-13" d="M223.72,121.29c-10.75-4.13-16.65-5.27-19.91-5.09a19.53,19.53,0,0,0-3.35-2.18,10.64,10.64,0,0,1-6.15,4.16,10.46,10.46,0,0,1-7.78-.71,27.58,27.58,0,0,0-2,3.81,99.43,99.43,0,0,0-12-5.73l-2.58,9.67a74.29,74.29,0,0,0,11.79,4.37,89.52,89.52,0,0,0-2,28.93l43.62-11.74a147.36,147.36,0,0,0-9.48-18.52c2.13.77,4.57,1.59,7.37,2.46Z"/><path class="cls-14" d="M237.61,177.74c-1.88-1.58-4-3.34-6.29-5.31-1.93-1.64-3.67-3-5.26-4.14,1.9-4.82,1.72-11-1.52-18.68a209.42,209.42,0,0,0-10.7-21.35c0,.09-3.94-8-5.22-11.64a21.38,21.38,0,0,0-4.66-.43c.38,4.85,0,13-6.27,14.54-7.11,1.75-10.27-8.57-11.54-12.73-.35.65-1.21,2.31-1.54,3a.77.77,0,0,1,0,.15c0,8.11-1.44,10.67-3.67,11.86a90.49,90.49,0,0,0-1.1,27c.7,6,2.6,10.53,5.29,13.91.3,3.16,1.38,7.64,3.7,14,1.34,3.69,2.55,7,3.66,9.82l8.9-2.4c-.43-3-1-6.41-1.56-10.39-.18-1.24-.38-2.4-.58-3.5a28.8,28.8,0,0,0,10.73-.89,31.44,31.44,0,0,0,7.7-3.12c2,1.33,4.36,2.79,7.3,4.4q4,2.22,7.38,4Z"/><path class="cls-15" d="M188.8,145.91c2.64,11.51,9.19,19.63,15.78,18.84,7.5-.91,11.46-11,9.77-25.05Z"/><g id="glad_kat"><path class="cls-16" d="M265,169s4.7-20.7,18.44-17.58,21.35-4.17,24.45-9.65c3-5.26,7.22-13.39-1.7-14.55-6-.78-2.83,13.72-8.47,16.35-13.05,6.06-11.44-3.88-24.06.71-13,4.74-14.47,25.39-14.47,25.39Z"/><path class="cls-16" d="M266.87,101.16A35.63,35.63,0,0,1,280,102.64c4,1-5,11.16-11.09,13.4S260.36,101.67,266.87,101.16Z"/><path class="cls-16" d="M230.5,108c-6.24-1.89-11.83-6.63-9.59-9.07,1.76-1.91,10.62-6,16.86-4.07S236.74,109.91,230.5,108Z"/><path class="cls-17" d="M266.39,139.42c.69,24.25,3.19,40-20.87,40.49-25.51.52-30.77-34.14-24.64-54.32S232,89.06,254.73,96,265.78,118.35,266.39,139.42Z"/><path class="cls-18" d="M232.15,104.8a.39.39,0,0,1-.3-.34c-.14-2.49,3.31-5.65,7.17-5.58a9.17,9.17,0,0,1,4.87,1.38,4.35,4.35,0,0,1,2.25,3.31.36.36,0,0,1-.38.35.41.41,0,0,1-.41-.37,3.65,3.65,0,0,0-1.89-2.72,8.49,8.49,0,0,0-4.4-1.24c-3.39,0-6.54,2.75-6.41,4.88a.34.34,0,0,1-.38.35Z"/><path class="cls-18" d="M264.47,110.06a.41.41,0,0,1-.27-.5c.66-2.16-1.83-6.21-5.18-7.23s-6.43.09-7.13,2.39a.4.4,0,0,1-.5.27.39.39,0,0,1-.26-.5c.82-2.73,4.47-4,8.12-2.93s6.58,5.4,5.72,8.24A.39.39,0,0,1,264.47,110.06Z"/><path class="cls-19" d="M264.79,115.46a.25.25,0,0,0-.21-.28.24.24,0,0,0-.27.21c-.49,3.48-4.78,5.77-9.57,5.1-2.8-.39-4.91-1.52-6.11-3.27s-1.47-3.89-1-6.61c.07-.26.13-.53.19-.81a.25.25,0,0,0,0-.19.23.23,0,0,0-.16-.13.24.24,0,0,0-.29.18c-.07.29-.12.57-.17.85-.71,2.69-2,4.58-3.69,5.61s-4.22,1.22-6.93.4c-4.62-1.4-7.54-5.28-6.52-8.65a.25.25,0,0,0-.16-.3.24.24,0,0,0-.3.16c-1.1,3.63,2,7.78,6.84,9.26,2.84.86,5.37.7,7.31-.45a8.1,8.1,0,0,0,3.22-3.88,7.45,7.45,0,0,0,5.73,7.88,13.06,13.06,0,0,0,2,.43C259.72,121.68,264.26,119.2,264.79,115.46Z"/><path class="cls-18" d="M250.48,108.7a3.64,3.64,0,0,1-3,1.41c-1.4-.35-3-2-2.84-2.54S250.62,108.14,250.48,108.7Z"/><path class="cls-16" d="M224.75,119.63c2.48,6.38,4.2,14,2.08,15.57-4.78,3.62-5.39,3.61-7.49-2.9-2-6.17-3.71-23.77-1.39-24C219.29,108.15,221.61,111.56,224.75,119.63Z"/><path class="cls-16" d="M266.06,127.7c-6.05,3.18-12.46,7.56-12,10.17,1.13,5.89,6.84,3.61,12.26-.57s13.45-11.1,12.34-13.46C278.11,122.59,271.88,124.63,266.06,127.7Z"/><line class="cls-8" x1="243.68" y1="107.46" x2="233.88" y2="106"/><path class="cls-8" d="M233.83,106.16a.17.17,0,0,1-.11-.18.16.16,0,0,1,.18-.14l9.81,1.46a.18.18,0,0,1,.13.19.15.15,0,0,1-.18.13l-9.8-1.46Z"/><line class="cls-8" x1="243.55" y1="108.44" x2="233.96" y2="109.07"/><path class="cls-8" d="M233.91,109.22a.15.15,0,0,1-.11-.14.17.17,0,0,1,.15-.18l9.59-.62a.15.15,0,0,1,.17.15.16.16,0,0,1-.15.17l-9.59.63Z"/><line class="cls-8" x1="261.17" y1="111.26" x2="251.1" y2="109.04"/><path class="cls-8" d="M251.05,109.19a.15.15,0,0,1-.11-.19.16.16,0,0,1,.19-.12l10.07,2.22a.16.16,0,0,1,.13.19.16.16,0,0,1-.19.12l-10.08-2.21Z"/><line class="cls-8" x1="260.76" y1="113.16" x2="250.86" y2="109.81"/><path class="cls-8" d="M260.71,113.31h0l-9.9-3.35a.15.15,0,0,1-.1-.2.16.16,0,0,1,.2-.1l9.9,3.34a.16.16,0,0,1,.1.21A.16.16,0,0,1,260.71,113.31Z"/></g></g><polygon class="cls-5" points="299.57 3.4 293.11 31.39 329.73 9.86 339.42 12.01 316.8 26.01 332.95 49.7 321.11 46.47 310.34 29.24 292.04 41.08 284.5 38.93 294.19 1.24 299.57 3.4"/><path class="cls-5" d="M385.72,27.09c0-5.39-19.38-8.62-19.38-8.62-8.62-2.15-16.16-2.15-19.39-1.08s-6.46,5.39-8.61,12.93-2.15,14,1.08,18.3S349.11,54,349.11,54l29.07,6.46L379.26,54S348,46.47,344.8,44.31s0-6.46,0-6.46c9.69,4.31,26.92,7.54,34.46,6.46S385.72,32.47,385.72,27.09ZM376,37.85c-4.31,2.16-31.23-6.46-31.23-6.46,2.15-4.3,2.15-4.3,5.38-7.53s26.92,4.3,28,5.38S380.33,35.7,376,37.85Z"/><path class="cls-5" d="M437.4,41.08c-2.15-4.3-9.69-7.53-9.69-7.53l-30.15-8.62-1.07,7.54s31.22,7.54,33.38,9.69,1.07,5.38,1.07,5.38-21.53-5.38-29.07-6.46a10.54,10.54,0,0,0-10.77,5.39A14.89,14.89,0,0,0,389,57.24c1.08,6.46,7.54,8.61,7.54,8.61l36.61,8.61,5.38-26.92S439.56,45.39,437.4,41.08Zm-9.69,24.77-29.07-7.54s-3.44,0-2.15-6.46c1.07-5.38,6.46-3.23,6.46-3.23l26.92,6.46Z"/></g></svg>
