<svg xmlns="http://www.w3.org/2000/svg" width="440" height="155" viewBox="0 0 440 155"><defs><style>.cls-1{fill:#fff;}</style></defs><title>portofoliotxt</title><g id="Layer_1" data-name="Layer 1"><path class="cls-1" d="M42.39,19.1l.68-1.71a11.81,11.81,0,0,0-2.73.27,21.44,21.44,0,0,0-2.64.86,9.33,9.33,0,0,1-2.54.68,1.73,1.73,0,0,1-1.37-.63A2.35,2.35,0,0,1,33.26,17a6.57,6.57,0,0,1,1.53-3.93,8.3,8.3,0,0,1,3.79-2.85,35,35,0,0,1,7.54-1.88,60.63,60.63,0,0,1,9.16-.71,52.16,52.16,0,0,1,9.2.73,25.94,25.94,0,0,1,7.25,2.35,21.5,21.5,0,0,1,5.57,4A16.83,16.83,0,0,1,81,20.28,17.68,17.68,0,0,1,82.28,27,23.84,23.84,0,0,1,81,34.24a37.77,37.77,0,0,1-3.59,7.81,31.57,31.57,0,0,1-5,6.45,27,27,0,0,1-8,5.2,22.41,22.41,0,0,1-8.86,2.12,6.9,6.9,0,0,1-3-.61c-.86-.4-1.29-.9-1.29-1.49a3.88,3.88,0,0,1,1-2.56A18,18,0,0,1,56,48.21a25.54,25.54,0,0,0,4.4-3.28,17.94,17.94,0,0,0,3.58-5.71A20.25,20.25,0,0,0,65.09,32a15.31,15.31,0,0,0-1.36-6.79,13.64,13.64,0,0,0-4.44-5L52.6,41.91l-1.22,3.81c-.52,1.49-1.22,4.07-2.1,7.71q-2.4,9.42-4.5,13.09a16.79,16.79,0,0,1-2.39,3.17,22.29,22.29,0,0,1-5.93,3.59,16.17,16.17,0,0,1-6.18,1.54,3.69,3.69,0,0,1-2.71-1,3.8,3.8,0,0,1-1-2.81,25.34,25.34,0,0,1,1-5.86q1-3.86,4.12-13.82l.88-2.73.93-3Z"/><path class="cls-1" d="M112.5,25.89q7.27,0,7.28,1.71,0,1.95-3.27,2.1A16.31,16.31,0,0,0,109.13,32a21.09,21.09,0,0,0-6.07,5.46,27.12,27.12,0,0,0-4.15,7.82,27.87,27.87,0,0,0-1.49,9.18A13.74,13.74,0,0,0,99.91,63a7.8,7.8,0,0,0,6.49,3.24c2.47,0,4.64-1.27,6.49-3.81a14.61,14.61,0,0,0,2.79-8.88,17.8,17.8,0,0,0-1.74-7.79,16.32,16.32,0,0,0-5-6.13c-.94-.75-1.42-1.28-1.42-1.61s.67-1.15,2-2.1a23.46,23.46,0,0,1,5-2.54,14.07,14.07,0,0,1,4.68-1,8.24,8.24,0,0,1,4.18,1.14,11.26,11.26,0,0,1,3.49,3.28,16.08,16.08,0,0,1,2.32,4.88,20.78,20.78,0,0,1,.8,5.88A28.22,28.22,0,0,1,128,57.75a22.72,22.72,0,0,1-5.13,8.18A33.06,33.06,0,0,1,113,72.4a27.59,27.59,0,0,1-11,2.51,30.31,30.31,0,0,1-10.09-1.75A21.23,21.23,0,0,1,84,68.52q-3.92-3.92-3.91-11.09a25.41,25.41,0,0,1,2.79-11.32,36.77,36.77,0,0,1,7.54-10.28,37.94,37.94,0,0,1,10.5-7.28A27.36,27.36,0,0,1,112.5,25.89Z"/><path class="cls-1" d="M149.17,60.12l-.19,1a21.11,21.11,0,0,1-.2,2.39,30.29,30.29,0,0,1-.53,3.9,7.27,7.27,0,0,1-1,2.52A14,14,0,0,1,145.37,72c-2.38,2.18-4.77,3.28-7.18,3.28a4.77,4.77,0,0,1-4.32-2.15q-1.4-2.16-1.4-6.94a64.14,64.14,0,0,1,.86-9.4,89.8,89.8,0,0,1,2.07-10l.39-1.27a5.21,5.21,0,0,1,.3-1.22,63.16,63.16,0,0,1,3.32-9.84,16.28,16.28,0,0,1,3.66-5.15,6.72,6.72,0,0,1,4.3-1.51q3.47,0,4.2,4.19a10.64,10.64,0,0,0,1.31-1.36,14.11,14.11,0,0,1,2.2-2.27,3,3,0,0,1,1.81-.56q4.2,0,4.2,8.3a39.28,39.28,0,0,1-1,8.79,26.89,26.89,0,0,1-2.46,6.93c-1,1.79-2,2.68-3,2.68s-1.61-2-1.61-6.1a26.51,26.51,0,0,0-.37-5,6.89,6.89,0,0,0-1.14-2.86q-1.47,2.73-1.91,12.5C149.43,56.77,149.27,59.14,149.17,60.12Z"/><path class="cls-1" d="M174.32,27.8l.2-.59q3.22-9.09,5.57-12.79a10.84,10.84,0,0,1,3.13-3.13,13.38,13.38,0,0,1,7.09-2.39,4.45,4.45,0,0,1,3,.88,3.17,3.17,0,0,1,1,2.54,15.72,15.72,0,0,1-1.47,4.59,67.17,67.17,0,0,0-3.73,10.79,12,12,0,0,1,1.61.29,12.16,12.16,0,0,1,3.86,1,2.17,2.17,0,0,1,.93,2,9.11,9.11,0,0,1-1.32,4.78A8,8,0,0,1,190.73,39a16.1,16.1,0,0,1-5.22,1c-.42,1.27-.89,3-1.4,5.23q-.44,2.94-1,8.11a24.22,24.22,0,0,0-.29,3.56q0,7.71,7.47,7.71h.44c.59,0,.88.1.88.29,0,.53-.56,1.4-1.66,2.64a21.75,21.75,0,0,1-3.66,3.27,20,20,0,0,1-4.69,2.35A14.43,14.43,0,0,1,177,74a10.82,10.82,0,0,1-8.34-3.47,13,13,0,0,1-3.21-9.18,31.87,31.87,0,0,1,.86-6.4c.57-2.63,1.45-6.17,2.66-10.59.19-.78.4-1.61.63-2.47s.36-1.37.39-1.54a4.14,4.14,0,0,1-2.78-.83,3.36,3.36,0,0,1-.83-2.54,8.76,8.76,0,0,1,2.37-5.81A10,10,0,0,1,174.32,27.8Z"/><path class="cls-1" d="M217.62,64.1l-.1,2.69a156.06,156.06,0,0,1-1.76,15.82q-1.06,6.11-2.43,7.47c-1.24,1.34-3.18,2-5.81,2q-4.25,0-6.1-1.66a4.68,4.68,0,0,1-1-1.51,8.24,8.24,0,0,1-.25-2.49V84.91a166.09,166.09,0,0,1,2.64-27.59,156.64,156.64,0,0,1,6.59-25.27q4.11-11.4,9-18.07t9.71-6.66a3.81,3.81,0,0,1,3.3,1.49,7.1,7.1,0,0,1,1.1,4.27,48.06,48.06,0,0,1-.88,8.81,38.08,38.08,0,0,1-2.13,7.6c-.83,2-1.66,2.93-2.51,2.93s-1.17-1.37-1.17-4.11V26.8a52.93,52.93,0,0,0-.17-5.37,2.45,2.45,0,0,0-.75-1.71,8.88,8.88,0,0,0-.78,2.49q-1.19,5.87-1.92,10.6T220,48.19q0,.59-.15,1.32c-.06.48-.11.92-.15,1.31h.69l1.07-.07c.33,0,.84,0,1.52,0a24.71,24.71,0,0,1,3.33-.25q5.83,0,5.83,3a8.92,8.92,0,0,1-1.1,3.78A13.47,13.47,0,0,1,228.42,61,9.16,9.16,0,0,1,225,63.1a23.17,23.17,0,0,1-5.55.91c-.52,0-.89,0-1.1,0Z"/><path class="cls-1" d="M269,25.48q7.28,0,7.28,1.71,0,1.95-3.27,2.1a16.31,16.31,0,0,0-7.38,2.25A21,21,0,0,0,259.5,37a27.42,27.42,0,0,0-4.15,7.81A28.22,28.22,0,0,0,253.87,54a13.72,13.72,0,0,0,2.49,8.57,7.8,7.8,0,0,0,6.49,3.24c2.47,0,4.64-1.27,6.49-3.8a14.66,14.66,0,0,0,2.79-8.89,17.83,17.83,0,0,0-1.74-7.79,16.4,16.4,0,0,0-5.05-6.13c-.94-.75-1.42-1.28-1.42-1.61s.67-1.15,2-2.1A23.46,23.46,0,0,1,271,33a14.07,14.07,0,0,1,4.68-1,8.16,8.16,0,0,1,4.18,1.15,11.11,11.11,0,0,1,3.49,3.27,16.08,16.08,0,0,1,2.32,4.88,20.78,20.78,0,0,1,.8,5.88,28.22,28.22,0,0,1-1.95,10.23,22.72,22.72,0,0,1-5.13,8.18A33.06,33.06,0,0,1,269.47,72a27.61,27.61,0,0,1-11,2.52,30.33,30.33,0,0,1-10.09-1.76,21.09,21.09,0,0,1-7.93-4.64q-3.91-3.9-3.91-11.08a25.53,25.53,0,0,1,2.78-11.33,37,37,0,0,1,7.55-10.28,37.94,37.94,0,0,1,10.5-7.28A27.36,27.36,0,0,1,269,25.48Z"/><path class="cls-1" d="M317,38.08a96.77,96.77,0,0,0,3.27-11.55,46.86,46.86,0,0,0,1.32-9.25c0-.59-.16-.88-.49-.88q-.78,0-2.73,3.49A49.27,49.27,0,0,0,315.05,27c-1.89,5.3-3.35,9.71-4.37,13.2A75.67,75.67,0,0,0,308.55,49a44.76,44.76,0,0,0-.58,7.27,11.33,11.33,0,0,0,.7,4.64A2.38,2.38,0,0,0,311,62.4,10.67,10.67,0,0,0,317,60a25.39,25.39,0,0,0,6-6.23q2.1-2.88,3.27-2.88c1,0,1.51.8,1.51,2.39a18.38,18.38,0,0,1-3.27,10.21,26,26,0,0,1-8.42,8.08,20.16,20.16,0,0,1-10.52,3.1,14.54,14.54,0,0,1-10.75-4.15,14.69,14.69,0,0,1-4.15-10.84A42.91,42.91,0,0,1,293,46.89a90.44,90.44,0,0,1,6.27-14.79,91.51,91.51,0,0,1,8.62-13.5,44.34,44.34,0,0,1,9.28-9.28,10.29,10.29,0,0,1,6.3-2.1,7.71,7.71,0,0,1,4.78,1.64,10.46,10.46,0,0,1,3.32,4.56,17.41,17.41,0,0,1,1.17,6.5,39.24,39.24,0,0,1-3,15,38.24,38.24,0,0,1-8.37,12.69,26.72,26.72,0,0,1-4.89,4,8,8,0,0,1-4.1,1.47q-1.71,0-1.71-1.32A7.22,7.22,0,0,1,311.92,49a57.87,57.87,0,0,0,4-8.11c.13-.36.27-.74.44-1.15S316.72,38.8,317,38.08Z"/><path class="cls-1" d="M343.55,75.09a6.09,6.09,0,0,1-4-2A11.74,11.74,0,0,1,337,68.87a19.22,19.22,0,0,1-.75-5.89,64.87,64.87,0,0,1,3-18.19q3-10.12,6.81-14.67a5.06,5.06,0,0,1,4.2-1.9,5.26,5.26,0,0,1,4.56,2.58,12,12,0,0,1,1.74,6.79,70.65,70.65,0,0,1-1.79,14.53,134.78,134.78,0,0,1-5,17.3q-1.28,3.61-3.12,4.89a5.59,5.59,0,0,1-3,.78ZM349.42,26q-4.59-.15-4.59-5.52a18,18,0,0,1,1.34-6.22A14.94,14.94,0,0,1,349.23,9,5.47,5.47,0,0,1,351,7.71a5.87,5.87,0,0,1,2.32-.39,4.81,4.81,0,0,1,3.59,1.19,5.68,5.68,0,0,1,1.14,4,18,18,0,0,1-1.19,6.57,13.73,13.73,0,0,1-3.2,5,5.93,5.93,0,0,1-4.1,1.93Z"/><path class="cls-1" d="M394,25.48q7.28,0,7.28,1.71,0,1.95-3.27,2.1a16.31,16.31,0,0,0-7.38,2.25A21,21,0,0,0,384.5,37a27.42,27.42,0,0,0-4.15,7.81A28.22,28.22,0,0,0,378.87,54a13.72,13.72,0,0,0,2.49,8.57,7.8,7.8,0,0,0,6.49,3.24c2.47,0,4.64-1.27,6.49-3.8a14.66,14.66,0,0,0,2.79-8.89,17.83,17.83,0,0,0-1.74-7.79,16.4,16.4,0,0,0-5.05-6.13c-.94-.75-1.42-1.28-1.42-1.61s.67-1.15,2-2.1A23.46,23.46,0,0,1,396,33a14.07,14.07,0,0,1,4.68-1,8.16,8.16,0,0,1,4.18,1.15,11.11,11.11,0,0,1,3.49,3.27,16.08,16.08,0,0,1,2.32,4.88,20.78,20.78,0,0,1,.8,5.88,28.22,28.22,0,0,1-1.95,10.23,22.72,22.72,0,0,1-5.13,8.18A33.06,33.06,0,0,1,394.47,72a27.61,27.61,0,0,1-11,2.52,30.33,30.33,0,0,1-10.09-1.76,21.09,21.09,0,0,1-7.93-4.64q-3.92-3.9-3.91-11.08a25.53,25.53,0,0,1,2.78-11.33,37,37,0,0,1,7.55-10.28,37.94,37.94,0,0,1,10.5-7.28A27.36,27.36,0,0,1,394,25.48Z"/><path class="cls-1" d="M173.85,130.84l.47-.59q2-3,2.81-4.48a15.54,15.54,0,0,0,1.32-3.08,14.62,14.62,0,0,0,.73-4.63,8.76,8.76,0,0,0-.6-3.69,4.54,4.54,0,0,0-2.21-2,12.84,12.84,0,0,0-2.05,7.5,12.59,12.59,0,0,0,.56,3.61,3.67,3.67,0,0,1,.23.9c0,.57-.3.85-.91.85a5.53,5.53,0,0,1-2.22-.69,7.76,7.76,0,0,1-2.14-1.42,6.63,6.63,0,0,1-1.35-2.28,8.52,8.52,0,0,1-.53-3,10.08,10.08,0,0,1,.93-4.25,10.41,10.41,0,0,1,2.59-3.51,11.87,11.87,0,0,1,4-2.33,14.1,14.1,0,0,1,4.88-.84A9.89,9.89,0,0,1,185,108a8.86,8.86,0,0,1,3.38,3.1,7.84,7.84,0,0,1,1.26,4.29,11.62,11.62,0,0,1-.66,3.69,23.64,23.64,0,0,1-2.09,4.38,54,54,0,0,1-3.65,5.31c-1.49,1.94-3.21,4-5.19,6.24l-.58.71-.5.55a12,12,0,0,0,3.37.37,38.87,38.87,0,0,0,4.3-.24,18.72,18.72,0,0,0,3.39-.61,5,5,0,0,1,1.09-.24c.19,0,.29.06.29.18a7.83,7.83,0,0,1-1.39,3.37,19.56,19.56,0,0,1-2.92,3.78,9.65,9.65,0,0,1-3.79,2.18,18.64,18.64,0,0,1-5.47.69,20,20,0,0,1-7.14-1.14c-2-.76-3-1.68-3-2.76q0-1.11,3-4.45,2.15-2.43,3.9-4.83l.25-.36a2.85,2.85,0,0,0,.23-.33c.07-.11.17-.26.28-.46Z"/><path class="cls-1" d="M215.75,107.93H216a4.32,4.32,0,0,1,3,1.43,9.91,9.91,0,0,1,2.3,3.84,14.9,14.9,0,0,1,.85,5,26.11,26.11,0,0,1-.76,5.93,38.85,38.85,0,0,1-2,6.29,40.47,40.47,0,0,1-3.07,5.86,25.75,25.75,0,0,1-3.74,4.71q-4.56,4.64-9.34,4.63a10.06,10.06,0,0,1-5.63-1.59,10.34,10.34,0,0,1-3.75-4.55,16.33,16.33,0,0,1-1.32-6.75,30.14,30.14,0,0,1,2.74-12.58,26.77,26.77,0,0,1,7.25-9.74,14.51,14.51,0,0,1,9.29-3.72A6.29,6.29,0,0,1,215.75,107.93Zm-2.64,1.37.53-.29-.12-.12a5.9,5.9,0,0,0-3.85,1.89,18.62,18.62,0,0,0-3.56,4.79,30.32,30.32,0,0,0-2.58,6.63,27,27,0,0,0-1,7,15.32,15.32,0,0,0,.84,4.88,14.28,14.28,0,0,0,2.11,4.17c.85,1.11,1.66,1.67,2.44,1.67a2.64,2.64,0,0,0,1.91-1.22,12.1,12.1,0,0,0,1.82-3.44,39.82,39.82,0,0,0,1.46-4.48,41.77,41.77,0,0,0,.94-4.63,30.71,30.71,0,0,0,.32-4.16,16.87,16.87,0,0,0-1-5.64,9,9,0,0,0-2.48-4,.54.54,0,0,1-.29-.41Q210.65,111.26,213.11,109.3Z"/><path class="cls-1" d="M232.89,119l.58-1.43a10.37,10.37,0,0,0-1.38.52,9.42,9.42,0,0,1-2.57.85,1,1,0,0,1-.87-.57,2.92,2.92,0,0,1-.33-1.48,5.28,5.28,0,0,1,.38-1.81,3.33,3.33,0,0,1,.82-1.44,65,65,0,0,1,6.68-3.34l.88-.38a4.68,4.68,0,0,1,.84-.41q3.9-1.91,5-1.91a2,2,0,0,1,1.5.56,2.14,2.14,0,0,1,.54,1.58c0,1.47-.68,4-2,7.77-.31.9-.56,1.6-.75,2.12l-.8,2.3q-.15.56-.33,1.14-1,3.44-1.49,5.16l-.39,1.39c-.23.79-.39,1.36-.49,1.71s-.2.72-.32,1.09q-2,7.5-3.28,9.61a5.89,5.89,0,0,1-1,1.2,20,20,0,0,1-2.19,1.49,7.14,7.14,0,0,1-1.75.75,7.32,7.32,0,0,1-1.89.22,4.41,4.41,0,0,1-2.71-.89,2.57,2.57,0,0,1-1.19-2,3,3,0,0,1,.12-.67Q227.87,131.83,232.89,119Z"/><path class="cls-1" d="M261.57,127.35v.15l-.12-.15a23.33,23.33,0,0,1-4.2,2.32,9.81,9.81,0,0,1-3.53.64,6.5,6.5,0,0,1-5-2.15,8,8,0,0,1-1.95-5.58,13.4,13.4,0,0,1,2.41-7.49,18.85,18.85,0,0,1,6.27-5.93,14.81,14.81,0,0,1,7.76-2.26,10.18,10.18,0,0,1,7.38,3q3.54,3.54,3.55,9.67a21.23,21.23,0,0,1-2.2,9,33.44,33.44,0,0,1-5.8,8.53,30.91,30.91,0,0,1-8,6.22,18,18,0,0,1-8.5,2.36,3,3,0,0,1-1.33-.21.77.77,0,0,1-.39-.76.81.81,0,0,1,.3-.57,4.31,4.31,0,0,1,1-.57,15.54,15.54,0,0,0,4.79-3.46,30.84,30.84,0,0,0,4.36-5.75A36.37,36.37,0,0,0,261.57,127.35Zm.64-1.61a32.85,32.85,0,0,0,1.79-5.61,24.76,24.76,0,0,0,.61-5.32,7.82,7.82,0,0,0-.68-3.54,2.06,2.06,0,0,0-1.84-1.32,2.61,2.61,0,0,0-1.2.42,6.25,6.25,0,0,0-1.31,1,12,12,0,0,0-2.45,3.75,10.71,10.71,0,0,0-.89,4.16,6.05,6.05,0,0,0,1.65,4.25A7,7,0,0,0,262.21,125.74Z"/></g></svg>
