<svg xmlns="http://www.w3.org/2000/svg" xmlns:xlink="http://www.w3.org/1999/xlink" width="464" height="631.5" viewBox="0 0 464 631.5"><defs><style>.cls-1{fill:#fff;}.cls-15,.cls-16,.cls-2,.cls-7,.cls-9{fill:none;}.cls-2{stroke:#666;}.cls-15,.cls-17,.cls-2,.cls-7,.cls-8,.cls-9{stroke-miterlimit:10;}.cls-3{fill:#999;}.cls-4{fill:#1f2531;}.cls-5{fill:url(#linear-gradient);}.cls-6{fill:#7ec8d9;}.cls-15,.cls-7,.cls-8{stroke:#000;}.cls-7{stroke-width:2px;}.cls-8{fill:#16202f;}.cls-9{stroke:#304b52;}.cls-10{fill:#305f00;}.cls-11{fill:#005b33;}.cls-12{fill:#1a1a1a;}.cls-13{fill:#4d4d4d;}.cls-14{fill:#333;}.cls-15{stroke-width:3px;}.cls-17{stroke:#999;fill:url(#Sky);}</style><linearGradient id="linear-gradient" x1="136.99" y1="146.49" x2="138.01" y2="501.89" gradientUnits="userSpaceOnUse"><stop offset="0" stop-color="#ff9200"/><stop offset="0.14" stop-color="#fb9000"/><stop offset="0.27" stop-color="#f18a00"/><stop offset="0.39" stop-color="#de7f00"/><stop offset="0.51" stop-color="#c57100"/><stop offset="0.63" stop-color="#a45e00"/><stop offset="0.74" stop-color="#7b4600"/><stop offset="0.85" stop-color="#4b2b00"/><stop offset="0.96" stop-color="#140c00"/><stop offset="1"/></linearGradient><linearGradient id="Sky" x1="11" y1="22" x2="37" y2="22" gradientUnits="userSpaceOnUse"><stop offset="0" stop-color="#cce0f4"/><stop offset="0.06" stop-color="#c3dcf2"/><stop offset="0.17" stop-color="#a9d2ee"/><stop offset="0.31" stop-color="#80c2e7"/><stop offset="0.46" stop-color="#47acde"/><stop offset="0.57" stop-color="#1e9cd7"/><stop offset="0.87" stop-color="#0075be"/><stop offset="0.99" stop-color="#005b97"/></linearGradient></defs><title>Artboard 20</title><g id="Layer_2" data-name="Layer 2"><rect class="cls-1" x="0.5" y="2" width="463" height="629"/><rect class="cls-1" y="517.5" width="464" height="114"/><path class="cls-2" d="M37.55,531.06C42.59,539.7,26,550.5,26,550.5c-.72,0-18.67-11.19-13-20.16,5-7.92,10.8.72,12.24.72C27.47,531.06,33.32,523.81,37.55,531.06Z"/><path class="cls-2" d="M72.87,536.69a10.23,10.23,0,0,1-.63,3.59v6.46H65.78a10.23,10.23,0,0,1-3.59.63,10.69,10.69,0,1,1,10.68-10.68Z"/><polyline class="cls-2" points="109.96 535.43 109.96 548 91.1 548 91.1 535.43"/><line class="cls-2" x1="99.9" y1="540.46" x2="99.9" y2="526.63"/><line class="cls-2" x1="99.9" y1="526.63" x2="104.93" y2="531.66"/><line class="cls-2" x1="94.87" y1="531.66" x2="99.9" y2="526.63"/><path class="cls-2" d="M452.35,551c-.18,0-9.49-8.29-9.67-8.29S433.16,551,433,551V527.5h19.35Z"/><path d="M9.76,564.2a2.61,2.61,0,0,1,1.81-2.44v0a2.27,2.27,0,0,1-1.45-2.05,2.55,2.55,0,0,1,2.82-2.42,2.36,2.36,0,0,1,2.65,2.24,2.31,2.31,0,0,1-1.5,2.13v0A2.53,2.53,0,0,1,15.91,564a2.81,2.81,0,0,1-3.09,2.65C10.91,566.67,9.76,565.53,9.76,564.2Zm4.91-.06c0-1.1-.77-1.64-2-2A2,2,0,0,0,11,564a1.68,1.68,0,0,0,1.82,1.74A1.66,1.66,0,0,0,14.67,564.14Zm-3.39-4.55c0,.91.68,1.4,1.73,1.68a1.78,1.78,0,0,0,1.39-1.65,1.42,1.42,0,0,0-1.54-1.49A1.45,1.45,0,0,0,11.28,559.59Z"/><path d="M23.11,561.86c0,3.1-1.15,4.81-3.17,4.81-1.78,0-3-1.67-3-4.68s1.32-4.74,3.17-4.74S23.11,559,23.11,561.86Zm-4.95.14c0,2.37.73,3.71,1.85,3.71s1.87-1.47,1.87-3.79S21.3,558.2,20,558.2C19,558.2,18.16,559.52,18.16,562Z"/><path d="M30.29,561.86c0,3.1-1.15,4.81-3.17,4.81-1.78,0-3-1.67-3-4.68s1.32-4.74,3.17-4.74S30.29,559,30.29,561.86Zm-4.95.14c0,2.37.73,3.71,1.85,3.71s1.87-1.47,1.87-3.79-.58-3.72-1.85-3.72C26.13,558.2,25.34,559.52,25.34,562Z"/><path d="M34.65,565a4.41,4.41,0,0,0,2.19.61c1.25,0,2-.66,2-1.61s-.5-1.39-1.77-1.88c-1.54-.54-2.5-1.34-2.5-2.67s1.22-2.56,3.06-2.56a4.26,4.26,0,0,1,2.08.46l-.33,1a3.75,3.75,0,0,0-1.8-.45c-1.28,0-1.77.77-1.77,1.42,0,.88.57,1.32,1.87,1.82,1.6.62,2.41,1.39,2.41,2.77s-1.08,2.72-3.3,2.72a4.91,4.91,0,0,1-2.41-.6Z"/><path d="M42,559.73l1.48,4c.16.45.33,1,.44,1.38h0c.12-.4.26-.92.43-1.41l1.34-4h1.31l-1.85,4.83c-.88,2.33-1.49,3.52-2.33,4.25a3.39,3.39,0,0,1-1.51.8l-.31-1a3.2,3.2,0,0,0,1.08-.6,3.68,3.68,0,0,0,1-1.38,1,1,0,0,0,.1-.29,1,1,0,0,0-.09-.32l-2.51-6.25Z"/><path d="M48.16,561.57c0-.7,0-1.28,0-1.84H49.2l.07,1.12h0a2.49,2.49,0,0,1,2.24-1.27c.94,0,2.4.56,2.4,2.88v4H52.7V562.6c0-1.09-.4-2-1.57-2a1.74,1.74,0,0,0-1.65,1.26,1.64,1.64,0,0,0-.08.57v4.08H48.16Z"/><path d="M56.62,563.34A2.18,2.18,0,0,0,59,565.7a4.52,4.52,0,0,0,1.87-.35l.21.88a5.38,5.38,0,0,1-2.25.42,3.15,3.15,0,0,1-3.34-3.42c0-2,1.21-3.65,3.18-3.65,2.22,0,2.8,1.94,2.8,3.19a3.65,3.65,0,0,1,0,.57Zm3.61-.88a1.75,1.75,0,0,0-1.7-2,2.05,2.05,0,0,0-1.9,2Z"/><path d="M62.78,565.25a3.21,3.21,0,0,0,1.63.49c.89,0,1.31-.45,1.31-1s-.35-.91-1.26-1.24c-1.22-.44-1.79-1.11-1.79-1.92a2.09,2.09,0,0,1,2.34-2,3.29,3.29,0,0,1,1.66.42l-.3.89A2.75,2.75,0,0,0,65,560.5c-.73,0-1.14.42-1.14.93s.41.81,1.29,1.14c1.18.45,1.78,1,1.78,2,0,1.19-.92,2-2.53,2a3.88,3.88,0,0,1-1.91-.46Z"/><path d="M77.3,559.73c0,.49,0,1,0,1.86v3.94a3.91,3.91,0,0,1-1,3.1,3.63,3.63,0,0,1-2.47.81,4.39,4.39,0,0,1-2.25-.56l.31-.94a3.78,3.78,0,0,0,2,.53c1.26,0,2.18-.66,2.18-2.37v-.75h0a2.41,2.41,0,0,1-2.15,1.13,3,3,0,0,1-2.89-3.3c0-2.3,1.5-3.6,3-3.6a2.26,2.26,0,0,1,2.12,1.17h0l0-1ZM76,562.41a1.91,1.91,0,0,0-.07-.56,1.79,1.79,0,0,0-1.73-1.31c-1.17,0-2,1-2,2.57,0,1.33.67,2.43,2,2.43a1.8,1.8,0,0,0,1.71-1.26,2.14,2.14,0,0,0,.1-.65Z"/><path d="M85.42,563.06A3.32,3.32,0,0,1,82,566.67a3.23,3.23,0,0,1-3.25-3.49,3.31,3.31,0,0,1,3.37-3.6A3.21,3.21,0,0,1,85.42,563.06Zm-5.38.07c0,1.49.86,2.61,2.06,2.61s2.06-1.11,2.06-2.63c0-1.15-.57-2.61-2-2.61S80,561.85,80,563.13Z"/><path d="M92.83,556.57v8.19c0,.6,0,1.29,0,1.75h-1.1l-.06-1.18h0a2.5,2.5,0,0,1-2.31,1.34c-1.64,0-2.9-1.39-2.9-3.45,0-2.26,1.39-3.64,3-3.64a2.28,2.28,0,0,1,2,1h0v-4Zm-1.24,5.92a2.35,2.35,0,0,0,0-.52,1.82,1.82,0,0,0-1.78-1.43c-1.28,0-2,1.12-2,2.62s.67,2.51,2,2.51a1.86,1.86,0,0,0,1.81-1.47,2.27,2.27,0,0,0,0-.53Z"/><path d="M96.35,557.78v2h1.77v.94H96.35v3.66c0,.84.24,1.31.93,1.31a2.82,2.82,0,0,0,.71-.08l.06.92a3,3,0,0,1-1.09.17,1.72,1.72,0,0,1-1.34-.52,2.49,2.49,0,0,1-.47-1.76v-3.7H94.1v-.94h1.05v-1.62Z"/><path d="M108.6,563.06a3.32,3.32,0,0,1-3.37,3.61,3.22,3.22,0,0,1-3.25-3.49,3.31,3.31,0,0,1,3.36-3.6A3.2,3.2,0,0,1,108.6,563.06Zm-5.37.07c0,1.49.85,2.61,2.06,2.61s2-1.11,2-2.63c0-1.15-.57-2.61-2-2.61S103.23,561.85,103.23,563.13Z"/><path d="M110.16,561.57c0-.7,0-1.28-.06-1.84h1.08l0,1.09h0a2.32,2.32,0,0,1,2.13-1.24,2,2,0,0,1,1.91,1.36h0a2.81,2.81,0,0,1,.76-.89,2.34,2.34,0,0,1,1.5-.47c.89,0,2.22.59,2.22,2.94v4h-1.2v-3.84c0-1.3-.48-2.08-1.47-2.08a1.59,1.59,0,0,0-1.46,1.12,2.16,2.16,0,0,0-.1.61v4.19h-1.2v-4.06c0-1.08-.48-1.86-1.42-1.86a1.66,1.66,0,0,0-1.52,1.23,1.68,1.68,0,0,0-.1.6v4.09h-1.2Z"/><path class="cls-3" d="M15.34,582.87l-3.08-9.44h1.32l1.47,4.65c.4,1.28.75,2.42,1,3.53h0c.27-1.09.66-2.28,1.08-3.51l1.6-4.67h1.3l-3.38,9.44Z"/><path class="cls-3" d="M22.19,574.19a.77.77,0,0,1-1.53,0,.75.75,0,0,1,.77-.77A.73.73,0,0,1,22.19,574.19Zm-1.38,8.68v-6.78h1.24v6.78Z"/><path class="cls-3" d="M23.92,581.61a3.24,3.24,0,0,0,1.63.49c.89,0,1.31-.45,1.31-1s-.35-.91-1.26-1.24c-1.22-.44-1.79-1.11-1.79-1.92a2.09,2.09,0,0,1,2.34-2,3.29,3.29,0,0,1,1.66.42l-.3.89a2.75,2.75,0,0,0-1.39-.39c-.73,0-1.13.42-1.13.93s.4.81,1.28,1.15c1.18.44,1.78,1,1.78,2,0,1.19-.92,2-2.53,2a3.91,3.91,0,0,1-1.91-.46Z"/><path class="cls-3" d="M36.35,582.87l-.09-.85h0a2.51,2.51,0,0,1-2.07,1,1.93,1.93,0,0,1-2.07-1.95c0-1.64,1.46-2.54,4.07-2.52v-.14a1.4,1.4,0,0,0-1.54-1.57,3.33,3.33,0,0,0-1.76.5l-.28-.81a4.24,4.24,0,0,1,2.23-.6c2.07,0,2.57,1.41,2.57,2.77v2.54a8.84,8.84,0,0,0,.12,1.62Zm-.18-3.46c-1.34,0-2.87.21-2.87,1.53a1.09,1.09,0,0,0,1.16,1.18A1.67,1.67,0,0,0,36.1,581a1.34,1.34,0,0,0,.07-.39Z"/><path class="cls-3" d="M39.35,572.93h1.23v9.94H39.35Z"/><path class="cls-3" d="M42.65,572.93h1.23v9.94H42.65Z"/><path class="cls-3" d="M46.64,579.71A2.18,2.18,0,0,0,49,582.06a4.36,4.36,0,0,0,1.87-.35l.21.88a5.38,5.38,0,0,1-2.25.42,3.14,3.14,0,0,1-3.33-3.42c0-2,1.2-3.65,3.18-3.65,2.21,0,2.8,1.95,2.8,3.19,0,.25,0,.45,0,.58Zm3.62-.89a1.76,1.76,0,0,0-1.71-2,2,2,0,0,0-1.89,2Z"/><path class="cls-3" d="M55.43,580.56a2.61,2.61,0,0,1,1.81-2.44v0a2.25,2.25,0,0,1-1.45-2,2.55,2.55,0,0,1,2.82-2.43,2.36,2.36,0,0,1,2.65,2.24,2.31,2.31,0,0,1-1.5,2.13v0a2.51,2.51,0,0,1,1.83,2.35A2.81,2.81,0,0,1,58.49,583C56.58,583,55.43,581.89,55.43,580.56Zm4.91-.06c0-1.1-.77-1.63-2-2a2,2,0,0,0-1.64,1.87,1.69,1.69,0,0,0,1.83,1.74A1.65,1.65,0,0,0,60.34,580.5ZM57,576c0,.91.68,1.4,1.73,1.68A1.78,1.78,0,0,0,60.07,576a1.41,1.41,0,0,0-1.54-1.48A1.44,1.44,0,0,0,57,576Z"/><path class="cls-3" d="M63,581.46a4.16,4.16,0,0,0,2,.57c1.58,0,2.07-1,2.06-1.76,0-1.28-1.16-1.82-2.36-1.82h-.68v-.93h.68c.9,0,2-.46,2-1.54,0-.73-.47-1.37-1.6-1.37a3.33,3.33,0,0,0-1.82.6l-.32-.9a4.31,4.31,0,0,1,2.38-.7c1.79,0,2.6,1.07,2.6,2.17a2.27,2.27,0,0,1-1.68,2.15v0a2.36,2.36,0,0,1,2,2.33c0,1.46-1.13,2.74-3.32,2.74a4.62,4.62,0,0,1-2.36-.62Z"/><path class="cls-3" d="M74.49,579.2h0c.16-.24.4-.53.6-.77l2-2.34h1.48L76,578.88l3,4h-1.5l-2.34-3.25-.63.7v2.55H73.27v-9.94h1.22Z"/><path class="cls-3" d="M86,579.43a3.32,3.32,0,0,1-3.38,3.6,3.23,3.23,0,0,1-3.25-3.49,3.31,3.31,0,0,1,3.37-3.6A3.21,3.21,0,0,1,86,579.43Zm-5.38.07c0,1.48.86,2.6,2.06,2.6s2.06-1.1,2.06-2.63c0-1.15-.57-2.61-2-2.61S80.59,578.21,80.59,579.5Z"/><path class="cls-3" d="M87.52,577.93c0-.7,0-1.28-.06-1.84h1.08l.06,1.09h0a2.34,2.34,0,0,1,2.13-1.24,2,2,0,0,1,1.92,1.36h0a2.75,2.75,0,0,1,.75-.88,2.32,2.32,0,0,1,1.5-.48c.9,0,2.23.59,2.23,2.94v4H96V579c0-1.3-.48-2.08-1.47-2.08a1.58,1.58,0,0,0-1.46,1.12,1.9,1.9,0,0,0-.1.61v4.19h-1.2v-4.06c0-1.08-.48-1.86-1.42-1.86a1.8,1.8,0,0,0-1.62,1.83v4.09H87.52Z"/><path class="cls-3" d="M99.2,577.93c0-.7,0-1.28-.06-1.84h1.08l.06,1.09h0a2.34,2.34,0,0,1,2.13-1.24,2,2,0,0,1,1.92,1.36h0a2.77,2.77,0,0,1,.76-.88,2.3,2.3,0,0,1,1.5-.48c.9,0,2.23.59,2.23,2.94v4h-1.21V579c0-1.3-.47-2.08-1.47-2.08a1.59,1.59,0,0,0-1.46,1.12,2.24,2.24,0,0,0-.09.61v4.19h-1.21v-4.06c0-1.08-.48-1.86-1.41-1.86a1.84,1.84,0,0,0-1.63,1.83v4.09H99.2Z"/><path class="cls-3" d="M111.56,579.71a2.17,2.17,0,0,0,2.32,2.35,4.38,4.38,0,0,0,1.88-.35l.21.88a5.41,5.41,0,0,1-2.25.42,3.15,3.15,0,0,1-3.34-3.42c0-2,1.21-3.65,3.18-3.65,2.22,0,2.8,1.95,2.8,3.19a3.91,3.91,0,0,1,0,.58Zm3.61-.89a1.75,1.75,0,0,0-1.71-2,2,2,0,0,0-1.89,2Z"/><path class="cls-3" d="M117.89,577.93c0-.7,0-1.28-.06-1.84h1.09l.07,1.12h0a2.5,2.5,0,0,1,2.24-1.27c.94,0,2.4.56,2.4,2.88v4h-1.23V579c0-1.09-.41-2-1.57-2a1.76,1.76,0,0,0-1.66,1.26,2,2,0,0,0-.08.58v4.07h-1.23Z"/><path class="cls-3" d="M127.09,574.15v1.94h1.76V577h-1.76v3.66c0,.84.23,1.31.92,1.31a2.82,2.82,0,0,0,.71-.08l.06.92a3,3,0,0,1-1.09.17,1.68,1.68,0,0,1-1.33-.52,2.49,2.49,0,0,1-.48-1.76V577h-1v-.94h1v-1.62Z"/><path class="cls-3" d="M134,582.87l-.1-.85h0a2.54,2.54,0,0,1-2.07,1,1.94,1.94,0,0,1-2.08-1.95c0-1.64,1.46-2.54,4.08-2.52v-.14a1.4,1.4,0,0,0-1.54-1.57,3.39,3.39,0,0,0-1.77.5l-.28-.81a4.27,4.27,0,0,1,2.23-.6c2.07,0,2.58,1.41,2.58,2.77v2.54a9.9,9.9,0,0,0,.11,1.62Zm-.18-3.46c-1.35,0-2.87.21-2.87,1.53a1.09,1.09,0,0,0,1.16,1.18,1.69,1.69,0,0,0,1.64-1.14,1.34,1.34,0,0,0,.07-.39Z"/><path class="cls-3" d="M137,578.21c0-.8,0-1.49,0-2.12H138l0,1.33h0a2,2,0,0,1,1.88-1.48,1.25,1.25,0,0,1,.35,0v1.16a2.39,2.39,0,0,0-.42,0,1.73,1.73,0,0,0-1.65,1.58,3.34,3.34,0,0,0-.06.58v3.61H137Z"/><path class="cls-3" d="M142.11,579.71a2.17,2.17,0,0,0,2.32,2.35,4.38,4.38,0,0,0,1.88-.35l.21.88a5.43,5.43,0,0,1-2.26.42,3.15,3.15,0,0,1-3.33-3.42c0-2,1.21-3.65,3.18-3.65,2.21,0,2.8,1.95,2.8,3.19,0,.25,0,.45,0,.58Zm3.61-.89a1.75,1.75,0,0,0-1.71-2,2,2,0,0,0-1.89,2Z"/><path class="cls-3" d="M148.43,578.21c0-.8,0-1.49-.05-2.12h1.08l0,1.33h.06a2,2,0,0,1,1.87-1.48,1.25,1.25,0,0,1,.35,0v1.16a2.39,2.39,0,0,0-.42,0,1.73,1.73,0,0,0-1.65,1.58,3.34,3.34,0,0,0-.06.58v3.61h-1.22Z"/><rect class="cls-4" x="0.5" y="47" width="463" height="471"/><path class="cls-5" d="M231.39,284.58c1.38,20.77,23.67,25.29,15.23,54-3.65,12.44-15.81,20.28-18,41.56-3.33,32.3,27.71,27.7,19.4,72-8.24,43.95-74.82,62.33-103.89,62.33-24.25,0-67.05-11.83-88.64-37.4C43.8,463.27,46.82,441,43,424.47c-4.15-18-17.83-18.86-18-41.55-.22-27.85,18-20.78,18-52.64,0-29.21-18.84-26.95-18-47.09,1.38-33.24,22.16-34.63,20.77-45.71-9.45-75.6,5.54-98.34,24.94-108,43.21-21.61,52.63,6.92,58.17,6.92,4.15,0,9.69-74.79,92.8-20.77,24.51,15.93,22.16,24.93,27.7,79C253.22,231.85,229.37,254.37,231.39,284.58Z"/><path class="cls-6" d="M221.69,251.53c0,47.15-28,89-74.1,84.66-60.25-5.64-69.17-24.49-76.87-84.66-4.16-32.45,13.78-23,19.39-35.27,7.45-16.3,2.77-38.1,24.16-43.12,10.66-2.5,21-7.68,33.32-7.68C193.87,165.46,221.69,204.38,221.69,251.53Z"/><path class="cls-6" d="M214.76,517.5c12.47-28.27-8.31-152.64-76.18-149.82C83.23,370,63.79,506.19,70.72,517.5Z"/><circle cx="180.83" cy="232.64" r="4.85"/><circle cx="107.42" cy="232.64" r="4.85"/><path class="cls-6" d="M161.44,372.53c-2.63-.88-24.06-2.77-33.24-2.77v-37.4h33.24S163.52,373.22,161.44,372.53Z"/><path d="M158,266.57c0,7.27-6.59,14.54-13.86,14.54s-12.46-7.27-12.46-14.54H158Z"/><line class="cls-7" x1="146.2" y1="253.41" x2="154.51" y2="253.41"/><path class="cls-7" d="M154.51,253.41l-1.38-13.85a9.72,9.72,0,0,1,8.76-11l.93-.12"/><path class="cls-6" d="M392.14,288.84l-20.94,18.8c-4.34,3.89-10.34,2.58-13.4-2.94h0c-3.06-5.52-2-13.15,2.31-17l20.94-18.8c4.34-3.9,10.34-2.58,13.4,2.94h0C397.51,277.31,396.47,284.94,392.14,288.84Z"/><path class="cls-6" d="M180.61,398c-3.75,0-6.89-3.73-7.1-8.56-.22-5,2.79-9.26,6.72-9.54C236,376,286.79,355.13,331.05,318a318.63,318.63,0,0,0,27.39-26c3-3.21,7.5-2.71,10,1.13s2.13,9.54-.89,12.75a329.3,329.3,0,0,1-28.69,27.22C292.5,372,239.38,393.87,181,398Z"/><path class="cls-6" d="M124,384.58c-2.17-4.31-6.57-6.43-10-4.89l-.36.17C64.91,406,26.92,444.74.62,495c.18,2.45.26,4.9.33,7.38.11,4.36,0,9,2.1,13a28.41,28.41,0,0,0,1.69,2.82c1-.09,2-.15,3.08-.15.59-1.25,1.16-2.51,1.75-3.74C34.74,462.28,72.5,422.5,121.81,396,125.28,394.18,126.27,389.05,124,384.58Z"/><path class="cls-8" d="M140.45,451.64c0,2-1.38,5-3.76,8.3v0h0c-5.31,7.25-15.48,15.53-25.84,15.53A29.33,29.33,0,0,1,81.5,446.17c0-16.2,8.38-37.71,10.31-34.48,9.22,15.36,32.88,9.66,48.35,38.67A3,3,0,0,1,140.45,451.64Z"/><path class="cls-8" d="M209.44,446.17a29.33,29.33,0,0,1-29.33,29.33c-10,0-19.77-7.68-25.22-14.72-3.31-4.29-5-8.34-4.16-10.28a.84.84,0,0,1,.06-.14c15.47-29,39.12-23.31,48.34-38.67C201.06,408.46,209.44,430,209.44,446.17Z"/><path class="cls-8" d="M154.89,460.78c-1.4,1.16-15.28.72-18.89.72l.67-1.53h0v0c2.38-3.26,3.77-6.31,3.76-8.3.19-.41.38-.8.55-1.14h9.73C149.87,452.44,151.58,456.49,154.89,460.78Z"/><path class="cls-8" d="M91.5,412a3.84,3.84,0,0,0,3,2c1,0,22-34,19-36a3.84,3.84,0,0,1-3,2S95.5,409,91.5,412Z"/><path class="cls-8" d="M199.5,412.06A4.47,4.47,0,0,1,196,414c-1.16,0-25.66-33.06-22.16-35a4.49,4.49,0,0,0,3.5,1.94S194.84,409.14,199.5,412.06Z"/><path class="cls-9" d="M151,450.5l-2.29-2.74a11.75,11.75,0,0,1-2.71-7.5V438.5"/><path class="cls-9" d="M141.56,450.28l2-2.95a11.73,11.73,0,0,0,2-7.72l-.17-1.75"/><rect class="cls-10" x="382.46" y="291.07" width="35" height="70" rx="6.65" transform="translate(-110.85 252.81) rotate(-31.03)"/><rect class="cls-10" x="371.81" y="273.08" width="13" height="34" transform="translate(-95.39 236.51) rotate(-31.03)"/><rect class="cls-10" x="361.53" y="272.65" width="15" height="4" transform="translate(-88.77 229.52) rotate(-31.03)"/><ellipse class="cls-11" cx="399.53" cy="326.33" rx="13" ry="21" transform="translate(-111.04 252.63) rotate(-31.03)"/><path class="cls-1" d="M390,325.4l.44-.27,1.86,3.09,1.48-.89.23.37L392,328.86Z"/><path class="cls-1" d="M395.86,324.83a1.42,1.42,0,0,1-.44,2.07,1.37,1.37,0,0,1-2-.56,1.42,1.42,0,0,1,.43-2.06A1.38,1.38,0,0,1,395.86,324.83Zm-2,1.22a.91.91,0,1,0,1.51-.92c-.26-.42-.79-.83-1.32-.51A1,1,0,0,0,393.9,326.05Z"/><path class="cls-1" d="M396.16,324c-.17-.29-.33-.54-.48-.76l.39-.24.31.48h0a.87.87,0,0,1,.36-1,.42.42,0,0,1,.14-.06l.26.42L397,323a.74.74,0,0,0-.25.95,1.38,1.38,0,0,0,.1.22l.8,1.33-.45.27Z"/><path class="cls-1" d="M398.38,323.46a.92.92,0,0,0,1.37.35,2,2,0,0,0,.61-.54l.27.28a2.44,2.44,0,0,1-.73.65,1.35,1.35,0,0,1-2-.52,1.4,1.4,0,0,1,.36-2,1.22,1.22,0,0,1,1.73.55,1.1,1.1,0,0,1,.11.22Zm1.13-1.12a.76.76,0,0,0-1.07-.36.87.87,0,0,0-.25,1.16Z"/><path class="cls-1" d="M400.31,321.41c-.16-.26-.29-.46-.43-.66l.4-.24.26.39h0a1,1,0,0,1,.5-.93.86.86,0,0,1,1,.08h0a1.1,1.1,0,0,1,.08-.49,1,1,0,0,1,.44-.5c.33-.2.95-.28,1.47.59l.88,1.46-.44.27-.85-1.41c-.29-.48-.63-.66-1-.44a.68.68,0,0,0-.29.73,1,1,0,0,0,.1.25l.93,1.53-.44.27-.9-1.49c-.24-.4-.59-.58-.93-.37a.73.73,0,0,0-.29.79.82.82,0,0,0,.1.24l.9,1.5-.44.27Z"/><path class="cls-1" d="M394.31,331.55a.31.31,0,0,1-.12.45.31.31,0,0,1-.44-.11.32.32,0,0,1,.12-.45A.3.3,0,0,1,394.31,331.55Zm1.42,3.49-1.5-2.49.45-.27,1.5,2.49Z"/><path class="cls-1" d="M395.92,332.64c-.19-.32-.35-.57-.51-.8l.41-.24.28.41h0a1.12,1.12,0,0,1,.59-1,1.32,1.32,0,0,1,1.81.63,1.38,1.38,0,0,1-.32,2,1,1,0,0,1-1,.07h0l.81,1.36-.45.26Zm.85.4.13.17a.83.83,0,0,0,1,.12c.48-.29.52-.85.17-1.42a1,1,0,0,0-1.29-.48.85.85,0,0,0-.35,1,.84.84,0,0,0,.08.2Z"/><path class="cls-1" d="M399.52,332.13a1.33,1.33,0,0,0,.7-.18c.33-.2.38-.45.26-.66s-.33-.25-.74-.18-.9,0-1.08-.31a.89.89,0,0,1,.42-1.24,1.59,1.59,0,0,1,.71-.22l.08.4a1.24,1.24,0,0,0-.59.16c-.27.17-.33.41-.22.59s.33.21.73.14.88,0,1.1.36.11.95-.48,1.3a1.55,1.55,0,0,1-.8.25Z"/><path class="cls-1" d="M403.56,329.4c.16.26.3.48.43.67l-.4.24-.27-.39h0a1.09,1.09,0,0,1-.54,1c-.39.24-1,.3-1.52-.57l-.87-1.46.45-.27.83,1.38c.29.47.62.7,1,.46a.76.76,0,0,0,.35-.77.64.64,0,0,0-.1-.26l-.91-1.52.45-.28Z"/><path class="cls-1" d="M403.63,327.81c-.15-.25-.28-.46-.42-.66l.39-.23.27.38h0a1,1,0,0,1,.51-.92.84.84,0,0,1,1,.07h0a1.2,1.2,0,0,1,.08-.49,1,1,0,0,1,.45-.51c.33-.2.95-.28,1.46.59l.89,1.46-.45.27-.84-1.41c-.29-.48-.64-.66-1-.44a.67.67,0,0,0-.29.73,1,1,0,0,0,.1.25l.92,1.54-.44.26-.9-1.49c-.23-.4-.58-.58-.92-.37a.8.8,0,0,0-.2,1l.91,1.5-.45.27Z"/><path class="cls-6" d="M376.71,280.28c-2.54-5.57-9.1-2-10.06-1.37-.07,0-.07.11-.07.18-.05,1-8.08,9.91-8.08,9.91,0,5.78-1.12,7.12,5,6C370.07,293.8,377.5,282,376.71,280.28Z"/><rect class="cls-12" x="342.5" y="72" width="87" height="144" transform="translate(-19.84 73.12) rotate(-10.55)"/><rect x="326.42" y="86.15" width="87" height="144.85" transform="translate(-22.78 70.42) rotate(-10.55)"/><polygon class="cls-13" points="442.5 211 425.5 222 399.5 80 415.5 65 442.5 211"/><ellipse class="cls-14" cx="376.47" cy="189.25" rx="32.18" ry="22.23" transform="translate(-28.29 72.14) rotate(-10.55)"/><ellipse cx="281.25" cy="182.96" rx="5.4" ry="3.86" transform="translate(-53.8 165.14) rotate(-30)"/><line class="cls-15" x1="273" y1="230.5" x2="257.91" y2="235.75"/><line class="cls-7" x1="257.91" y1="235.75" x2="268.78" y2="261.53"/><ellipse cx="273.29" cy="262.21" rx="5.4" ry="3.86" transform="translate(-77.62 119.72) rotate(-21.72)"/><line class="cls-15" x1="351.81" y1="268.5" x2="327.81" y2="253.5"/><line class="cls-7" x1="327.81" y1="253.5" x2="314.31" y2="278"/><line class="cls-7" x1="352.31" y1="268" x2="340.31" y2="288"/><ellipse cx="316.56" cy="281.96" rx="3.86" ry="5.4" transform="translate(-85.9 415.13) rotate(-60)"/><ellipse cx="342.56" cy="291.96" rx="3.86" ry="5.4" transform="translate(-81.56 442.65) rotate(-60)"/><rect class="cls-16" width="464" height="43"/><circle class="cls-17" cx="24" cy="22" r="13"/><path d="M45,24.72c0-.87,0-1.57-.06-2.21H46l.06,1.16h0a2.68,2.68,0,0,1,2.41-1.32c1.64,0,2.87,1.39,2.87,3.45,0,2.44-1.48,3.64-3.08,3.64a2.37,2.37,0,0,1-2.08-1.06h0v3.68H45Zm1.22,1.81a3.68,3.68,0,0,0,.05.5,1.9,1.9,0,0,0,1.85,1.44c1.31,0,2.06-1.06,2.06-2.61,0-1.36-.71-2.53-2-2.53a2,2,0,0,0-1.86,1.53,2.09,2.09,0,0,0-.08.51Z"/><path d="M54.31,20.6a.77.77,0,0,1-1.53,0,.75.75,0,0,1,.77-.77A.74.74,0,0,1,54.31,20.6Zm-1.37,8.69V22.51h1.23v6.78Z"/><path d="M60,29.29l-.09-.86h0a2.54,2.54,0,0,1-2.08,1,1.93,1.93,0,0,1-2.07-2c0-1.63,1.46-2.53,4.07-2.52v-.14a1.4,1.4,0,0,0-1.54-1.57,3.36,3.36,0,0,0-1.76.51L56.17,23a4.15,4.15,0,0,1,2.23-.61c2.07,0,2.57,1.42,2.57,2.78v2.53a9,9,0,0,0,.12,1.63Zm-.18-3.46c-1.34,0-2.87.21-2.87,1.52a1.09,1.09,0,0,0,1.16,1.18,1.68,1.68,0,0,0,1.64-1.13,1.4,1.4,0,0,0,.07-.4Z"/><path d="M63,24.34c0-.7,0-1.27-.06-1.83H64L64,23.6h0a2.35,2.35,0,0,1,2.13-1.25,2,2,0,0,1,1.92,1.36h0a2.75,2.75,0,0,1,.75-.88,2.32,2.32,0,0,1,1.5-.48c.9,0,2.23.59,2.23,2.94v4H71.43V25.45c0-1.3-.47-2.09-1.47-2.09a1.59,1.59,0,0,0-1.45,1.12,2,2,0,0,0-.1.62v4.19H67.2V25.22c0-1.07-.47-1.86-1.41-1.86a1.7,1.7,0,0,0-1.53,1.23,1.77,1.77,0,0,0-.1.61v4.09H63Z"/><path d="M75.32,26.12a2.17,2.17,0,0,0,2.33,2.35,4.36,4.36,0,0,0,1.87-.35l.21.89a5.54,5.54,0,0,1-2.25.42A3.16,3.16,0,0,1,74.14,26c0-2.05,1.21-3.66,3.18-3.66,2.22,0,2.81,1.95,2.81,3.2a3.4,3.4,0,0,1,0,.57Zm3.62-.88a1.76,1.76,0,0,0-1.71-2,2,2,0,0,0-1.9,2Z"/><path d="M81.65,24.34c0-.7,0-1.27-.06-1.83h1.1l.07,1.12h0A2.49,2.49,0,0,1,85,22.35c.94,0,2.4.56,2.4,2.89v4.05H86.19V25.38c0-1.09-.41-2-1.57-2A1.74,1.74,0,0,0,83,24.64a1.62,1.62,0,0,0-.09.57v4.08H81.65Z"/><path d="M90.79,20.6a.72.72,0,0,1-.78.76.74.74,0,0,1-.75-.76.76.76,0,0,1,.78-.77A.73.73,0,0,1,90.79,20.6Zm-1.37,8.69V22.51h1.23v6.78Z"/><path d="M93.91,25.62h0c.17-.24.41-.54.6-.77l2-2.34H98L95.4,25.29l3,4h-1.5L94.54,26l-.63.7v2.55H92.69V19.34h1.22Z"/><path d="M100.72,25.62h0a8.43,8.43,0,0,1,.6-.77l2-2.34h1.48l-2.62,2.78,3,4h-1.5L101.35,26l-.63.7v2.55H99.5V19.34h1.22Z"/><path d="M106.75,26.12a2.17,2.17,0,0,0,2.33,2.35,4.36,4.36,0,0,0,1.87-.35l.21.89a5.54,5.54,0,0,1-2.25.42A3.16,3.16,0,0,1,105.57,26c0-2.05,1.21-3.66,3.18-3.66,2.22,0,2.81,1.95,2.81,3.2a3.4,3.4,0,0,1,0,.57Zm3.62-.88a1.76,1.76,0,0,0-1.71-2,2,2,0,0,0-1.9,2Z"/><path d="M114.3,25.62h0a8.43,8.43,0,0,1,.6-.77l2-2.34h1.48l-2.62,2.78,3,4h-1.5L114.93,26l-.63.7v2.55h-1.22V19.34h1.22Z"/><path d="M441,23.47a1.5,1.5,0,0,0,0-3,1.5,1.5,0,0,0,0,3Z"/><path d="M449,23.47a1.5,1.5,0,0,0,0-3,1.5,1.5,0,0,0,0,3Z"/><path d="M445,23.47a1.5,1.5,0,0,0,0-3,1.5,1.5,0,0,0,0,3Z"/><polygon points="330 79.5 314 95.5 400 79.5 416 64.5 330 79.5"/></g></svg>
