<svg xmlns="http://www.w3.org/2000/svg" xmlns:xlink="http://www.w3.org/1999/xlink" width="464.5" height="629" viewBox="0 0 464.5 629"><defs><style>.cls-1{fill:#fff;}.cls-2,.cls-4{fill:none;}.cls-3{stroke:#999;fill:url(#Sky);}.cls-3,.cls-4{stroke-miterlimit:10;}.cls-4{stroke:#666;}.cls-5{fill:#999;}.cls-6{fill:#504bc4;}.cls-7{fill:#c7b299;}.cls-8{fill:#f28d35;}.cls-9{fill:#666;}.cls-10{fill:#ccc;}.cls-11{fill:#f2f2f2;}</style><linearGradient id="Sky" x1="11" y1="22" x2="37" y2="22" gradientUnits="userSpaceOnUse"><stop offset="0" stop-color="#cce0f4"/><stop offset="0.06" stop-color="#c3dcf2"/><stop offset="0.17" stop-color="#a9d2ee"/><stop offset="0.31" stop-color="#80c2e7"/><stop offset="0.46" stop-color="#47acde"/><stop offset="0.57" stop-color="#1e9cd7"/><stop offset="0.87" stop-color="#0075be"/><stop offset="0.99" stop-color="#005b97"/></linearGradient></defs><title>imageArtboard 16</title><g id="Layer_2" data-name="Layer 2"><rect class="cls-1" x="1.5" width="463" height="626"/><rect class="cls-2" width="464" height="43"/><rect class="cls-2" y="515" width="464" height="114"/><circle class="cls-3" cx="24" cy="22" r="13"/><path class="cls-4" d="M37.55,529.56C42.59,538.2,26,549,26,549c-.72,0-18.67-11.19-13-20.16,5-7.92,10.8.72,12.24.72C27.47,529.56,33.32,522.31,37.55,529.56Z"/><path class="cls-4" d="M72.87,535.19a10.23,10.23,0,0,1-.63,3.59v6.46H65.78a10.23,10.23,0,0,1-3.59.63,10.69,10.69,0,1,1,10.68-10.68Z"/><polyline class="cls-4" points="109.96 533.93 109.96 546.5 91.1 546.5 91.1 533.93"/><line class="cls-4" x1="99.9" y1="538.96" x2="99.9" y2="525.13"/><line class="cls-4" x1="99.9" y1="525.13" x2="104.93" y2="530.16"/><line class="cls-4" x1="94.87" y1="530.16" x2="99.9" y2="525.13"/><path class="cls-4" d="M452.35,549.5c-.18,0-9.49-8.29-9.67-8.29s-9.52,8.29-9.68,8.29V526h19.35Z"/><path d="M12.55,557.05h0l-1.58.86L10.7,557l2-1.06h1.05V565H12.55Z"/><path d="M17.15,564.28a.83.83,0,0,1,.85-.88.81.81,0,0,1,.82.88.82.82,0,0,1-.84.89A.83.83,0,0,1,17.15,564.28Z"/><path d="M20,565v-.76l1-.93c2.33-2.22,3.38-3.39,3.39-4.77a1.63,1.63,0,0,0-1.81-1.78,3.11,3.11,0,0,0-1.93.77l-.39-.86a4,4,0,0,1,2.58-.93,2.56,2.56,0,0,1,2.78,2.65c0,1.68-1.21,3-3.13,4.89l-.73.67v0h4.09v1Z"/><path d="M33.19,560.36c0,3.1-1.15,4.81-3.17,4.81-1.78,0-3-1.67-3-4.68s1.32-4.74,3.17-4.74S33.19,557.46,33.19,560.36Zm-4.95.14c0,2.37.73,3.71,1.85,3.71S32,562.74,32,560.42s-.58-3.72-1.85-3.72C29,556.7,28.24,558,28.24,560.5Z"/><path d="M40.37,560.36c0,3.1-1.15,4.81-3.17,4.81-1.78,0-3-1.67-3-4.68s1.32-4.74,3.17-4.74S40.37,557.46,40.37,560.36Zm-4.95.14c0,2.37.73,3.71,1.85,3.71s1.87-1.47,1.87-3.79-.58-3.72-1.85-3.72C36.21,556.7,35.42,558,35.42,560.5Z"/><path d="M44.73,563.53a4.41,4.41,0,0,0,2.19.61c1.25,0,2-.66,2-1.61s-.5-1.39-1.77-1.88c-1.55-.54-2.5-1.34-2.5-2.67s1.22-2.56,3.06-2.56a4.26,4.26,0,0,1,2.08.46l-.33,1a3.75,3.75,0,0,0-1.8-.45c-1.29,0-1.78.77-1.78,1.42,0,.88.58,1.32,1.88,1.82,1.6.62,2.41,1.39,2.41,2.77s-1.08,2.72-3.31,2.72a4.9,4.9,0,0,1-2.4-.6Z"/><path d="M52.1,558.23l1.48,4c.16.45.33,1,.44,1.38h0c.13-.4.27-.92.44-1.41l1.34-4h1.31l-1.85,4.83c-.88,2.33-1.49,3.52-2.33,4.25a3.39,3.39,0,0,1-1.51.8l-.31-1a3.2,3.2,0,0,0,1.08-.6,3.68,3.68,0,0,0,1-1.38.92.92,0,0,0,.09-.29.9.9,0,0,0-.08-.32l-2.51-6.25Z"/><path d="M58.24,560.07c0-.7,0-1.28-.05-1.84h1.09l.07,1.12h0a2.49,2.49,0,0,1,2.24-1.27c.94,0,2.4.56,2.4,2.88v4H62.78V561.1c0-1.09-.4-2-1.57-2a1.74,1.74,0,0,0-1.65,1.26,1.64,1.64,0,0,0-.08.57V565H58.24Z"/><path d="M66.7,561.84A2.18,2.18,0,0,0,69,564.2a4.52,4.52,0,0,0,1.87-.35l.21.88a5.38,5.38,0,0,1-2.25.42,3.15,3.15,0,0,1-3.34-3.42c0-2,1.21-3.65,3.18-3.65,2.22,0,2.8,1.94,2.8,3.19a3.65,3.65,0,0,1,0,.57Zm3.61-.88a1.75,1.75,0,0,0-1.7-2,2.05,2.05,0,0,0-1.9,2Z"/><path d="M72.86,563.75a3.2,3.2,0,0,0,1.62.49c.9,0,1.32-.45,1.32-1s-.35-.91-1.26-1.24c-1.22-.44-1.79-1.11-1.79-1.92a2.09,2.09,0,0,1,2.34-2,3.29,3.29,0,0,1,1.66.42l-.3.89a2.75,2.75,0,0,0-1.39-.39c-.73,0-1.14.42-1.14.93s.41.81,1.29,1.14c1.18.45,1.78,1,1.78,2,0,1.19-.92,2-2.53,2a3.88,3.88,0,0,1-1.91-.46Z"/><path d="M87.38,558.23c0,.49-.06,1-.06,1.86V564c0,1.55-.3,2.51-1,3.1a3.63,3.63,0,0,1-2.47.81,4.39,4.39,0,0,1-2.25-.56l.31-.94a3.77,3.77,0,0,0,2,.53c1.27,0,2.19-.66,2.19-2.37v-.75h0A2.41,2.41,0,0,1,83.93,565a3,3,0,0,1-2.88-3.3c0-2.3,1.5-3.6,3-3.6a2.26,2.26,0,0,1,2.12,1.17h0l0-1Zm-1.27,2.68a1.91,1.91,0,0,0-.07-.56A1.79,1.79,0,0,0,84.31,559c-1.17,0-2,1-2,2.57,0,1.33.67,2.43,2,2.43A1.8,1.8,0,0,0,86,562.78a2.16,2.16,0,0,0,.1-.66Z"/><path d="M95.5,561.56a3.32,3.32,0,0,1-3.38,3.61,3.22,3.22,0,0,1-3.24-3.49,3.31,3.31,0,0,1,3.36-3.6A3.21,3.21,0,0,1,95.5,561.56Zm-5.38.07c0,1.49.86,2.61,2.06,2.61s2.06-1.11,2.06-2.63c0-1.15-.57-2.61-2-2.61S90.12,560.35,90.12,561.63Z"/><path d="M102.91,555.07v8.19c0,.6,0,1.29,0,1.75h-1.1l-.06-1.18h0a2.5,2.5,0,0,1-2.31,1.34c-1.64,0-2.9-1.39-2.9-3.45,0-2.26,1.39-3.64,3-3.64a2.28,2.28,0,0,1,2.05,1h0v-4ZM101.67,561a2.35,2.35,0,0,0,0-.52A1.82,1.82,0,0,0,99.84,559c-1.28,0-2,1.12-2,2.62s.67,2.51,2,2.51a1.86,1.86,0,0,0,1.81-1.47,2.27,2.27,0,0,0,0-.53Z"/><path d="M106.43,556.28v2h1.77v.94h-1.77v3.66c0,.84.24,1.31.93,1.31a2.82,2.82,0,0,0,.71-.08l.06.92a3,3,0,0,1-1.1.17,1.71,1.71,0,0,1-1.33-.52,2.49,2.49,0,0,1-.47-1.76v-3.7h-1v-.94h1v-1.62Z"/><path d="M118.68,561.56a3.32,3.32,0,0,1-3.37,3.61,3.22,3.22,0,0,1-3.25-3.49,3.31,3.31,0,0,1,3.36-3.6A3.2,3.2,0,0,1,118.68,561.56Zm-5.37.07c0,1.49.85,2.61,2,2.61s2.06-1.11,2.06-2.63c0-1.15-.57-2.61-2-2.61S113.31,560.35,113.31,561.63Z"/><path d="M120.24,560.07c0-.7,0-1.28-.06-1.84h1.08l0,1.09h0a2.32,2.32,0,0,1,2.12-1.24,2,2,0,0,1,1.92,1.36h0a2.81,2.81,0,0,1,.76-.89,2.34,2.34,0,0,1,1.5-.47c.89,0,2.22.59,2.22,2.94v4h-1.2v-3.84c0-1.3-.48-2.08-1.47-2.08a1.59,1.59,0,0,0-1.46,1.12,2.16,2.16,0,0,0-.1.61V565h-1.2V561c0-1.08-.48-1.86-1.42-1.86a1.66,1.66,0,0,0-1.52,1.23,1.68,1.68,0,0,0-.1.6V565h-1.2Z"/><path class="cls-5" d="M15.34,581.37l-3.08-9.44h1.32l1.47,4.65c.4,1.28.75,2.42,1,3.53h0c.27-1.09.66-2.28,1.08-3.51l1.6-4.67h1.3l-3.38,9.44Z"/><path class="cls-5" d="M22.19,572.69a.77.77,0,0,1-1.53,0,.75.75,0,0,1,.77-.77A.73.73,0,0,1,22.19,572.69Zm-1.38,8.68v-6.78h1.24v6.78Z"/><path class="cls-5" d="M23.92,580.11a3.24,3.24,0,0,0,1.63.49c.89,0,1.31-.45,1.31-1s-.35-.91-1.26-1.24c-1.22-.44-1.79-1.11-1.79-1.92a2.09,2.09,0,0,1,2.34-2,3.29,3.29,0,0,1,1.66.42l-.3.89a2.75,2.75,0,0,0-1.39-.39c-.73,0-1.13.42-1.13.93s.4.81,1.28,1.15c1.18.44,1.78,1,1.78,2,0,1.19-.92,2-2.53,2a3.91,3.91,0,0,1-1.91-.46Z"/><path class="cls-5" d="M36.35,581.37l-.09-.85h0a2.51,2.51,0,0,1-2.07,1,1.93,1.93,0,0,1-2.07-1.95c0-1.64,1.46-2.54,4.07-2.52v-.14a1.4,1.4,0,0,0-1.54-1.57,3.33,3.33,0,0,0-1.76.5l-.28-.81a4.24,4.24,0,0,1,2.23-.6c2.07,0,2.57,1.41,2.57,2.77v2.54a8.84,8.84,0,0,0,.12,1.62Zm-.18-3.46c-1.34,0-2.87.21-2.87,1.53a1.09,1.09,0,0,0,1.16,1.18,1.67,1.67,0,0,0,1.64-1.14,1.34,1.34,0,0,0,.07-.39Z"/><path class="cls-5" d="M39.35,571.43h1.23v9.94H39.35Z"/><path class="cls-5" d="M42.65,571.43h1.23v9.94H42.65Z"/><path class="cls-5" d="M46.64,578.21A2.18,2.18,0,0,0,49,580.56a4.36,4.36,0,0,0,1.87-.35l.21.88a5.38,5.38,0,0,1-2.25.42,3.14,3.14,0,0,1-3.33-3.42c0-2,1.2-3.65,3.18-3.65,2.21,0,2.8,1.95,2.8,3.19,0,.25,0,.45,0,.58Zm3.62-.89a1.76,1.76,0,0,0-1.71-2,2,2,0,0,0-1.89,2Z"/><path class="cls-5" d="M58.22,573.42h0l-1.58.85-.24-.94,2-1.06h1v9.1H58.22Z"/><path class="cls-5" d="M62.73,581.37v-.75l1-.94c2.33-2.22,3.38-3.39,3.39-4.76a1.62,1.62,0,0,0-1.8-1.78,3.11,3.11,0,0,0-1.94.77L63,573a4,4,0,0,1,2.58-.93,2.57,2.57,0,0,1,2.79,2.65c0,1.68-1.22,3-3.14,4.89l-.73.67v0h4.09v1Z"/><path class="cls-5" d="M74.49,577.7h0c.16-.24.4-.53.6-.77l2-2.34h1.48L76,577.38l3,4h-1.5l-2.34-3.25-.63.7v2.55H73.27v-9.94h1.22Z"/><path class="cls-5" d="M86,577.93a3.32,3.32,0,0,1-3.38,3.6A3.23,3.23,0,0,1,79.34,578a3.31,3.31,0,0,1,3.37-3.6A3.21,3.21,0,0,1,86,577.93Zm-5.38.07c0,1.48.86,2.6,2.06,2.6s2.06-1.1,2.06-2.63c0-1.15-.57-2.61-2-2.61S80.59,576.71,80.59,578Z"/><path class="cls-5" d="M87.52,576.43c0-.7,0-1.28-.06-1.84h1.08l.06,1.09h0a2.34,2.34,0,0,1,2.13-1.24,2,2,0,0,1,1.92,1.36h0a2.64,2.64,0,0,1,.75-.88,2.32,2.32,0,0,1,1.5-.48c.9,0,2.23.59,2.23,2.94v4H96v-3.84c0-1.3-.48-2.08-1.47-2.08a1.58,1.58,0,0,0-1.46,1.12,1.9,1.9,0,0,0-.1.61v4.19h-1.2v-4.06c0-1.08-.48-1.86-1.42-1.86a1.8,1.8,0,0,0-1.62,1.83v4.09H87.52Z"/><path class="cls-5" d="M99.2,576.43c0-.7,0-1.28-.06-1.84h1.08l.06,1.09h0a2.34,2.34,0,0,1,2.13-1.24,2,2,0,0,1,1.92,1.36h0a2.66,2.66,0,0,1,.76-.88,2.3,2.3,0,0,1,1.5-.48c.9,0,2.23.59,2.23,2.94v4h-1.21v-3.84c0-1.3-.47-2.08-1.47-2.08a1.59,1.59,0,0,0-1.46,1.12,2.24,2.24,0,0,0-.09.61v4.19h-1.21v-4.06c0-1.08-.48-1.86-1.41-1.86a1.84,1.84,0,0,0-1.63,1.83v4.09H99.2Z"/><path class="cls-5" d="M111.56,578.21a2.17,2.17,0,0,0,2.32,2.35,4.38,4.38,0,0,0,1.88-.35l.21.88a5.41,5.41,0,0,1-2.25.42,3.15,3.15,0,0,1-3.34-3.42c0-2,1.21-3.65,3.18-3.65,2.22,0,2.8,1.95,2.8,3.19a3.91,3.91,0,0,1,0,.58Zm3.61-.89a1.75,1.75,0,0,0-1.71-2,2,2,0,0,0-1.89,2Z"/><path class="cls-5" d="M117.89,576.43c0-.7,0-1.28-.06-1.84h1.09l.07,1.12h0a2.5,2.5,0,0,1,2.24-1.27c.94,0,2.4.56,2.4,2.88v4h-1.23v-3.91c0-1.09-.41-2-1.57-2a1.76,1.76,0,0,0-1.66,1.26,2,2,0,0,0-.08.58v4.07h-1.23Z"/><path class="cls-5" d="M127.09,572.65v1.94h1.76v.94h-1.76v3.66c0,.84.23,1.31.92,1.31a2.82,2.82,0,0,0,.71-.08l.06.92a3,3,0,0,1-1.09.17,1.68,1.68,0,0,1-1.33-.52,2.49,2.49,0,0,1-.48-1.76v-3.7h-1v-.94h1V573Z"/><path class="cls-5" d="M134,581.37l-.1-.85h0a2.54,2.54,0,0,1-2.07,1,1.94,1.94,0,0,1-2.08-1.95c0-1.64,1.46-2.54,4.08-2.52v-.14a1.4,1.4,0,0,0-1.54-1.57,3.39,3.39,0,0,0-1.77.5l-.28-.81a4.27,4.27,0,0,1,2.23-.6c2.07,0,2.58,1.41,2.58,2.77v2.54a9.9,9.9,0,0,0,.11,1.62Zm-.18-3.46c-1.35,0-2.87.21-2.87,1.53a1.09,1.09,0,0,0,1.16,1.18,1.69,1.69,0,0,0,1.64-1.14,1.34,1.34,0,0,0,.07-.39Z"/><path class="cls-5" d="M137,576.71c0-.8,0-1.49,0-2.12H138l0,1.33h0a2,2,0,0,1,1.88-1.48,1.25,1.25,0,0,1,.35,0v1.16a2.39,2.39,0,0,0-.42,0,1.73,1.73,0,0,0-1.65,1.58,3.34,3.34,0,0,0-.06.58v3.61H137Z"/><path class="cls-5" d="M142.11,578.21a2.17,2.17,0,0,0,2.32,2.35,4.38,4.38,0,0,0,1.88-.35l.21.88a5.43,5.43,0,0,1-2.26.42,3.15,3.15,0,0,1-3.33-3.42c0-2,1.21-3.65,3.18-3.65,2.21,0,2.8,1.95,2.8,3.19,0,.25,0,.45,0,.58Zm3.61-.89a1.75,1.75,0,0,0-1.71-2,2,2,0,0,0-1.89,2Z"/><path class="cls-5" d="M148.43,576.71c0-.8,0-1.49-.05-2.12h1.08l0,1.33h.06a2,2,0,0,1,1.87-1.48,1.25,1.25,0,0,1,.35,0v1.16a2.39,2.39,0,0,0-.42,0,1.73,1.73,0,0,0-1.65,1.58,3.34,3.34,0,0,0-.06.58v3.61h-1.22Z"/><path d="M44.8,28a3.34,3.34,0,0,0,1.63.49c.89,0,1.31-.45,1.31-1s-.35-.91-1.26-1.25c-1.22-.43-1.79-1.1-1.79-1.92a2.09,2.09,0,0,1,2.34-2,3.47,3.47,0,0,1,1.67.42l-.31.9A2.65,2.65,0,0,0,47,23.28c-.73,0-1.13.42-1.13.92s.4.81,1.28,1.15c1.18.45,1.78,1,1.78,2,0,1.19-.92,2-2.53,2A3.8,3.8,0,0,1,44.49,29Z"/><path d="M51.73,25.62h0c.17-.24.41-.54.6-.77l2-2.34h1.49l-2.62,2.78,3,4H54.7L52.36,26l-.63.7v2.55H50.51V19.34h1.22Z"/><path d="M56.58,27a2.59,2.59,0,0,1,1.8-2.44v0a2.27,2.27,0,0,1-1.45-2.05A2.55,2.55,0,0,1,59.74,20a2.35,2.35,0,0,1,2.65,2.24,2.31,2.31,0,0,1-1.5,2.13v0a2.53,2.53,0,0,1,1.83,2.35c0,1.59-1.35,2.65-3.09,2.65C57.72,29.44,56.58,28.31,56.58,27Zm4.9-.06c0-1.11-.77-1.64-2-2a2,2,0,0,0-1.63,1.88,1.67,1.67,0,0,0,1.82,1.73A1.65,1.65,0,0,0,61.48,26.92Zm-3.39-4.55c0,.91.68,1.4,1.73,1.68a1.8,1.8,0,0,0,1.39-1.65,1.42,1.42,0,0,0-1.54-1.49A1.45,1.45,0,0,0,58.09,22.37Z"/><path d="M64.26,24.62c0-.8,0-1.48-.05-2.11h1.07l0,1.33h0a2,2,0,0,1,1.88-1.49,1.23,1.23,0,0,1,.35,0v1.16a1.76,1.76,0,0,0-.42,0,1.71,1.71,0,0,0-1.65,1.58,3.22,3.22,0,0,0-.06.57v3.62H64.26Z"/><path d="M68.84,29.29c0-.46,0-1.15,0-1.75v-8.2h1.22V23.6h0a2.53,2.53,0,0,1,2.31-1.25c1.68,0,2.87,1.4,2.86,3.46,0,2.43-1.53,3.63-3,3.63A2.43,2.43,0,0,1,70,28.17h0l-.06,1.12Zm1.27-2.72a2.22,2.22,0,0,0,.06.45A1.9,1.9,0,0,0,72,28.46c1.29,0,2.06-1.05,2.06-2.6,0-1.36-.7-2.53-2-2.53a2,2,0,0,0-1.88,1.52,3.17,3.17,0,0,0-.07.5Z"/><path d="M83,25.84a3.31,3.31,0,0,1-3.38,3.6A3.22,3.22,0,0,1,76.37,26a3.31,3.31,0,0,1,3.36-3.6A3.22,3.22,0,0,1,83,25.84Zm-5.38.07c0,1.49.85,2.61,2.06,2.61s2.06-1.11,2.06-2.64c0-1.15-.58-2.6-2-2.6S77.62,24.62,77.62,25.91Z"/><path d="M84.9,22.51l1.48,4c.16.45.32,1,.44,1.39h0c.13-.41.27-.92.44-1.41l1.34-4h1.31l-1.85,4.83c-.89,2.33-1.49,3.52-2.33,4.24a3.19,3.19,0,0,1-1.51.8l-.31-1A3.34,3.34,0,0,0,85,30.74a3.64,3.64,0,0,0,1-1.37.92.92,0,0,0,.09-.29,1,1,0,0,0-.08-.33l-2.51-6.24Z"/><path d="M90.65,29.29v-.76l1-.94C93.94,25.38,95,24.2,95,22.83a1.63,1.63,0,0,0-1.81-1.78,3.08,3.08,0,0,0-1.93.77L90.88,21A4,4,0,0,1,93.45,20a2.56,2.56,0,0,1,2.79,2.65c0,1.68-1.22,3-3.14,4.88l-.73.68v0h4.09v1Z"/><path d="M97.83,29.29v-.76l1-.94c2.32-2.21,3.37-3.39,3.39-4.76a1.63,1.63,0,0,0-1.81-1.78,3.08,3.08,0,0,0-1.93.77L98.06,21a4,4,0,0,1,2.57-.92,2.56,2.56,0,0,1,2.79,2.65c0,1.68-1.22,3-3.14,4.88l-.73.68v0h4.1v1Z"/><path d="M111.07,24.64c0,3.09-1.15,4.8-3.17,4.8-1.78,0-3-1.67-3-4.68S106.21,20,108.05,20,111.07,21.74,111.07,24.64Zm-4.95.14c0,2.36.73,3.71,1.85,3.71s1.86-1.47,1.86-3.8S109.26,21,108,21C106.91,21,106.12,22.3,106.12,24.78Z"/><path d="M118.25,24.64c0,3.09-1.15,4.8-3.17,4.8-1.78,0-3-1.67-3-4.68S113.39,20,115.24,20,118.25,21.74,118.25,24.64Zm-5,.14c0,2.36.73,3.71,1.85,3.71S117,27,117,24.69,116.44,21,115.17,21C114.09,21,113.3,22.3,113.3,24.78Z"/><path d="M448,23.47a1.5,1.5,0,0,0,0-3,1.5,1.5,0,0,0,0,3Z"/><path d="M456,23.47a1.5,1.5,0,0,0,0-3,1.5,1.5,0,0,0,0,3Z"/><path d="M452,23.47a1.5,1.5,0,0,0,0-3,1.5,1.5,0,0,0,0,3Z"/><rect class="cls-6" x="1.5" y="42.5" width="463" height="472"/><line class="cls-7" x1="244.21" y1="308.85" x2="231.84" y2="305.26"/><path class="cls-8" d="M204.2,384h0a33,33,0,0,1-22.48-40.87L219,214a32.92,32.92,0,0,1,40.79-22.53h0a33,33,0,0,1,22.48,40.87L245,361.5A32.92,32.92,0,0,1,204.2,384Z"/><ellipse class="cls-9" cx="246.49" cy="236.67" rx="2.48" ry="2.48"/><polygon class="cls-10" points="277.54 248.77 214.28 230.42 216.34 223.27 279.6 241.62 277.54 248.77"/><ellipse class="cls-10" cx="245.67" cy="239.53" rx="5.95" ry="3.96" transform="translate(-52.46 409.37) rotate(-73.94)"/><path class="cls-11" d="M218.13,236.71h0a5.47,5.47,0,0,1-3.72-6.76l1.93-6.68a5.45,5.45,0,0,1,6.75-3.72h0a5.45,5.45,0,0,1,3.71,6.76L224.88,233A5.46,5.46,0,0,1,218.13,236.71Z"/><path class="cls-11" d="M270.93,252h0a5.46,5.46,0,0,1-3.72-6.76l1.93-6.68a5.44,5.44,0,0,1,6.74-3.72h0a5.46,5.46,0,0,1,3.72,6.76l-1.93,6.67A5.43,5.43,0,0,1,270.93,252Z"/><polygon class="cls-10" points="249.59 345.54 186.33 327.19 184.26 334.34 247.53 352.69 249.59 345.54"/><ellipse class="cls-10" cx="217.72" cy="336.29" rx="5.95" ry="3.96" transform="translate(-165.67 452.52) rotate(-73.94)"/><path class="cls-11" d="M192.94,323.94h0a5.45,5.45,0,0,0-6.75,3.72l-1.92,6.68A5.45,5.45,0,0,0,188,341.1h0a5.45,5.45,0,0,0,6.75-3.73l1.93-6.67A5.46,5.46,0,0,0,192.94,323.94Z"/><path class="cls-11" d="M245.74,339.25h0A5.45,5.45,0,0,0,239,343l-1.93,6.67a5.46,5.46,0,0,0,3.72,6.76h0a5.45,5.45,0,0,0,6.75-3.72l1.92-6.68A5.45,5.45,0,0,0,245.74,339.25Z"/></g></svg>
