<svg xmlns="http://www.w3.org/2000/svg" xmlns:xlink="http://www.w3.org/1999/xlink" width="465" height="633" viewBox="0 0 465 633"><defs><style>.cls-1{fill:#fff;}.cls-12,.cls-2,.cls-4,.cls-9{fill:none;}.cls-3{stroke:#999;fill:url(#Sky);}.cls-10,.cls-12,.cls-13,.cls-3,.cls-4,.cls-9{stroke-miterlimit:10;}.cls-13,.cls-4{stroke:#666;}.cls-5{fill:#999;}.cls-6{fill:#fd9128;}.cls-7{fill:url(#linear-gradient);}.cls-10,.cls-8{fill:#7ec8d9;}.cls-9{stroke:#000;}.cls-12,.cls-9{stroke-width:2px;}.cls-10,.cls-12{stroke:#6d699c;}.cls-11{fill:#6d699c;}.cls-13{fill:gray;}.cls-14{fill:#666;}</style><linearGradient id="Sky" x1="11" y1="22" x2="37" y2="22" gradientUnits="userSpaceOnUse"><stop offset="0" stop-color="#cce0f4"/><stop offset="0.06" stop-color="#c3dcf2"/><stop offset="0.17" stop-color="#a9d2ee"/><stop offset="0.31" stop-color="#80c2e7"/><stop offset="0.46" stop-color="#47acde"/><stop offset="0.57" stop-color="#1e9cd7"/><stop offset="0.87" stop-color="#0075be"/><stop offset="0.99" stop-color="#005b97"/></linearGradient><linearGradient id="linear-gradient" x1="243.54" y1="379.94" x2="238.18" y2="92.71" gradientUnits="userSpaceOnUse"><stop offset="0.04" stop-color="#78272d"/><stop offset="0.17" stop-color="#7c272d"/><stop offset="0.32" stop-color="#89272d"/><stop offset="0.47" stop-color="#9f272d"/><stop offset="0.62" stop-color="#bd272d"/><stop offset="0.64" stop-color="#c1272d"/><stop offset="0.68" stop-color="#c6262c"/><stop offset="1" stop-color="#ed1c24"/></linearGradient></defs><title>Artboard 22</title><g id="Layer_2" data-name="Layer 2"><rect class="cls-1" x="1.5" width="463" height="631"/><rect class="cls-2" width="464" height="43"/><rect class="cls-2" x="1" y="515" width="464" height="118"/><circle class="cls-3" cx="24" cy="22" r="13"/><path d="M453,22.47a1.5,1.5,0,0,0,0-3,1.5,1.5,0,0,0,0,3Z"/><path d="M447.56,22.81a1.5,1.5,0,0,0,0-3,1.5,1.5,0,0,0,0,3Z"/><path d="M441.44,23.49a1.5,1.5,0,0,0,0-3,1.5,1.5,0,0,0,0,3Z"/><path class="cls-4" d="M37.55,529.56C42.59,538.2,26,549,26,549c-.72,0-18.67-11.19-13-20.16,5-7.92,10.8.72,12.24.72C27.47,529.56,33.32,522.31,37.55,529.56Z"/><path class="cls-4" d="M72.87,535.19a10.23,10.23,0,0,1-.63,3.59v6.46H65.78a10.23,10.23,0,0,1-3.59.63,10.69,10.69,0,1,1,10.68-10.68Z"/><polyline class="cls-4" points="109.96 533.93 109.96 546.5 91.1 546.5 91.1 533.93"/><line class="cls-4" x1="99.9" y1="538.96" x2="99.9" y2="525.13"/><line class="cls-4" x1="99.9" y1="525.13" x2="104.93" y2="530.16"/><line class="cls-4" x1="94.87" y1="530.16" x2="99.9" y2="525.13"/><path class="cls-4" d="M452.35,549.5c-.18,0-9.49-8.29-9.67-8.29s-9.52,8.29-9.68,8.29V526h19.35Z"/><path d="M15.31,556.94H11.84l-.35,2.34a4.67,4.67,0,0,1,.74,0,3.81,3.81,0,0,1,2,.49,2.59,2.59,0,0,1,1.3,2.33,3.16,3.16,0,0,1-3.39,3.12,4.48,4.48,0,0,1-2.27-.57l.31-.93a4.14,4.14,0,0,0,1.95.5,2,2,0,0,0,2.16-2c0-1.18-.8-2-2.62-2a8.12,8.12,0,0,0-1.26.1l.58-4.37h4.36Z"/><path d="M23.11,560.36c0,3.1-1.15,4.81-3.17,4.81-1.78,0-3-1.67-3-4.68s1.32-4.74,3.17-4.74S23.11,557.46,23.11,560.36Zm-4.95.14c0,2.37.73,3.71,1.85,3.71s1.87-1.47,1.87-3.79S21.3,556.7,20,556.7C19,556.7,18.16,558,18.16,560.5Z"/><path d="M27.47,563.53a4.41,4.41,0,0,0,2.19.61c1.24,0,2-.66,2-1.61s-.5-1.39-1.78-1.88c-1.54-.54-2.49-1.34-2.49-2.67s1.22-2.56,3.05-2.56a4.27,4.27,0,0,1,2.09.46l-.33,1a3.75,3.75,0,0,0-1.8-.45c-1.29,0-1.78.77-1.78,1.42,0,.88.58,1.32,1.88,1.82,1.6.62,2.41,1.39,2.41,2.77s-1.08,2.72-3.31,2.72a5,5,0,0,1-2.41-.6Z"/><path d="M34.84,558.23l1.48,4c.16.45.32,1,.44,1.38h0c.13-.4.27-.92.44-1.41l1.34-4h1.31L38,563.06c-.89,2.33-1.49,3.52-2.33,4.25a3.39,3.39,0,0,1-1.51.8l-.31-1a3.3,3.3,0,0,0,1.08-.6,3.68,3.68,0,0,0,1-1.38.92.92,0,0,0,.09-.29.9.9,0,0,0-.08-.32l-2.51-6.25Z"/><path d="M41,560.07c0-.7,0-1.28,0-1.84H42l.07,1.12h0a2.49,2.49,0,0,1,2.24-1.27c.94,0,2.39.56,2.39,2.88v4H45.52V561.1c0-1.09-.4-2-1.57-2a1.74,1.74,0,0,0-1.65,1.26,1.62,1.62,0,0,0-.09.57V565H41Z"/><path d="M49.44,561.84a2.17,2.17,0,0,0,2.32,2.36,4.54,4.54,0,0,0,1.88-.35l.21.88a5.41,5.41,0,0,1-2.25.42,3.15,3.15,0,0,1-3.34-3.42c0-2,1.21-3.65,3.18-3.65,2.22,0,2.8,1.94,2.8,3.19a5.55,5.55,0,0,1,0,.57Zm3.61-.88a1.75,1.75,0,0,0-1.71-2,2,2,0,0,0-1.89,2Z"/><path d="M55.6,563.75a3.2,3.2,0,0,0,1.62.49c.9,0,1.32-.45,1.32-1s-.35-.91-1.26-1.24c-1.22-.44-1.79-1.11-1.79-1.92a2.09,2.09,0,0,1,2.34-2,3.32,3.32,0,0,1,1.66.42l-.31.89A2.67,2.67,0,0,0,57.8,559c-.73,0-1.14.42-1.14.93s.41.81,1.29,1.14c1.18.45,1.78,1,1.78,2,0,1.19-.92,2-2.53,2a3.88,3.88,0,0,1-1.91-.46Z"/><path d="M70.12,558.23c0,.49-.06,1-.06,1.86V564a4,4,0,0,1-1,3.1,3.63,3.63,0,0,1-2.47.81,4.39,4.39,0,0,1-2.25-.56l.3-.94a3.84,3.84,0,0,0,2,.53c1.26,0,2.19-.66,2.19-2.37v-.75h0A2.43,2.43,0,0,1,66.67,565a3,3,0,0,1-2.88-3.3c0-2.3,1.5-3.6,3.05-3.6A2.26,2.26,0,0,1,69,559.25h0l.06-1Zm-1.28,2.68a1.62,1.62,0,0,0-.07-.56A1.77,1.77,0,0,0,67.05,559c-1.17,0-2,1-2,2.57,0,1.33.68,2.43,2,2.43a1.8,1.8,0,0,0,1.71-1.26,2.12,2.12,0,0,0,.09-.65Z"/><path d="M78.24,561.56a3.32,3.32,0,0,1-3.38,3.61,3.23,3.23,0,0,1-3.25-3.49,3.31,3.31,0,0,1,3.37-3.6A3.21,3.21,0,0,1,78.24,561.56Zm-5.38.07c0,1.49.85,2.61,2.06,2.61S77,563.13,77,561.61c0-1.15-.58-2.61-2-2.61S72.86,560.35,72.86,561.63Z"/><path d="M85.64,555.07v8.19c0,.6,0,1.29.06,1.75H84.59l0-1.18h0a2.5,2.5,0,0,1-2.31,1.34c-1.64,0-2.9-1.39-2.9-3.45,0-2.26,1.39-3.64,3-3.64a2.25,2.25,0,0,1,2,1h0v-4ZM84.41,561a2.35,2.35,0,0,0,0-.52A1.83,1.83,0,0,0,82.58,559c-1.28,0-2,1.12-2,2.62s.67,2.51,2,2.51a1.86,1.86,0,0,0,1.81-1.47,2.27,2.27,0,0,0,0-.53Z"/><path d="M89.17,556.28v2h1.77v.94H89.17v3.66c0,.84.24,1.31.93,1.31a2.82,2.82,0,0,0,.71-.08l.06.92a3,3,0,0,1-1.1.17,1.71,1.71,0,0,1-1.33-.52,2.49,2.49,0,0,1-.47-1.76v-3.7h-1v-.94h1v-1.62Z"/><path d="M101.42,561.56a3.32,3.32,0,0,1-3.37,3.61,3.22,3.22,0,0,1-3.25-3.49,3.31,3.31,0,0,1,3.36-3.6A3.2,3.2,0,0,1,101.42,561.56Zm-5.38.07c0,1.49.86,2.61,2.06,2.61s2.06-1.11,2.06-2.63c0-1.15-.57-2.61-2-2.61S96,560.35,96,561.63Z"/><path d="M103,560.07c0-.7,0-1.28,0-1.84H104l0,1.09h0a2.34,2.34,0,0,1,2.13-1.24,2,2,0,0,1,1.92,1.36h0a2.81,2.81,0,0,1,.76-.89,2.34,2.34,0,0,1,1.5-.47c.89,0,2.22.59,2.22,2.94v4h-1.2v-3.84c0-1.3-.48-2.08-1.47-2.08a1.59,1.59,0,0,0-1.46,1.12,1.85,1.85,0,0,0-.1.61V565h-1.2V561c0-1.08-.48-1.86-1.42-1.86a1.66,1.66,0,0,0-1.52,1.23,1.68,1.68,0,0,0-.1.6V565H103Z"/><path class="cls-5" d="M15.34,581.37l-3.08-9.44h1.32l1.47,4.65c.4,1.28.75,2.42,1,3.53h0c.27-1.09.66-2.28,1.08-3.51l1.6-4.67h1.3l-3.38,9.44Z"/><path class="cls-5" d="M22.19,572.69a.77.77,0,0,1-1.53,0,.75.75,0,0,1,.77-.77A.73.73,0,0,1,22.19,572.69Zm-1.38,8.68v-6.78h1.24v6.78Z"/><path class="cls-5" d="M23.92,580.11a3.24,3.24,0,0,0,1.63.49c.89,0,1.31-.45,1.31-1s-.35-.91-1.26-1.24c-1.22-.44-1.79-1.11-1.79-1.92a2.09,2.09,0,0,1,2.34-2,3.29,3.29,0,0,1,1.66.42l-.3.89a2.75,2.75,0,0,0-1.39-.39c-.73,0-1.13.42-1.13.93s.4.81,1.28,1.15c1.18.44,1.78,1,1.78,2,0,1.19-.92,2-2.53,2a3.91,3.91,0,0,1-1.91-.46Z"/><path class="cls-5" d="M36.35,581.37l-.09-.85h0a2.51,2.51,0,0,1-2.07,1,1.93,1.93,0,0,1-2.07-1.95c0-1.64,1.46-2.54,4.07-2.52v-.14a1.4,1.4,0,0,0-1.54-1.57,3.33,3.33,0,0,0-1.76.5l-.28-.81a4.24,4.24,0,0,1,2.23-.6c2.07,0,2.57,1.41,2.57,2.77v2.54a8.84,8.84,0,0,0,.12,1.62Zm-.18-3.46c-1.34,0-2.87.21-2.87,1.53a1.09,1.09,0,0,0,1.16,1.18,1.67,1.67,0,0,0,1.64-1.14,1.34,1.34,0,0,0,.07-.39Z"/><path class="cls-5" d="M39.35,571.43h1.23v9.94H39.35Z"/><path class="cls-5" d="M42.65,571.43h1.23v9.94H42.65Z"/><path class="cls-5" d="M46.64,578.21A2.18,2.18,0,0,0,49,580.56a4.36,4.36,0,0,0,1.87-.35l.21.88a5.38,5.38,0,0,1-2.25.42,3.14,3.14,0,0,1-3.33-3.42c0-2,1.2-3.65,3.18-3.65,2.21,0,2.8,1.95,2.8,3.19,0,.25,0,.45,0,.58Zm3.62-.89a1.76,1.76,0,0,0-1.71-2,2,2,0,0,0-1.89,2Z"/><path class="cls-5" d="M58.22,573.42h0l-1.58.85-.24-.94,2-1.06h1v9.1H58.22Z"/><path class="cls-5" d="M62.73,581.37v-.75l1-.94c2.33-2.22,3.38-3.39,3.39-4.76a1.62,1.62,0,0,0-1.8-1.78,3.11,3.11,0,0,0-1.94.77L63,573a4,4,0,0,1,2.58-.93,2.57,2.57,0,0,1,2.79,2.65c0,1.68-1.22,3-3.14,4.89l-.73.67v0h4.09v1Z"/><path class="cls-5" d="M74.49,577.7h0c.16-.24.4-.53.6-.77l2-2.34h1.48L76,577.38l3,4h-1.5l-2.34-3.25-.63.7v2.55H73.27v-9.94h1.22Z"/><path class="cls-5" d="M86,577.93a3.32,3.32,0,0,1-3.38,3.6A3.23,3.23,0,0,1,79.34,578a3.31,3.31,0,0,1,3.37-3.6A3.21,3.21,0,0,1,86,577.93Zm-5.38.07c0,1.48.86,2.6,2.06,2.6s2.06-1.1,2.06-2.63c0-1.15-.57-2.61-2-2.61S80.59,576.71,80.59,578Z"/><path class="cls-5" d="M87.52,576.43c0-.7,0-1.28-.06-1.84h1.08l.06,1.09h0a2.34,2.34,0,0,1,2.13-1.24,2,2,0,0,1,1.92,1.36h0a2.75,2.75,0,0,1,.75-.88,2.32,2.32,0,0,1,1.5-.48c.9,0,2.23.59,2.23,2.94v4H96v-3.84c0-1.3-.48-2.08-1.47-2.08a1.58,1.58,0,0,0-1.46,1.12,1.9,1.9,0,0,0-.1.61v4.19h-1.2v-4.06c0-1.08-.48-1.86-1.42-1.86a1.8,1.8,0,0,0-1.62,1.83v4.09H87.52Z"/><path class="cls-5" d="M99.2,576.43c0-.7,0-1.28-.06-1.84h1.08l.06,1.09h0a2.34,2.34,0,0,1,2.13-1.24,2,2,0,0,1,1.92,1.36h0a2.77,2.77,0,0,1,.76-.88,2.3,2.3,0,0,1,1.5-.48c.9,0,2.23.59,2.23,2.94v4h-1.21v-3.84c0-1.3-.47-2.08-1.47-2.08a1.59,1.59,0,0,0-1.46,1.12,2.24,2.24,0,0,0-.09.61v4.19h-1.21v-4.06c0-1.08-.48-1.86-1.41-1.86a1.84,1.84,0,0,0-1.63,1.83v4.09H99.2Z"/><path class="cls-5" d="M111.56,578.21a2.17,2.17,0,0,0,2.32,2.35,4.38,4.38,0,0,0,1.88-.35l.21.88a5.41,5.41,0,0,1-2.25.42,3.15,3.15,0,0,1-3.34-3.42c0-2,1.21-3.65,3.18-3.65,2.22,0,2.8,1.95,2.8,3.19a3.91,3.91,0,0,1,0,.58Zm3.61-.89a1.75,1.75,0,0,0-1.71-2,2,2,0,0,0-1.89,2Z"/><path class="cls-5" d="M117.89,576.43c0-.7,0-1.28-.06-1.84h1.09l.07,1.12h0a2.5,2.5,0,0,1,2.24-1.27c.94,0,2.4.56,2.4,2.88v4h-1.23v-3.91c0-1.09-.41-2-1.57-2a1.76,1.76,0,0,0-1.66,1.26,2,2,0,0,0-.08.58v4.07h-1.23Z"/><path class="cls-5" d="M127.09,572.65v1.94h1.76v.94h-1.76v3.66c0,.84.23,1.31.92,1.31a2.82,2.82,0,0,0,.71-.08l.06.92a3,3,0,0,1-1.09.17,1.68,1.68,0,0,1-1.33-.52,2.49,2.49,0,0,1-.48-1.76v-3.7h-1v-.94h1V573Z"/><path class="cls-5" d="M134,581.37l-.1-.85h0a2.54,2.54,0,0,1-2.07,1,1.94,1.94,0,0,1-2.08-1.95c0-1.64,1.46-2.54,4.08-2.52v-.14a1.4,1.4,0,0,0-1.54-1.57,3.39,3.39,0,0,0-1.77.5l-.28-.81a4.27,4.27,0,0,1,2.23-.6c2.07,0,2.58,1.41,2.58,2.77v2.54a9.9,9.9,0,0,0,.11,1.62Zm-.18-3.46c-1.35,0-2.87.21-2.87,1.53a1.09,1.09,0,0,0,1.16,1.18,1.69,1.69,0,0,0,1.64-1.14,1.34,1.34,0,0,0,.07-.39Z"/><path class="cls-5" d="M137,576.71c0-.8,0-1.49,0-2.12H138l0,1.33h0a2,2,0,0,1,1.88-1.48,1.25,1.25,0,0,1,.35,0v1.16a2.39,2.39,0,0,0-.42,0,1.73,1.73,0,0,0-1.65,1.58,3.34,3.34,0,0,0-.06.58v3.61H137Z"/><path class="cls-5" d="M142.11,578.21a2.17,2.17,0,0,0,2.32,2.35,4.38,4.38,0,0,0,1.88-.35l.21.88a5.43,5.43,0,0,1-2.26.42,3.15,3.15,0,0,1-3.33-3.42c0-2,1.21-3.65,3.18-3.65,2.21,0,2.8,1.95,2.8,3.19,0,.25,0,.45,0,.58Zm3.61-.89a1.75,1.75,0,0,0-1.71-2,2,2,0,0,0-1.89,2Z"/><path class="cls-5" d="M148.43,576.71c0-.8,0-1.49-.05-2.12h1.08l0,1.33h.06a2,2,0,0,1,1.87-1.48,1.25,1.25,0,0,1,.35,0v1.16a2.39,2.39,0,0,0-.42,0,1.73,1.73,0,0,0-1.65,1.58,3.34,3.34,0,0,0-.06.58v3.61h-1.22Z"/><path d="M45,19.34H46.2v10H45Z"/><path d="M54.41,25.84A3.31,3.31,0,0,1,51,29.44,3.22,3.22,0,0,1,47.78,26a3.31,3.31,0,0,1,3.36-3.6A3.22,3.22,0,0,1,54.41,25.84ZM49,25.91c0,1.49.85,2.61,2.06,2.61s2.06-1.11,2.06-2.64c0-1.15-.58-2.6-2-2.6S49,24.62,49,25.91Z"/><path d="M56,24.34c0-.7,0-1.27-.06-1.83H57l.07,1.12h0a2.49,2.49,0,0,1,2.24-1.28c.94,0,2.4.56,2.4,2.89v4.05H60.5V25.38c0-1.09-.41-2-1.57-2a1.74,1.74,0,0,0-1.65,1.26,1.62,1.62,0,0,0-.09.57v4.08H56Z"/><path d="M64.42,26.12a2.16,2.16,0,0,0,2.32,2.35,4.41,4.41,0,0,0,1.88-.35l.21.89a5.64,5.64,0,0,1-2.26.42A3.15,3.15,0,0,1,63.24,26c0-2.05,1.2-3.66,3.18-3.66,2.21,0,2.8,1.95,2.8,3.2a5.55,5.55,0,0,1,0,.57ZM68,25.24a1.75,1.75,0,0,0-1.71-2,2,2,0,0,0-1.89,2Z"/><path d="M70.87,29.29V23.45h-1v-.94h1v-.32a3.2,3.2,0,0,1,.78-2.37,2.37,2.37,0,0,1,1.66-.63,3.08,3.08,0,0,1,1,.19l-.17,1a1.77,1.77,0,0,0-.79-.16c-1.05,0-1.31.93-1.31,2v.37h1.64v.94H72.09v5.84Z"/><path d="M74.83,24.62c0-.8,0-1.48,0-2.11h1.07l.05,1.33h0a2,2,0,0,1,1.88-1.49,1.23,1.23,0,0,1,.35,0v1.16a1.76,1.76,0,0,0-.42,0,1.71,1.71,0,0,0-1.65,1.58,3.22,3.22,0,0,0-.06.57v3.62H74.83Z"/><path d="M83.09,29.29,83,28.43h0a2.52,2.52,0,0,1-2.07,1,1.93,1.93,0,0,1-2.07-2c0-1.63,1.45-2.53,4.07-2.52v-.14a1.4,1.4,0,0,0-1.54-1.57,3.33,3.33,0,0,0-1.76.51L79.3,23a4.14,4.14,0,0,1,2.22-.61c2.08,0,2.58,1.42,2.58,2.78v2.53a10,10,0,0,0,.11,1.63Zm-.18-3.46C81.57,25.8,80,26,80,27.35a1.09,1.09,0,0,0,1.16,1.18,1.7,1.7,0,0,0,1.64-1.13,1.4,1.4,0,0,0,.07-.4Z"/><path d="M89.84,29.29l-.1-.86h0a2.54,2.54,0,0,1-2.07,1,1.94,1.94,0,0,1-2.08-2C85.55,25.86,87,25,89.63,25v-.14a1.4,1.4,0,0,0-1.54-1.57,3.33,3.33,0,0,0-1.76.51L86,23a4.2,4.2,0,0,1,2.23-.61c2.08,0,2.58,1.42,2.58,2.78v2.53A10,10,0,0,0,91,29.29Zm-.18-3.46c-1.35,0-2.87.21-2.87,1.52A1.09,1.09,0,0,0,88,28.53a1.7,1.7,0,0,0,1.64-1.13,1.4,1.4,0,0,0,.07-.4Z"/><path d="M92.83,19.34h1.24v10H92.83Z"/><path d="M96.08,29.29c0-.46.06-1.15.06-1.75v-8.2h1.22V23.6h0a2.53,2.53,0,0,1,2.32-1.25c1.68,0,2.87,1.4,2.85,3.46,0,2.43-1.52,3.63-3,3.63a2.41,2.41,0,0,1-2.26-1.27h0l0,1.12Zm1.28-2.72a2.22,2.22,0,0,0,0,.45,1.91,1.91,0,0,0,1.85,1.44c1.29,0,2.06-1.05,2.06-2.6,0-1.36-.7-2.53-2-2.53a2,2,0,0,0-1.87,1.52,2.32,2.32,0,0,0-.07.5Z"/><path d="M104.79,26.12a2.17,2.17,0,0,0,2.33,2.35,4.36,4.36,0,0,0,1.87-.35l.21.89a5.54,5.54,0,0,1-2.25.42A3.16,3.16,0,0,1,103.61,26c0-2.05,1.21-3.66,3.18-3.66,2.22,0,2.81,1.95,2.81,3.2a3.4,3.4,0,0,1,0,.57Zm3.61-.88a1.74,1.74,0,0,0-1.7-2,2,2,0,0,0-1.9,2Z"/><path d="M111.12,24.62c0-.8,0-1.48-.06-2.11h1.08l0,1.33h.06a2,2,0,0,1,1.88-1.49,1.29,1.29,0,0,1,.35,0v1.16a1.82,1.82,0,0,0-.42,0,1.73,1.73,0,0,0-1.66,1.58,4.65,4.65,0,0,0,0,.57v3.62h-1.22Z"/><path d="M117.52,20.56v2h1.76v.94h-1.76V27.1c0,.84.23,1.32.92,1.32a2.48,2.48,0,0,0,.72-.09l0,.93a3,3,0,0,1-1.09.17,1.68,1.68,0,0,1-1.33-.52,2.53,2.53,0,0,1-.48-1.77V23.45h-1v-.94h1V20.88Z"/><path d="M120.5,28a3.3,3.3,0,0,0,1.62.49c.9,0,1.32-.45,1.32-1s-.35-.91-1.26-1.25c-1.22-.43-1.79-1.1-1.79-1.92a2.09,2.09,0,0,1,2.33-2,3.44,3.44,0,0,1,1.67.42l-.31.9a2.58,2.58,0,0,0-1.38-.39c-.73,0-1.14.42-1.14.92s.41.81,1.29,1.15c1.18.45,1.78,1,1.78,2,0,1.19-.92,2-2.54,2a3.76,3.76,0,0,1-1.9-.47Z"/><path d="M126.21,19.34h1.23v10h-1.23Z"/><path d="M135.19,27.44c0,.7,0,1.31.05,1.85h-1.09l-.07-1.11h0a2.53,2.53,0,0,1-2.24,1.26c-1.06,0-2.34-.59-2.34-3v-4h1.24v3.75c0,1.29.39,2.16,1.51,2.16a1.79,1.79,0,0,0,1.62-1.12,1.81,1.81,0,0,0,.11-.63V22.51h1.24Z"/><path d="M137.23,24.34c0-.7,0-1.27-.06-1.83h1.09l.07,1.12h0a2.49,2.49,0,0,1,2.24-1.28c.94,0,2.4.56,2.4,2.89v4.05h-1.23V25.38c0-1.09-.41-2-1.57-2a1.75,1.75,0,0,0-1.66,1.26,1.91,1.91,0,0,0-.08.57v4.08h-1.23Z"/><path d="M150.85,19.34v8.2c0,.6,0,1.29.06,1.75H149.8l-.05-1.18h0a2.51,2.51,0,0,1-2.31,1.33c-1.64,0-2.9-1.39-2.9-3.44,0-2.26,1.38-3.65,3-3.65a2.26,2.26,0,0,1,2,1h0V19.34Zm-1.23,5.93a1.91,1.91,0,0,0-1.83-1.95c-1.28,0-2,1.12-2,2.62s.68,2.51,2,2.51a2,2,0,0,0,1.86-2Z"/><rect class="cls-6" x="2" y="43" width="463" height="472"/><path class="cls-7" d="M307.5,231.5c-4.55,90.18.77,170.66-69.5,165-74.5-6-61.1-80.81-65.5-171-6-123,15.71-141.15,60-145C301.5,74.5,312.5,132.5,307.5,231.5Z"/><path class="cls-8" d="M291.25,147.31c0,31.81-19.25,60-50.93,57.13-41.41-3.81-47.54-16.53-52.83-57.13-2.86-21.89,9.47-15.52,13.32-23.8,5.13-11,11.69-2,26.69-14,5.87-4.7,4.36-20.26,12.82-20.26C272.13,89.24,291.25,115.5,291.25,147.31Z"/><path class="cls-8" d="M291.5,334.5c2-46-10.72-108.17-57.37-106.26-38,1.55-50.63,84.26-46.63,113.26l50.44-12.35Z"/><path class="cls-8" d="M249.84,231.57c-1.8-.6-16.54-1.91-22.85-1.91V204h22.85S251.27,232,249.84,231.57Z"/><line class="cls-9" x1="233.37" y1="160.69" x2="239.08" y2="160.69"/><path class="cls-9" d="M239.08,160.69l-1-9.52a6.68,6.68,0,0,1,6-7.53l.64-.08"/><path class="cls-8" d="M154.67,400.74l1.21-19.3c.25-4,3.83-6.24,8-5h0c4.15,1.23,7.32,5.47,7.07,9.47l-1.22,19.3c-.25,4-3.82,6.24-8,5h0C157.58,409,154.41,404.74,154.67,400.74Z"/><path class="cls-8" d="M214,239c1.84-1.81-3,4.85-.57,7.12s3.1,5.88,1.3,7.91c-25.47,28.81-40.33,63.46-44.15,103a219.32,219.32,0,0,0-.92,25.92c.07,3-2.37,4.95-5.46,4.28a7.44,7.44,0,0,1-5.71-6.68,227.39,227.39,0,0,1,1-27.16c4-41.44,19.54-77.72,46.18-107.85C205.7,245.47,213.93,239.06,214,239Z"/><path class="cls-8" d="M189.69,514.69c-3.05-29-6.18-76.1-6.18-99.53,0,0,.22.45.65,1.27-2.22-12,3.34-54.42,3.34-66.61V310.59c34.67.33,95.59-32.83,104,1,0,0-.5-19.58,0,31.19,0,5.2,5.6,49.15,4.79,56.35-.79,7-3,18.49-4.79,23.13-2,45.27-5.38,92.8-6.23,92.74-2.77-.19-36.77-.19-36.88-.26-1.53-13.63-2.62-28.34-3-44-.23-9.49-.17-18.62.1-27.35a49.55,49.55,0,0,1-7,0c-2.51,0-2.57.39-5,0C236,450.7,229.86,485.19,227,515"/><path class="cls-10" d="M233,296.5c0,13.53-8.51,24.5-19,24.5s-19-11-19-24.5"/><path class="cls-10" d="M282,296.5c0,13.53-8.51,24.5-19,24.5s-19-11-19-24.5"/><ellipse class="cls-11" cx="262.5" cy="313" rx="4.5" ry="3"/><ellipse class="cls-11" cx="262.25" cy="314.75" rx="1.75" ry="2.75"/><ellipse class="cls-11" cx="214.5" cy="313" rx="4.5" ry="3"/><ellipse class="cls-11" cx="214.25" cy="314.75" rx="1.75" ry="2.75"/><line class="cls-12" x1="238.5" y1="442.5" x2="239.5" y2="432.5"/><ellipse class="cls-10" cx="236" cy="385" rx="3" ry="1"/><circle cx="262" cy="141" r="5.5"/><circle cx="215" cy="141" r="5.5"/><path class="cls-9" d="M221,181l7,5a18.28,18.28,0,0,0,11.39,1.24L239,187"/><path class="cls-8" d="M370.5,269.5c-.79,2.3-11.56,32.46-35,36-12.23,1.85-21.18-4.93-39.21-16.82-15-9.92-26.36-23-41.14-41.57l-.17-.22c-1.46-2.12-.57-5.35,2.08-7.35s6.33-2,8,.08c14,17.56,22.61,29,35,37.64,4.42,3.09,19.79,18,35.45,15.24,22.94-4.08,25-47,37-41C374.51,252.5,373.1,261.9,370.5,269.5Z"/><rect class="cls-13" x="341" y="224" width="22" height="47" rx="5"/><path class="cls-8" d="M361.39,262.6l-18.34-6.14c-3.8-1.27-5.05-5.3-2.79-9h0c2.26-3.71,7.17-5.68,11-4.41l18.34,6.14c3.8,1.27,5.05,5.3,2.79,9h0C370.1,261.9,365.19,263.87,361.39,262.6Z"/><path class="cls-14" d="M345.63,231a1.5,1.5,0,0,0,0-3,1.5,1.5,0,0,0,0,3Z"/><path class="cls-14" d="M349,230a.75.75,0,0,0,0-1.5.75.75,0,0,0,0,1.5Z"/></g></svg>
