<svg id="Layer_1" data-name="Layer 1" xmlns="http://www.w3.org/2000/svg" width="210" height="80" viewBox="0 0 210 80"><defs><style>.cls-1{fill:#fff;stroke-linecap:round;stroke-linejoin:round;stroke-width:2px;}.cls-1,.cls-2{stroke:#000;}.cls-2{stroke-miterlimit:10;stroke-width:0.5px;}</style></defs><title>taleboble</title><path class="cls-1" d="M105.27,2.29c-56.61,0-105.26,4-103,37,.94,13.81,5.89,22.59,14,28.15A26,26,0,0,1,6.8,76.86a.67.67,0,0,0,.37,1.25c6.62-.34,15.76-1.44,21.91-5,18.59,5.18,45.44,3.14,76.19,3.14,56.61,0,102,5.92,102-37C207.27.2,161.88,2.29,105.27,2.29Z"/><path class="cls-2" d="M21.45,35.87,21,36a2.15,2.15,0,0,1-.57,0,1.22,1.22,0,0,1-.54-.16.5.5,0,0,1-.23-.46.43.43,0,0,1,.08-.28l.28-.24a4.24,4.24,0,0,0,1-1.28,17,17,0,0,0,.78-1.66c.24-.6.49-1.19.75-1.78a8.81,8.81,0,0,1,.92-1.6,4,4,0,0,1,1.28-1.15A3.58,3.58,0,0,1,26.7,27a2.86,2.86,0,0,1,1,.22,4.48,4.48,0,0,1,1.07.59,3.32,3.32,0,0,1,.82.89A2.07,2.07,0,0,1,30,29.8c.1.15,0,.36-.26.63a6.73,6.73,0,0,1-1.08.89c-.45.32-1,.65-1.54,1l-1.65.94L24,34a4.78,4.78,0,0,0-.79.49,2.58,2.58,0,0,0-.22.63,4.31,4.31,0,0,0-.12.67q0,.31-.06.57c0,.17,0,.31,0,.4,0,.34,0,.73,0,1.15a5.18,5.18,0,0,0,0,1.19,1.7,1.7,0,0,0,.45.92,1.62,1.62,0,0,0,1.21.37A3.37,3.37,0,0,0,26.18,40a7.79,7.79,0,0,0,1.48-1.1,11.25,11.25,0,0,0,1.24-1.43c.38-.51.71-1,1-1.43a13.63,13.63,0,0,1,.81-1.11c.24-.29.44-.44.6-.44a2.21,2.21,0,0,1,.59.1.41.41,0,0,1,.31.45,2.5,2.5,0,0,1-.39,1.18,11.1,11.1,0,0,1-1,1.44,14,14,0,0,1-1.48,1.52,15.65,15.65,0,0,1-1.68,1.34,11.11,11.11,0,0,1-1.67,1,3.52,3.52,0,0,1-1.45.37,2.6,2.6,0,0,1-1.86-.6,3.27,3.27,0,0,1-.88-1.51,7,7,0,0,1-.28-1.92C21.48,37.09,21.47,36.46,21.45,35.87Zm5-7.38a1.52,1.52,0,0,0-1,.45,5.82,5.82,0,0,0-1,1.1,7.16,7.16,0,0,0-.74,1.31,3,3,0,0,0-.29,1.11,3.58,3.58,0,0,0,1.19-.32,10.71,10.71,0,0,0,1.55-.78,8.92,8.92,0,0,0,1.34-1,1.44,1.44,0,0,0,.57-1A.52.52,0,0,0,28,29a1.68,1.68,0,0,0-.45-.27,2.57,2.57,0,0,0-.54-.16A2.25,2.25,0,0,0,26.48,28.49Z"/><path class="cls-2" d="M34.17,40.39c.12-.84.21-1.89.26-3.15s.06-2.6,0-4,0-2.89-.1-4.4-.12-2.95-.21-4.31-.2-2.57-.32-3.65-.24-1.92-.37-2.54a4.93,4.93,0,0,1,.43-.26.9.9,0,0,1,.42-.1.81.81,0,0,1,.33.07.53.53,0,0,1,.22.29q.54,5.36.75,10.8T35.94,40v.67a2.56,2.56,0,0,1,0,.45,1.42,1.42,0,0,1-.69.18,1.18,1.18,0,0,1-.55-.17,1.27,1.27,0,0,1-.38-.34A.61.61,0,0,1,34.17,40.39Z"/><path class="cls-2" d="M39.61,41.37a3.26,3.26,0,0,0,.58-.33c.4-.23.86-.55,1.4-.94s1.09-.82,1.65-1.29a11.39,11.39,0,0,0,1.4-1.32,2.16,2.16,0,0,0,.59-1.08c0-.3-.23-.5-.76-.59a4.46,4.46,0,0,0-1.65,0,8.78,8.78,0,0,0-1.22.38l-1,.41a2.3,2.3,0,0,1-1.06.14A1.76,1.76,0,0,1,37.87,36a4,4,0,0,1-.45-2A5.51,5.51,0,0,1,38,31.54a7.27,7.27,0,0,1,1.48-2,7.17,7.17,0,0,1,2.08-1.35,6,6,0,0,1,2.4-.51,4.16,4.16,0,0,1,.85.08q.36.09.36.63a1,1,0,0,1-.33.73,1,1,0,0,1-.74.34l-.14,0a1.13,1.13,0,0,1-.21-.12,1,1,0,0,0-.22-.13l-.14,0a2.1,2.1,0,0,0-1.7.25,5.49,5.49,0,0,0-1.46,1.32,7.2,7.2,0,0,0-1,1.81,4.72,4.72,0,0,0-.39,1.73.78.78,0,0,0,.13.48.66.66,0,0,0,.33.26,1.3,1.3,0,0,0,.46.1h.53a3.87,3.87,0,0,0,1.11-.16c.37-.11.74-.24,1.09-.38a10.24,10.24,0,0,1,1.1-.39A4.06,4.06,0,0,1,44.72,34a1.47,1.47,0,0,1,.6.15,1.79,1.79,0,0,1,.6.44,2.77,2.77,0,0,1,.47.65,2,2,0,0,1,.22.81,1.33,1.33,0,0,1-.1,1,6.14,6.14,0,0,1-.78,1.34,11.37,11.37,0,0,1-1.26,1.44A19.24,19.24,0,0,1,43,41.14a9.54,9.54,0,0,1-1.45,1,2.5,2.5,0,0,1-1.2.34c-.37,0-.58-.11-.65-.33A2.83,2.83,0,0,1,39.61,41.37Z"/><path class="cls-2" d="M48.49,20.78c.39-.36.69-.51.92-.44s.4.32.51.74a8.32,8.32,0,0,1,.19,1.64c0,.68,0,1.44,0,2.29s-.07,1.74-.15,2.68-.13,1.85-.19,2.76-.09,1.76-.11,2.58a15.35,15.35,0,0,0,.08,2.13h.09a.11.11,0,0,0,.08,0,23.14,23.14,0,0,0,2.54-3c.75-1.06,1.42-2.06,2-3s1.14-1.75,1.6-2.44a5,5,0,0,1,1.3-1.42,1.62,1.62,0,0,1,.7.13c.19.09.29.3.29.63,0,0,0,.1,0,.18a1.36,1.36,0,0,0,0,.18c-.46.93-1,1.86-1.5,2.8A31,31,0,0,1,55,31.91,26,26,0,0,1,53,34.4a17.92,17.92,0,0,1-2.39,2.13.46.46,0,0,1,0,.1.51.51,0,0,0,0,.09c0,.19.15.39.46.6a5.94,5.94,0,0,0,1.14.63q.7.3,1.56.6a17.25,17.25,0,0,0,1.7.52q.83.23,1.56.36a6.68,6.68,0,0,0,1.13.14c0,.07,0,.21,0,.41a2.74,2.74,0,0,1,0,.63,1.8,1.8,0,0,1-.19.58.44.44,0,0,1-.44.26h-.1l-.09,0-7.82-3.15a15.59,15.59,0,0,1-.22,2.61,4.92,4.92,0,0,1-.45,1.48q-.26.48-.54.45c-.19,0-.36-.16-.51-.44Z"/><path class="cls-2" d="M60.5,35.87l-.41.09a2.24,2.24,0,0,1-.58,0,1.14,1.14,0,0,1-.53-.16.5.5,0,0,1-.23-.46.38.38,0,0,1,.08-.28l.27-.24a4.27,4.27,0,0,0,1-1.28,17,17,0,0,0,.78-1.66c.23-.6.48-1.19.75-1.78a8.26,8.26,0,0,1,.92-1.6,4,4,0,0,1,1.28-1.15A3.58,3.58,0,0,1,65.75,27a2.9,2.9,0,0,1,1,.22,4.41,4.41,0,0,1,1.06.59,3.17,3.17,0,0,1,.82.89A2.08,2.08,0,0,1,69,29.8c.09.15,0,.36-.26.63a6.73,6.73,0,0,1-1.08.89c-.45.32-1,.65-1.54,1s-1.13.65-1.66.94L63.07,34a5,5,0,0,0-.8.49,2.59,2.59,0,0,0-.21.63,6.06,6.06,0,0,0-.13.67c0,.21,0,.4,0,.57s0,.31,0,.4c0,.34,0,.73,0,1.15a5.16,5.16,0,0,0,.06,1.19,1.64,1.64,0,0,0,.45.92,1.61,1.61,0,0,0,1.2.37,3.41,3.41,0,0,0,1.7-.45,7.42,7.42,0,0,0,1.47-1.1A11.33,11.33,0,0,0,68,37.43c.37-.51.71-1,1-1.43a13.63,13.63,0,0,1,.81-1.11c.23-.29.43-.44.6-.44a2.21,2.21,0,0,1,.59.1.41.41,0,0,1,.31.45,2.42,2.42,0,0,1-.4,1.18,11,11,0,0,1-1,1.44,15,15,0,0,1-1.48,1.52,17.91,17.91,0,0,1-1.68,1.34,11.11,11.11,0,0,1-1.67,1,3.56,3.56,0,0,1-1.45.37,2.6,2.6,0,0,1-1.86-.6,3.29,3.29,0,0,1-.89-1.51,7.42,7.42,0,0,1-.27-1.92C60.53,37.09,60.52,36.46,60.5,35.87Zm5-7.38a1.57,1.57,0,0,0-1,.45,6.2,6.2,0,0,0-1,1.1,7.1,7.1,0,0,0-.73,1.31,2.84,2.84,0,0,0-.29,1.11,3.58,3.58,0,0,0,1.19-.32,10.61,10.61,0,0,0,1.54-.78,8.44,8.44,0,0,0,1.34-1,1.42,1.42,0,0,0,.58-1A.55.55,0,0,0,67,29a1.6,1.6,0,0,0-.46-.27,2.49,2.49,0,0,0-.53-.16A2.33,2.33,0,0,0,65.53,28.49Z"/><path class="cls-2" d="M72.64,28.6v-.22a.4.4,0,0,1,.2-.38,1.06,1.06,0,0,1,.48-.11,1.78,1.78,0,0,1,.41,0,.44.44,0,0,1,.3.32c.06.27.11.65.17,1.13s.11,1,.19,1.6.15,1.2.23,1.85.16,1.25.25,1.83.17,1.09.26,1.54a4.62,4.62,0,0,0,.3,1,29.11,29.11,0,0,1,.16-4.55,8.75,8.75,0,0,1,.94-3.15,3.79,3.79,0,0,1,1.92-1.69,6,6,0,0,1,3-.21c.56,0,.85.31.85.91,0,.23-.16.39-.47.48a6.14,6.14,0,0,1-1,.16l-1.12.1a1.31,1.31,0,0,0-.79.27,2.92,2.92,0,0,0-1.38,1.69A12.07,12.07,0,0,0,77,34c-.11,1-.19,2.17-.24,3.41a31.37,31.37,0,0,1-.37,3.78.46.46,0,0,1-.21.41,1,1,0,0,1-.54.14,1.39,1.39,0,0,1-.6-.14,1,1,0,0,1-.45-.41Z"/><path class="cls-2" d="M102.33,36.78c-.18.42-.41.9-.69,1.45a11.7,11.7,0,0,1-1,1.56A5.51,5.51,0,0,1,99.35,41a2.76,2.76,0,0,1-1.64.52,1.81,1.81,0,0,1-.64-.09,1.18,1.18,0,0,1-.41-.29,2.17,2.17,0,0,1-.33-.47c-.1-.18-.22-.38-.37-.6q-.08-1.34-.09-2.88A26.64,26.64,0,0,1,96,34.14a16.31,16.31,0,0,1,.56-2.91A7.11,7.11,0,0,1,97.7,28.9a3.94,3.94,0,0,1,1.82-1.36,4.51,4.51,0,0,1,2.65-.06,16.21,16.21,0,0,0,0-2.05c0-.86-.09-1.76-.17-2.71s-.14-1.86-.22-2.75-.11-1.6-.13-2.17a.39.39,0,0,1,.23-.37,1.38,1.38,0,0,1,.51-.15,2.35,2.35,0,0,1,.53,0,1,1,0,0,1,.34.08q-.06,3.38,0,6.61t.07,6.45q0,3.21.1,6.38c0,2.12,0,4.23,0,6.35a4.88,4.88,0,0,1,0,.64c0,.23-.19.34-.48.34a.68.68,0,0,1-.33-.09.45.45,0,0,1-.21-.29Zm-1.17-7.93a2,2,0,0,0-1.57.67,6.13,6.13,0,0,0-1.26,1.87,12.53,12.53,0,0,0-.86,2.53,15.21,15.21,0,0,0-.4,2.65,8,8,0,0,0,.16,2.26,2,2,0,0,0,.84,1.34,1.63,1.63,0,0,0,1.12-.48,5.58,5.58,0,0,0,1-1.22,9.68,9.68,0,0,0,.76-1.65c.22-.61.41-1.2.56-1.77a15.09,15.09,0,0,0,.36-1.54,6.92,6.92,0,0,0,.12-1c0-.19,0-.48,0-.88a8,8,0,0,0,0-1.2,4.12,4.12,0,0,0-.23-1.07A.6.6,0,0,0,101.16,28.85Z"/><path class="cls-2" d="M112.15,38.61a3.53,3.53,0,0,1-.53.89,11.2,11.2,0,0,1-1,1.12,9,9,0,0,1-1.19,1,2,2,0,0,1-1.08.43,1.71,1.71,0,0,1-1.44-.82,6.32,6.32,0,0,1-.86-2.11,17.71,17.71,0,0,1-.41-2.86c-.07-1-.12-2.07-.13-3.07s0-1.92,0-2.74a16.78,16.78,0,0,0-.08-1.86c.07-.18.16-.29.28-.32a1.35,1.35,0,0,1,.43-.06,1.23,1.23,0,0,1,.39.06.55.55,0,0,1,.32.32c0,.2,0,.54,0,1s0,1,.07,1.6S107,32.4,107,33s.07,1.27.09,1.85.06,1.11.09,1.57,0,.81.07,1,0,.34.06.63.08.59.14.91a4.61,4.61,0,0,0,.25.86c.1.26.23.4.39.41a1.3,1.3,0,0,0,.84-.35,5.64,5.64,0,0,0,.83-.9,10.91,10.91,0,0,0,.77-1.21c.23-.43.45-.86.64-1.27a8.74,8.74,0,0,0,.44-1.11,3.58,3.58,0,0,0,.17-.71c0-.31.08-.75.11-1.32s.07-1.19.09-1.85,0-1.27,0-1.86,0-1,0-1.34l1.5.08c0,1.48,0,2.82,0,4s0,2.32,0,3.36a23.1,23.1,0,0,0,.25,3.05,15.61,15.61,0,0,0,.79,3.07,3.2,3.2,0,0,1-.33.23.82.82,0,0,1-.35.15.93.93,0,0,1-.92-.45,2.85,2.85,0,0,1-.3-1.07c0-.41-.08-.82-.11-1.23A1.55,1.55,0,0,0,112.15,38.61Z"/><path class="cls-2" d="M129.46,20.78c.38-.36.69-.51.91-.44s.4.32.51.74a7.62,7.62,0,0,1,.19,1.64c0,.68,0,1.44,0,2.29s-.08,1.74-.15,2.68-.14,1.85-.19,2.76-.1,1.76-.11,2.58a15.35,15.35,0,0,0,.08,2.13h.08s.06,0,.08,0a23.23,23.23,0,0,0,2.55-3c.74-1.06,1.42-2.06,2-3s1.13-1.75,1.6-2.44a4.84,4.84,0,0,1,1.3-1.42,1.68,1.68,0,0,1,.7.13c.19.09.28.3.28.63a1.36,1.36,0,0,1,0,.18,1.36,1.36,0,0,0,0,.18c-.46.93-1,1.86-1.51,2.8A31,31,0,0,1,136,31.91a24.52,24.52,0,0,1-2.06,2.49,19.26,19.26,0,0,1-2.39,2.13.84.84,0,0,1,0,.1.34.34,0,0,0,0,.09q0,.28.45.6a5.76,5.76,0,0,0,1.15.63q.69.3,1.56.6a17.08,17.08,0,0,0,1.69.52q.84.23,1.56.36a6.66,6.66,0,0,0,1.14.14c0,.07,0,.21,0,.41a3.44,3.44,0,0,1,0,.63,2.08,2.08,0,0,1-.19.58.45.45,0,0,1-.44.26h-.11a.15.15,0,0,1-.08,0l-7.82-3.15a15.59,15.59,0,0,1-.22,2.61,5.58,5.58,0,0,1-.45,1.48c-.18.32-.36.47-.55.45s-.36-.16-.5-.44Z"/><path class="cls-2" d="M148.44,41.07a17.17,17.17,0,0,1-.24-1.71c-.06-.66-.13-1.34-.2-2s-.16-1.33-.26-1.93a5.08,5.08,0,0,0-.45-1.48,42.24,42.24,0,0,1-2.46,4.47A11.42,11.42,0,0,1,143,40.73a2.16,2.16,0,0,1-1.35.67,1.15,1.15,0,0,1-.9-.49,2.88,2.88,0,0,1-.51-1.19,10.65,10.65,0,0,1-.2-1.36,7.61,7.61,0,0,1,.27-1.69,24.3,24.3,0,0,1,.74-2.39,26.59,26.59,0,0,1,1.11-2.64,17.1,17.1,0,0,1,1.38-2.44A9.36,9.36,0,0,1,145,27.4a2.35,2.35,0,0,1,1.58-.71,1.71,1.71,0,0,1,1.74.5,2.82,2.82,0,0,1,.2,2.34,24.9,24.9,0,0,0,.16,3.09c.09.86.2,1.68.32,2.46s.23,1.61.33,2.46a27.26,27.26,0,0,1,.15,3.09,1.82,1.82,0,0,1-.07.56c0,.16-.27.24-.67.24,0,0-.12,0-.2-.14A.4.4,0,0,1,148.44,41.07ZM147,28.85c-.2-.29-.48-.32-.82-.08a4.49,4.49,0,0,0-1.1,1.17,18.33,18.33,0,0,0-1.17,2c-.4.77-.78,1.54-1.12,2.32s-.65,1.53-.9,2.23a11.54,11.54,0,0,0-.52,1.74c0,.66.1,1,.3,1.11s.44,0,.74-.32a8.65,8.65,0,0,0,1-1.26c.38-.54.74-1.13,1.1-1.75l1-1.8c.32-.58.57-1.06.75-1.42a9.35,9.35,0,0,0,.38-1.07c.09-.33.17-.64.24-.94a5.64,5.64,0,0,0,.11-.92C147,29.52,147,29.19,147,28.85Z"/><path class="cls-2" d="M151.66,30.11a4.68,4.68,0,0,0-.5.28l-.46.28a1.54,1.54,0,0,1-.43.17.93.93,0,0,1-.47,0,.3.3,0,0,1-.27-.2,2.56,2.56,0,0,1-.18-.47,3,3,0,0,1-.09-.52,1.25,1.25,0,0,1,0-.39l2.62-1.51.16-7a.33.33,0,0,1,.44-.28c.26,0,.52.1.8.17l.17.05.18.06c0,.5-.08,1-.12,1.6s-.09,1.15-.13,1.73,0,1.13-.06,1.68a11.18,11.18,0,0,0,.06,1.47l4.11-1.14c.07,0,.13,0,.17.15a4.11,4.11,0,0,1,.14.42,3.89,3.89,0,0,1,.12.74l-4.64,2c0,.16,0,.55,0,1.17s.05,1.36.09,2.2.07,1.76.11,2.74.07,1.88.11,2.72.06,1.57.08,2.2,0,1,0,1.19c0,.55-.2.82-.48.82a1.47,1.47,0,0,1-.91-.41Z"/><path class="cls-2" d="M159.18,30.11a4.68,4.68,0,0,0-.5.28l-.46.28a1.54,1.54,0,0,1-.43.17.93.93,0,0,1-.47,0,.3.3,0,0,1-.27-.2,2.56,2.56,0,0,1-.18-.47,3,3,0,0,1-.09-.52,1.25,1.25,0,0,1,0-.39l2.62-1.51.16-7a.33.33,0,0,1,.44-.28,8,8,0,0,1,.79.17.62.62,0,0,1,.18.05l.18.06c0,.5-.08,1-.12,1.6s-.09,1.15-.13,1.73-.06,1.13-.06,1.68a11.18,11.18,0,0,0,.06,1.47L165,26.09c.07,0,.13,0,.17.15a4.11,4.11,0,0,1,.14.42,3.89,3.89,0,0,1,.12.74l-4.65,2c0,.16,0,.55.05,1.17s0,1.36.09,2.2.07,1.76.11,2.74.07,1.88.11,2.72.06,1.57.08,2.2,0,1,0,1.19c0,.55-.2.82-.48.82a1.47,1.47,0,0,1-.91-.41Z"/><path class="cls-2" d="M166.76,35.87l-.41.09a2.24,2.24,0,0,1-.58,0,1.14,1.14,0,0,1-.53-.16.48.48,0,0,1-.23-.46.38.38,0,0,1,.08-.28l.27-.24a4.43,4.43,0,0,0,1-1.28,17,17,0,0,0,.78-1.66c.23-.6.48-1.19.75-1.78a8.78,8.78,0,0,1,.91-1.6,4.18,4.18,0,0,1,1.29-1.15A3.58,3.58,0,0,1,172,27a2.81,2.81,0,0,1,1,.22,4.29,4.29,0,0,1,1.07.59,3.17,3.17,0,0,1,.82.89,2.08,2.08,0,0,1,.33,1.14c.09.15,0,.36-.26.63a7.21,7.21,0,0,1-1.08.89c-.46.32-1,.65-1.55,1s-1.12.65-1.65.94l-1.39.77a4.56,4.56,0,0,0-.8.49,3.09,3.09,0,0,0-.22.63c-.05.23-.09.46-.12.67s0,.4-.05.57,0,.31,0,.4c0,.34,0,.73,0,1.15a4.66,4.66,0,0,0,.06,1.19,1.64,1.64,0,0,0,.45.92,1.6,1.6,0,0,0,1.2.37,3.41,3.41,0,0,0,1.7-.45,7.72,7.72,0,0,0,1.47-1.1,11.33,11.33,0,0,0,1.25-1.43c.37-.51.71-1,1-1.43a13.63,13.63,0,0,1,.81-1.11c.23-.29.43-.44.6-.44a2.14,2.14,0,0,1,.58.1.42.42,0,0,1,.32.45,2.42,2.42,0,0,1-.4,1.18,10.22,10.22,0,0,1-1,1.44,14.89,14.89,0,0,1-1.47,1.52,17.91,17.91,0,0,1-1.68,1.34,11.63,11.63,0,0,1-1.67,1,3.56,3.56,0,0,1-1.45.37,2.6,2.6,0,0,1-1.86-.6,3.29,3.29,0,0,1-.89-1.51,7.42,7.42,0,0,1-.27-1.92C166.79,37.09,166.77,36.46,166.76,35.87Zm5-7.38a1.57,1.57,0,0,0-1,.45,6.2,6.2,0,0,0-1,1.1,7.8,7.8,0,0,0-.74,1.31,3,3,0,0,0-.28,1.11,3.58,3.58,0,0,0,1.19-.32,10.61,10.61,0,0,0,1.54-.78,8.44,8.44,0,0,0,1.34-1,1.44,1.44,0,0,0,.57-1,.52.52,0,0,0-.19-.41,1.42,1.42,0,0,0-.45-.27,2.49,2.49,0,0,0-.53-.16A2.33,2.33,0,0,0,171.79,28.49Z"/><path class="cls-2" d="M181.66,29.67a3.91,3.91,0,0,1,.53-2,9.9,9.9,0,0,1,1.3-1.71,20,20,0,0,1,1.7-1.57,18.39,18.39,0,0,0,1.69-1.59,9.67,9.67,0,0,0,1.3-1.73,3.93,3.93,0,0,0,.53-2,1.2,1.2,0,0,0-.33-.93,1.78,1.78,0,0,0-.82-.42,4,4,0,0,0-1.06-.11h-1.07a4,4,0,0,0-1.67.36c-.53.23-1,.49-1.51.75s-1,.51-1.44.74a3.28,3.28,0,0,1-1.45.34,1.42,1.42,0,0,1-.57-.1c-.17-.06-.25-.27-.25-.64s.16-.44.47-.66a7.1,7.1,0,0,1,1.19-.64c.48-.21,1-.41,1.61-.6s1.17-.35,1.73-.48,1.08-.23,1.52-.31a6.61,6.61,0,0,1,1-.13,10.85,10.85,0,0,1,1.32.1,4.5,4.5,0,0,1,1.32.36,2.66,2.66,0,0,1,1,.73,1.93,1.93,0,0,1,.4,1.25,6,6,0,0,1-.71,2.76A15.59,15.59,0,0,1,187.69,24a26.81,26.81,0,0,1-2.08,2.27c-.72.71-1.34,1.33-1.85,1.88a.75.75,0,0,0-.42.5,1.32,1.32,0,0,0,0,.71,2,2,0,0,0,.4.71,1.72,1.72,0,0,0,.74.52,2,2,0,0,0,1,.11,3,3,0,0,0,1.26-.48l.52,1.07a3.2,3.2,0,0,1-1.34.59,7.66,7.66,0,0,1-1.48.15,3.49,3.49,0,0,1-1-.16,3.22,3.22,0,0,1-.9-.47,2.46,2.46,0,0,1-.66-.74A2,2,0,0,1,181.66,29.67Zm1.45,11a.75.75,0,0,1,.18-.6.73.73,0,0,1,.47-.13,1.07,1.07,0,0,1,.8.34,1.09,1.09,0,0,1,.32.78.55.55,0,0,1-.28.53,1.38,1.38,0,0,1-.65.15.51.51,0,0,1-.31-.12,1.31,1.31,0,0,1-.27-.3,2,2,0,0,1-.19-.34A.73.73,0,0,1,183.11,40.71Z"/></svg>
